<?xml version="1.0" encoding="iso-8859-1"?>
<!-- Generator: Adobe Illustrator 16.0.0, SVG Export Plug-In . SVG Version: 6.00 Build 0)  -->
<!DOCTYPE svg PUBLIC "-//W3C//DTD SVG 1.1//EN" "http://www.w3.org/Graphics/SVG/1.1/DTD/svg11.dtd">
<svg version="1.1" id="Capa_1" xmlns="http://www.w3.org/2000/svg" xmlns:xlink="http://www.w3.org/1999/xlink" x="0px" y="0px"
	 width="64px" height="64px" viewBox="0 0 64 64" style="enable-background:new 0 0 64 64;" xml:space="preserve">
<g>
	<g>
		<g id="Rewind_copy_6_2_">
			<g>
				<path d="M32,0C14.327,0,0,14.327,0,32s14.327,32,32,32s32-14.327,32-32S49.673,0,32,0z M32,62.001c-16.568,0-30-13.433-30-30
					C2,15.432,15.432,2,32,2c16.568,0,30,13.432,30,30.001C62,48.568,48.568,62.001,32,62.001z"/>
			</g>
		</g>
		<g id="Reply_copy_4_2_">
			<g>
				<path d="M46.012,20.307l-6.789-4.033c-0.938-0.557-2.137-0.227-2.679,0.738l-7.29,13.338l-0.98,1.746
					c-0.319,0.568-0.781,1.278-0.735,2.021L27.012,43H18v2h11v-0.014c0.282-0.006,0.565-0.065,0.826-0.198l7.306-4.976
					c0.647-0.328,1.009-1.099,1.327-1.666l0.979-1.748l0.49-0.873l6.801-12.464C47.27,22.097,46.949,20.863,46.012,20.307z
					 M38.23,34.52l-0.489,0.873c0,0-0.351,0.623-0.979,1.746c-0.631,1.121-1.967,2.186-2.453,2.432l-3.718,3.01
					c-0.439,0.225-0.959,0.207-1.382-0.045c-0.425-0.252-0.698-0.705-0.729-1.209l0.674-4.818c-0.034-0.555,0.182-2.27,0.817-3.402
					c0.636-1.132,1.96-3.493,1.96-3.493l1.959-3.493l1.43-2.661l6.791,4.031l-1.43,2.664L38.23,34.52z M43.041,25.759l-6.791-4.031
					l1.992-3.708l6.79,4.033L43.041,25.759z"/>
			</g>
		</g>
	</g>
</g>
<g>
</g>
<g>
</g>
<g>
</g>
<g>
</g>
<g>
</g>
<g>
</g>
<g>
</g>
<g>
</g>
<g>
</g>
<g>
</g>
<g>
</g>
<g>
</g>
<g>
</g>
<g>
</g>
<g>
</g>
</svg>
