<?xml version="1.0" encoding="utf-8"?>
<!-- Generator: Adobe Illustrator 21.0.0, SVG Export Plug-In . SVG Version: 6.00 Build 0)  -->
<svg version="1.1" id="Layer_1" xmlns="http://www.w3.org/2000/svg" xmlns:xlink="http://www.w3.org/1999/xlink" x="0px" y="0px"
	 viewBox="0 0 32 32" style="enable-background:new 0 0 32 32;" xml:space="preserve">
<style type="text/css">
	.st0{fill:#6D6E71;}
	.st1{opacity:0.6;fill:#3B76A8;}
	.st2{fill:#3978AC;}
	.st3{fill:#85A754;}
	.st4{fill:#AA454A;}
	.st5{opacity:0.6;fill:#AA454A;}
	.st6{opacity:0.6;fill:#85A754;}
</style>
<g>
	<g>
		<path class="st0" d="M0.7,31.7h31.2c0.1,0,0.1-0.1,0.1-0.1c0-0.1,0-0.1-0.1-0.1H0.7c-0.1,0-0.1,0.1-0.1,0.1
			C0.6,31.7,0.6,31.7,0.7,31.7L0.7,31.7z M0.7,31.7"/>
		<path class="st0" d="M0.7,24.1h31.2c0.1,0,0.1-0.1,0.1-0.1c0-0.1,0-0.1-0.1-0.1H0.7c-0.1,0-0.1,0.1-0.1,0.1
			C0.6,24.1,0.6,24.1,0.7,24.1L0.7,24.1z M0.7,24.1"/>
		<path class="st0" d="M0.7,16.6h31.2c0.1,0,0.1-0.1,0.1-0.1c0-0.1,0-0.1-0.1-0.1H0.7c-0.1,0-0.1,0.1-0.1,0.1
			C0.6,16.5,0.6,16.6,0.7,16.6L0.7,16.6z M0.7,16.6"/>
		<path class="st0" d="M0.7,9h31.2C31.9,9,32,8.9,32,8.8c0-0.1,0-0.1-0.1-0.1H0.7c-0.1,0-0.1,0.1-0.1,0.1C0.6,8.9,0.6,9,0.7,9L0.7,9
			z M0.7,9"/>
		<path class="st0" d="M0.7,1.4h31.2c0.1,0,0.1-0.1,0.1-0.1c0-0.1,0-0.1-0.1-0.1H0.7c-0.1,0-0.1,0.1-0.1,0.1
			C0.6,1.3,0.6,1.4,0.7,1.4L0.7,1.4z M0.7,1.4"/>
	</g>
	<polygon class="st1" points="2,26.5 18.9,14.4 30.5,20.4 30.5,31.1 2,31.1 	"/>
	<ellipse class="st2" cx="2" cy="26.5" rx="0.8" ry="0.8"/>
	<ellipse class="st2" cx="18.9" cy="14.4" rx="0.8" ry="0.8"/>
	<ellipse class="st2" cx="30.5" cy="19.9" rx="0.8" ry="0.8"/>
	<ellipse class="st3" cx="2.3" cy="7.6" rx="0.8" ry="0.8"/>
	<ellipse class="st3" cx="30.2" cy="24" rx="0.8" ry="0.8"/>
	<ellipse class="st4" cx="2" cy="15" rx="0.8" ry="0.8"/>
	<ellipse class="st4" cx="18.9" cy="24" rx="0.8" ry="0.8"/>
	<ellipse class="st4" cx="30.2" cy="14.7" rx="0.8" ry="0.8"/>
	<polygon class="st5" points="2,14.4 18.9,24 30.5,14.4 30.5,31.1 2,31.1 	"/>
	<polygon class="st6" points="2,7.6 30.5,24 30.5,31.1 2,31.1 	"/>
</g>
</svg>
