<?xml version="1.0" encoding="utf-8"?>
<!-- Generator: Adobe Illustrator 21.0.0, SVG Export Plug-In . SVG Version: 6.00 Build 0)  -->
<svg version="1.1" id="Layer_1" xmlns="http://www.w3.org/2000/svg" xmlns:xlink="http://www.w3.org/1999/xlink" x="0px" y="0px"
	 viewBox="0 0 32 32" style="enable-background:new 0 0 32 32;" xml:space="preserve">
<style type="text/css">
	.st0{fill:#8CC4EB;}
	.st1{fill:#7251A1;}
	.st2{fill:#B9D986;}
	.st3{fill:#AA454A;}
</style>
<g>
	<path class="st0" d="M0,23.1h9.8c0.2-0.8,0.7-1.5,1.2-2.1L4,14.4C1.8,16.7,0.4,19.7,0,23.1z"/>
	<path class="st1" d="M16,8.9c-4.8,0-9.1,2.1-12,5.4l6.9,6.6c1.2-1.5,3-2.5,5.1-2.5c0.9,0,1.7,0.2,2.4,0.5l3.2-9
		C19.9,9.3,18,8.9,16,8.9z"/>
	<path class="st2" d="M21.6,9.9l-3.2,9c1.2,0.5,2.3,1.3,3,2.4l8.3-4.8C27.8,13.6,25,11.2,21.6,9.9z"/>
	<path class="st3" d="M32,23.1c-0.3-2.4-1.1-4.5-2.3-6.5l-8.3,4.8c0.3,0.5,0.6,1.1,0.8,1.6H32z"/>
</g>
</svg>
