<?xml version="1.0" encoding="utf-8"?>
<!-- Generator: Adobe Illustrator 21.0.0, SVG Export Plug-In . SVG Version: 6.00 Build 0)  -->
<svg version="1.1" id="Layer_1" xmlns="http://www.w3.org/2000/svg" xmlns:xlink="http://www.w3.org/1999/xlink" x="0px" y="0px"
	 viewBox="0 0 32 32" style="enable-background:new 0 0 32 32;" xml:space="preserve">
<style type="text/css">
	.st0{fill:#6D6E71;}
	.st1{fill:#7251A1;stroke:#FFFFFF;stroke-width:8.931700e-02;stroke-miterlimit:10;}
	.st2{fill:#3B76A8;stroke:#FFFFFF;stroke-width:0.1614;stroke-miterlimit:10;}
	.st3{fill:#AA454A;stroke:#FFFFFF;stroke-width:0.1437;stroke-miterlimit:10;}
	.st4{fill:#85A754;stroke:#FFFFFF;stroke-width:0.1356;stroke-miterlimit:10;}
	.st5{fill:#7251A1;stroke:#FFFFFF;stroke-width:0.1021;stroke-miterlimit:10;}
	.st6{fill:#3B76A8;stroke:#FFFFFF;stroke-width:0.14;stroke-miterlimit:10;}
	.st7{fill:#AA454A;stroke:#FFFFFF;stroke-width:0.1281;stroke-miterlimit:10;}
	.st8{fill:#85A754;stroke:#FFFFFF;stroke-width:0.2366;stroke-miterlimit:10;}
	.st9{fill:#7251A1;stroke:#FFFFFF;stroke-width:5.931500e-02;stroke-miterlimit:10;}
	.st10{fill:#3B76A8;stroke:#FFFFFF;stroke-width:0.171;stroke-miterlimit:10;}
	.st11{fill:#AA454A;stroke:#FFFFFF;stroke-width:0.1665;stroke-miterlimit:10;}
</style>
<g>
	<g>
		<path class="st0" d="M0.1,31.4h31.8c0.1,0,0.1-0.1,0.1-0.1c0-0.1,0-0.1-0.1-0.1H0.1C0,31.1,0,31.2,0,31.3C0,31.3,0,31.4,0.1,31.4
			L0.1,31.4z M0.1,31.4"/>
		<path class="st0" d="M0.1,23.8h31.8c0.1,0,0.1-0.1,0.1-0.1c0-0.1,0-0.1-0.1-0.1H0.1C0,23.5,0,23.6,0,23.6C0,23.7,0,23.8,0.1,23.8
			L0.1,23.8z M0.1,23.8"/>
		<path class="st0" d="M0.1,16.1h31.8c0.1,0,0.1-0.1,0.1-0.1c0-0.1,0-0.1-0.1-0.1H0.1C0,15.9,0,15.9,0,16C0,16.1,0,16.1,0.1,16.1
			L0.1,16.1z M0.1,16.1"/>
		<path class="st0" d="M0.1,8.5h31.8C32,8.5,32,8.4,32,8.4c0-0.1,0-0.1-0.1-0.1H0.1C0,8.2,0,8.3,0,8.4C0,8.4,0,8.5,0.1,8.5L0.1,8.5z
			 M0.1,8.5"/>
		<path class="st0" d="M0.1,0.9h31.8C32,0.9,32,0.8,32,0.7c0-0.1,0-0.1-0.1-0.1H0.1C0,0.6,0,0.7,0,0.7C0,0.8,0,0.9,0.1,0.9L0.1,0.9z
			 M0.1,0.9"/>
	</g>
	<rect x="1" y="18.9" class="st1" width="2.6" height="11.8"/>
	<rect x="1" y="2.2" class="st2" width="2.6" height="16.6"/>
	<rect x="4" y="18.9" class="st3" width="2.6" height="11.8"/>
	<rect x="4" y="12.6" class="st4" width="2.6" height="6.3"/>
	<rect x="13.8" y="15.2" class="st5" width="2.6" height="15.5"/>
	<rect x="13.9" y="9.6" class="st6" width="2.6" height="5.7"/>
	<rect x="16.8" y="21.3" class="st7" width="2.6" height="9.4"/>
	<rect x="16.8" y="2.2" class="st8" width="2.6" height="19.1"/>
	<rect x="24.9" y="25.5" class="st9" width="2.6" height="5.2"/>
	<rect x="24.9" y="6.9" class="st10" width="2.6" height="18.7"/>
	<rect x="27.8" y="14.8" class="st11" width="2.6" height="15.9"/>
	<rect x="27.8" y="8.6" class="st4" width="2.6" height="6.3"/>
</g>
</svg>
