<?xml version="1.0" encoding="utf-8"?>
<!-- Generator: Adobe Illustrator 21.0.0, SVG Export Plug-In . SVG Version: 6.00 Build 0)  -->
<svg version="1.1" id="Layer_1" xmlns="http://www.w3.org/2000/svg" xmlns:xlink="http://www.w3.org/1999/xlink" x="0px" y="0px"
	 viewBox="0 0 32 32" style="enable-background:new 0 0 32 32;" xml:space="preserve">
<style type="text/css">
	.st0{fill:#BCBEC0;}
	.st1{fill:#D1D3D4;}
	.st2{fill:#E6E7E8;}
	.st3{fill:#6D6E71;}
	.st4{stroke:#000000;stroke-width:0.2;stroke-miterlimit:10;}
	.st5{font-family:'MyriadPro-Regular';}
	.st6{font-size:2.8493px;}
	.st7{fill:#1B75BC;}
</style>
<g>
	<rect x="0.3" y="0.3" class="st0" width="8.2" height="31.2"/>
	<rect x="8.5" y="0.3" class="st1" width="23.1" height="7.2"/>
	<rect x="8.5" y="15.5" class="st2" width="23.1" height="8.1"/>
	<path class="st3" d="M0.3,31.7h31.4c0.1,0,0.1-0.1,0.1-0.1c0-0.1,0-0.1-0.1-0.1H0.3c-0.1,0-0.1,0.1-0.1,0.1
		C0.2,31.7,0.2,31.7,0.3,31.7L0.3,31.7z M0.3,31.7"/>
	<path class="st3" d="M0.3,15.6h31.4c0.1,0,0.1-0.1,0.1-0.1c0-0.1,0-0.1-0.1-0.1H0.3c-0.1,0-0.1,0.1-0.1,0.1
		C0.2,15.6,0.2,15.6,0.3,15.6L0.3,15.6z M0.3,15.6"/>
	<path class="st3" d="M0.3,23.7h31.4c0.1,0,0.1-0.1,0.1-0.1c0-0.1,0-0.1-0.1-0.1H0.3c-0.1,0-0.1,0.1-0.1,0.1
		C0.2,23.6,0.2,23.7,0.3,23.7L0.3,23.7z M0.3,23.7"/>
	<path class="st3" d="M0.3,7.6h31.4c0.1,0,0.1-0.1,0.1-0.1c0-0.1,0-0.1-0.1-0.1H0.3c-0.1,0-0.1,0.1-0.1,0.1C0.2,7.5,0.2,7.6,0.3,7.6
		L0.3,7.6z M0.3,7.6"/>
	<path class="st3" d="M0.3,0.5h31.4c0.1,0,0.1-0.1,0.1-0.1c0-0.1,0-0.1-0.1-0.1H0.3c-0.1,0-0.1,0.1-0.1,0.1C0.2,0.5,0.2,0.5,0.3,0.5
		L0.3,0.5z M0.3,0.5"/>
	<path class="st3" d="M0.2,0.5v31c0,0.1,0.1,0.1,0.1,0.1c0.1,0,0.1,0,0.1-0.1v-31c0-0.1-0.1-0.1-0.1-0.1C0.2,0.4,0.2,0.4,0.2,0.5
		L0.2,0.5z M0.2,0.5"/>
	<path class="st3" d="M8.5,0.5v31c0,0.1,0.1,0.1,0.1,0.1c0.1,0,0.1,0,0.1-0.1v-31c0-0.1-0.1-0.1-0.1-0.1C8.5,0.4,8.5,0.4,8.5,0.5
		L8.5,0.5z M8.5,0.5"/>
	<path class="st3" d="M20.3,0.5v31c0,0.1,0.1,0.1,0.1,0.1c0.1,0,0.1,0,0.1-0.1v-31c0-0.1-0.1-0.1-0.1-0.1
		C20.3,0.4,20.3,0.4,20.3,0.5L20.3,0.5z M20.3,0.5"/>
	<path class="st3" d="M31.6,0.5v31c0,0.1,0.1,0.1,0.1,0.1c0.1,0,0.1,0,0.1-0.1v-31c0-0.1-0.1-0.1-0.1-0.1
		C31.6,0.4,31.6,0.4,31.6,0.5L31.6,0.5z M31.6,0.5"/>
	<text transform="matrix(0.9439 0 0 1 1.9994 5.1547)" class="st4 st5 st6">Ano</text>
	<text transform="matrix(0.9439 0 0 1 12.4599 5.1547)" class="st4 st5 st6">Jan</text>
	<text transform="matrix(0.9439 0 0 1 24.0873 5.1547)" class="st4 st5 st6">Fev</text>
	<text transform="matrix(0.9439 0 0 1 1.6401 12.5805)" class="st7 st5 st6">2010</text>
	<text transform="matrix(0.9439 0 0 1 1.6401 20.9579)" class="st7 st5 st6">2009</text>
	<text transform="matrix(0.9439 0 0 1 1.6401 28.4335)" class="st7 st5 st6">2008</text>
	<text transform="matrix(0.9439 0 0 1 10.9477 12.5805)" class="st7 st5 st6">33010</text>
	<text transform="matrix(0.9439 0 0 1 10.9477 20.9579)" class="st7 st5 st6">20809</text>
	<text transform="matrix(0.9439 0 0 1 10.2572 28.4335)" class="st7 st5 st6">442008</text>
	<text transform="matrix(0.9439 0 0 1 22.6205 12.5805)" class="st7 st5 st6">33010</text>
	<text transform="matrix(0.9439 0 0 1 22.6205 20.9579)" class="st7 st5 st6">20809</text>
	<text transform="matrix(0.9439 0 0 1 21.9301 28.4335)" class="st7 st5 st6">442008</text>
</g>
</svg>
