<?xml version="1.0" encoding="UTF-8" standalone="no"?>
<svg
   id="Layer_1"
   viewBox="0 0 274 192"
   version="1.1"
   sodipodi:docname="LOGO_IGRP-01 - green.svg"
   inkscape:version="1.2.1 (9c6d41e4, 2022-07-14)"
   xmlns:inkscape="http://www.inkscape.org/namespaces/inkscape"
   xmlns:sodipodi="http://sodipodi.sourceforge.net/DTD/sodipodi-0.dtd"
   xmlns="http://www.w3.org/2000/svg"
   xmlns:svg="http://www.w3.org/2000/svg">
  <sodipodi:namedview
     id="namedview456"
     pagecolor="#505050"
     bordercolor="#eeeeee"
     borderopacity="1"
     inkscape:showpageshadow="0"
     inkscape:pageopacity="0"
     inkscape:pagecheckerboard="0"
     inkscape:deskcolor="#505050"
     showgrid="false"
     inkscape:zoom="1.2291667"
     inkscape:cx="136.67797"
     inkscape:cy="96"
     inkscape:window-width="1529"
     inkscape:window-height="456"
     inkscape:window-x="224"
     inkscape:window-y="25"
     inkscape:window-maximized="0"
     inkscape:current-layer="g415" />
  <defs
     id="defs391">
    <style
       id="style389">.cls-1{fill:#009fde;}.cls-2{fill:#c0cbd6;}.cls-3{fill:#242020;}.cls-4{fill:#41a6dc;}</style>
  </defs>
  <g
     id="g401">
    <path
       class="cls-3"
       d="M4.41,104.38c0-2.5,2.13-4.63,4.82-4.63s4.82,2.04,4.82,4.54c0,2.69-2.04,4.82-4.82,4.82s-4.82-2.13-4.82-4.72Zm1.48,15.38h6.58v48.73H5.89v-48.73Z"
       id="path393" />
    <path
       class="cls-3"
       d="M71.29,119.75v42.8c0,16.77-8.24,24.36-24.36,24.36-8.89,0-17.6-2.69-22.7-7.5l3.33-5c4.63,4.17,11.67,6.67,19.18,6.67,12.32,0,17.97-5.65,17.97-17.69v-6.21c-4.08,6.21-11.02,9.45-18.99,9.45-13.9,0-24.46-9.73-24.46-23.71s10.56-23.53,24.46-23.53c8.15,0,15.19,3.33,19.27,9.73v-9.36h6.3Zm-6.39,23.16c0-10.56-7.78-17.79-18.53-17.79s-18.43,7.23-18.43,17.79,7.69,17.88,18.43,17.88,18.53-7.32,18.53-17.88Z"
       id="path395" />
    <path
       class="cls-3"
       d="M109.64,119.38v6.39c-.56,0-1.11-.09-1.58-.09-10.19,0-16.4,6.48-16.4,17.97v24.83h-6.58v-48.73h6.3v9.54c3.06-6.48,9.26-9.91,18.25-9.91Z"
       id="path397" />
    <path
       class="cls-3"
       d="M166.23,144.12c0,14.82-10.38,24.83-24.27,24.83-7.78,0-14.45-3.34-18.53-9.63v27.14h-6.58V119.75h6.3v9.63c3.98-6.48,10.75-10,18.8-10,13.9,0,24.27,10,24.27,24.73Zm-6.58,0c0-11.3-7.87-18.99-18.16-18.99s-18.16,7.69-18.16,18.99,7.78,18.99,18.16,18.99,18.16-7.6,18.16-18.99Z"
       id="path399" />
  </g>
  <g
     id="g415">
    <path
       class="cls-2"
       d="M268.08,76.18c-1.93-8.47-14.85-18.53-94.89-4.64,0-12.92,.15-21.74,0-43.73-.11-15.51-8-26.62-21.67-20.69-26.98,11.7-52.07,44.2-66.73,72.27-4.57,8.74-1.42,24.5,11.84,23.63,22.78-1.5,39.73-9.35,61.88-14.01,1.36,12.82,11.99,32.71,29.72,32.35,42.16-.87,82.66-32.81,79.84-45.17Zm-111.7-1.36c-9.82,1.32-34.34,6.69-55.7,12.7-.85,.24-1.64-.53-1.43-1.38,2.73-11.15,14.2-24.88,20.21-32.1,7.91-9.49,24.09-27,36.91-32.83-.78,12.63-.97,39.63,0,53.62Zm91.11,7.58c-8.35,7.96-38.68,22.81-54.59,24.09-10.93,.88-19.95-10.44-19.56-20.35,12.71-5.41,56.18-6.48,73.47-6.46,3.02,0,1.3,2.12,.68,2.72Z"
       id="path403" />
    <path
       class="cls-4"
       d="M150.18,18.1c-40.6,17.48-53.03,39.44-65.37,61.22-4.86,8.58-1.42,24.5,11.84,23.63,22.78-1.5,39.73-9.35,61.88-14.01l-2.14-14.18c-9.82,1.32-34.34,6.69-55.7,12.7-.85,.24-1.64-.53-1.43-1.38,2.73-11.15,14.2-24.88,20.21-32.1,7.91-9.49,24.09-27,36.91-32.83,0,0-.44-5.53-6.22-3.04Z"
       id="path405"
       style="fill:#008080" />
    <path
       class="cls-4"
       d="M245.81,65.06c-1.37-.11-2.84-.19-4.38-.25-.14,0-.28-.01-.42-.02-.38-.01-.76-.03-1.15-.04-.89-.03-1.82-.04-2.77-.05-.14,0-.28,0-.42,0-.71,0-1.45,0-2.19,.01-.32,0-.62,0-.94,0,0,0,0,0-.01,0-2,.04-4.11,.11-6.34,.21-13.28,.63-30.82,2.64-53.98,6.66l.15,14.6c9.5-4.05,36.01-5.7,56.01-6.26,0,.01,0,.02,.02,.03,6.91-.19,13.06-.26,17.49-.26,3.02,0,1.3,2.12,.68,2.72-.51,.49-1.11,1.01-1.78,1.54,3.05-2.05,5.06-5.53,5.06-9.48s-1.98-7.38-4.99-9.44Z"
       id="path407"
       style="fill:#008080" />
    <g
       id="g413">
      <path
         class="cls-1"
         d="M246.81,79.68c-.56-2.26-15.04-8.23-35.96-7.06-14.98,.84-26.97,1.54-37.63,2.41l.1,10.85c15.8-3.36,36.69-6.32,73.48-6.2Z"
         id="path409"
         style="fill:#008000" />
      <path
         class="cls-1"
         d="M100.52,87.5c-2.93,4.48,20.96,8.05,33.72,6.55,9.04-1.06,16.44-2.81,24.32-4.73l-1.91-12.67c-17.09,2.02-32.79,5.08-56.13,10.85Z"
         id="path411"
         style="fill:#008000" />
    </g>
  </g>
  <g
     id="g453">
    <path
       d="M175.65,141.78l.53-1.05c.92,.9,2.55,1.56,4.24,1.56,2.41,0,3.45-1.01,3.45-2.28,0-3.53-7.92-1.36-7.92-6.12,0-1.89,1.47-3.53,4.74-3.53,1.45,0,2.96,.42,3.99,1.14l-.46,1.08c-1.1-.72-2.39-1.07-3.53-1.07-2.35,0-3.4,1.05-3.4,2.33,0,3.53,7.92,1.4,7.92,6.08,0,1.89-1.51,3.51-4.79,3.51-1.93,0-3.82-.68-4.78-1.67Z"
       id="path417" />
    <path
       d="M186.68,130.63c0-.5,.42-.92,.96-.92s.96,.4,.96,.9c0,.53-.4,.96-.96,.96s-.96-.42-.96-.94Zm.29,3.05h1.3v9.66h-1.3v-9.66Z"
       id="path419" />
    <path
       d="M206.94,137.74v5.6h-1.3v-5.48c0-2.04-1.03-3.09-2.77-3.09-1.98,0-3.23,1.29-3.23,3.49v5.07h-1.3v-5.48c0-2.04-1.03-3.09-2.79-3.09-1.97,0-3.23,1.29-3.23,3.49v5.07h-1.3v-9.66h1.25v1.76c.68-1.16,1.93-1.84,3.55-1.84s2.85,.68,3.44,2.04c.7-1.25,2.08-2.04,3.82-2.04,2.35,0,3.89,1.36,3.89,4.13Z"
       id="path421" />
    <path
       d="M219.36,138.51c0,2.94-2.06,4.92-4.81,4.92-1.54,0-2.87-.66-3.67-1.91v5.38h-1.3v-13.23h1.25v1.91c.79-1.29,2.13-1.98,3.73-1.98,2.76,0,4.81,1.98,4.81,4.91Zm-1.3,0c0-2.24-1.56-3.77-3.6-3.77s-3.6,1.53-3.6,3.77,1.54,3.77,3.6,3.77,3.6-1.51,3.6-3.77Z"
       id="path423" />
    <path
       d="M221.1,129.71h1.3v13.63h-1.3v-13.63Z"
       id="path425" />
    <path
       d="M233.53,138.91h-8.08c.15,2.02,1.69,3.36,3.8,3.36,1.18,0,2.22-.42,2.96-1.27l.73,.84c-.86,1.03-2.2,1.58-3.73,1.58-3.01,0-5.07-2.06-5.07-4.92s2-4.91,4.72-4.91,4.68,2,4.68,4.91c0,.11-.02,.26-.02,.4Zm-8.08-.97h6.85c-.17-1.89-1.54-3.21-3.44-3.21s-3.25,1.32-3.42,3.21Z"
       id="path427" />
    <path
       d="M234.45,142.42c0-.57,.44-.99,.97-.99s.99,.42,.99,.99-.46,1.01-.99,1.01-.97-.44-.97-1.01Z"
       id="path429" />
    <path
       d="M174.69,160.14l.81-.92c.7,1.03,1.64,1.58,2.77,1.58,1.58,0,2.39-.94,2.39-2.83v-7.79h-4.7v-1.18h6.04v8.91c0,2.72-1.29,4.06-3.75,4.06-1.45,0-2.77-.66-3.56-1.84Z"
       id="path431" />
    <path
       d="M193.59,152.2v9.66h-1.25v-1.76c-.68,1.18-1.93,1.86-3.47,1.86-2.46,0-4.08-1.38-4.08-4.15v-5.6h1.3v5.47c0,2.06,1.07,3.1,2.9,3.1,2.02,0,3.29-1.3,3.29-3.51v-5.07h1.3Z"
       id="path433" />
    <path
       d="M194.98,160.76l.59-1.03c.77,.61,2.08,1.08,3.44,1.08,1.84,0,2.59-.62,2.59-1.58,0-2.52-6.26-.53-6.26-4.35,0-1.58,1.36-2.76,3.82-2.76,1.25,0,2.61,.35,3.42,.9l-.57,1.05c-.84-.59-1.86-.83-2.85-.83-1.75,0-2.52,.68-2.52,1.6,0,2.61,6.26,.64,6.26,4.35,0,1.67-1.47,2.76-3.99,2.76-1.6,0-3.14-.51-3.93-1.19Z"
       id="path435" />
    <path
       d="M209.47,161.28c-.51,.46-1.29,.68-2.04,.68-1.82,0-2.83-1.03-2.83-2.81v-5.84h-1.73v-1.1h1.73v-2.11h1.3v2.11h2.94v1.1h-2.94v5.77c0,1.14,.59,1.76,1.67,1.76,.53,0,1.07-.17,1.43-.5l.46,.94Z"
       id="path437" />
    <path
       d="M213.95,155.43c0-3.77,2.87-6.54,6.74-6.54,1.87,0,3.56,.62,4.7,1.88l-.86,.86c-1.05-1.07-2.33-1.53-3.8-1.53-3.11,0-5.44,2.28-5.44,5.33s2.33,5.33,5.44,5.33c1.47,0,2.76-.46,3.8-1.54l.86,.86c-1.14,1.25-2.83,1.89-4.72,1.89-3.86,0-6.72-2.77-6.72-6.54Z"
       id="path439" />
    <path
       d="M231.97,152.13v1.27c-.11,0-.22-.02-.31-.02-2.02,0-3.25,1.29-3.25,3.56v4.92h-1.3v-9.66h1.25v1.89c.61-1.29,1.84-1.96,3.62-1.96Z"
       id="path441" />
    <path
       d="M241.72,157.44h-8.08c.15,2.02,1.69,3.36,3.8,3.36,1.18,0,2.22-.42,2.96-1.27l.74,.84c-.86,1.03-2.21,1.58-3.73,1.58-3.01,0-5.07-2.06-5.07-4.92s2-4.9,4.72-4.9,4.69,2,4.69,4.9c0,.11-.02,.26-.02,.4Zm-8.08-.97h6.85c-.17-1.89-1.54-3.22-3.44-3.22s-3.25,1.32-3.42,3.22Z"
       id="path443" />
    <path
       d="M250.5,155.88v5.99h-1.25v-1.51c-.59,.99-1.73,1.6-3.33,1.6-2.19,0-3.53-1.14-3.53-2.81,0-1.49,.96-2.74,3.73-2.74h3.07v-.59c0-1.65-.94-2.55-2.74-2.55-1.25,0-2.42,.44-3.21,1.14l-.59-.97c.97-.83,2.41-1.3,3.93-1.3,2.5,0,3.91,1.25,3.91,3.75Zm-1.3,3.09v-1.58h-3.03c-1.87,0-2.48,.73-2.48,1.73,0,1.12,.9,1.82,2.44,1.82s2.55-.7,3.07-1.97Z"
       id="path445" />
    <path
       d="M258.21,161.28c-.51,.46-1.29,.68-2.04,.68-1.82,0-2.83-1.03-2.83-2.81v-5.84h-1.73v-1.1h1.73v-2.11h1.3v2.11h2.94v1.1h-2.94v5.77c0,1.14,.59,1.76,1.67,1.76,.53,0,1.07-.17,1.43-.5l.46,.94Z"
       id="path447" />
    <path
       d="M267.73,157.44h-8.08c.15,2.02,1.69,3.36,3.8,3.36,1.18,0,2.22-.42,2.96-1.27l.73,.84c-.86,1.03-2.2,1.58-3.73,1.58-3.01,0-5.07-2.06-5.07-4.92s2-4.9,4.72-4.9,4.68,2,4.68,4.9c0,.11-.02,.26-.02,.4Zm-8.08-.97h6.85c-.17-1.89-1.54-3.22-3.44-3.22s-3.25,1.32-3.42,3.22Z"
       id="path449" />
    <path
       d="M269.08,161c0-.53,.42-.94,.97-.94s.96,.4,.96,.94-.4,.96-.96,.96-.97-.44-.97-.96Zm.2-12h1.54l-.28,9h-1.01l-.26-9Z"
       id="path451" />
  </g>
</svg>
