<?xml version="1.0" encoding="utf-8"?>
<!-- Generator: Adobe Illustrator 16.0.0, SVG Export Plug-In . SVG Version: 6.00 Build 0)  -->
<!DOCTYPE svg PUBLIC "-//W3C//DTD SVG 1.1//EN" "http://www.w3.org/Graphics/SVG/1.1/DTD/svg11.dtd">
<svg version="1.1" id="Camada_1" xmlns="http://www.w3.org/2000/svg" xmlns:xlink="http://www.w3.org/1999/xlink" x="0px" y="0px"
	 width="16px" height="16px" viewBox="0 0 16 16" enable-background="new 0 0 16 16" xml:space="preserve">
<path fill="#F8F8F9" d="M10.58,12.041c1.236,0.176,2.404-0.416,3.025-1.414c0.016-0.025,0.031-0.053,0.047-0.078
	c0.021-0.039,0.043-0.078,0.062-0.119c0.148-0.289,0.256-0.605,0.305-0.945c0.236-1.663-0.92-3.2-2.58-3.437
	C9.777,5.811,8.24,6.965,8.004,8.627C7.916,9.242,8.02,9.842,8.27,10.363C8.702,11.238,9.541,11.893,10.58,12.041z M11.318,6.907
	c1.186,0.169,2.01,1.268,1.842,2.455c-0.17,1.188-1.268,2.012-2.455,1.844c-1.188-0.17-2.011-1.268-1.841-2.456
	C9.031,7.562,10.129,6.737,11.318,6.907z"/>
<path fill="#F8F8F9" d="M15.207,13.486l-1.619-2.121l-1.486,0.879l1.641,2.152c0.258,0.4,0.797,0.52,1.201,0.27
	C15.35,14.414,15.467,13.887,15.207,13.486z"/>
<path fill="none" d="M11.199,6.103V2.122c0-0.253-0.205-0.459-0.457-0.459H1.571c-0.252,0-0.458,0.206-0.458,0.459v5.972
	c0,0.253,0.206,0.459,0.458,0.459h0.918h0.458v0.459v0.712l1.034-1.038l0.134-0.134h0.19h3.732
	C8.324,7.049,9.682,6.007,11.199,6.103z"/>
<path fill="#FFFFFF" d="M8.038,8.553H4.306h-0.19L3.981,8.687L2.947,9.725V9.013V8.553H2.489H1.571
	c-0.253,0-0.458-0.206-0.458-0.459V2.122c0-0.253,0.206-0.459,0.458-0.459h9.171c0.252,0,0.457,0.206,0.457,0.459v3.981
	c0.08,0.005,0.16-0.002,0.24,0.01c0.076,0.011,0.145,0.038,0.219,0.054V2.122c0-0.507-0.41-0.918-0.916-0.918H1.571
	c-0.506,0-0.917,0.411-0.917,0.918v5.972c0,0.508,0.411,0.919,0.917,0.919h0.918v1.819l1.817-1.819h3.676
	C7.986,8.906,7.988,8.8,8.004,8.692C8.011,8.644,8.029,8.601,8.038,8.553z"/>
<g>
	<path fill="#FFFFFF" d="M5.447,3.24c0-0.265-0.214-0.479-0.48-0.479c-0.264,0-0.478,0.214-0.478,0.479v2.236
		c0,0.265,0.214,0.479,0.478,0.479c0.266,0,0.48-0.213,0.48-0.479V3.24L5.447,3.24z"/>
	<path fill="#FFFFFF" d="M4.971,6.596c-0.264,0-0.479,0.216-0.479,0.479c0,0.265,0.216,0.48,0.479,0.48S5.45,7.339,5.45,7.075
		C5.45,6.812,5.235,6.596,4.971,6.596L4.971,6.596z"/>
	<path fill="#FFFFFF" d="M7.67,3.24c0-0.265-0.215-0.479-0.479-0.479c-0.266,0-0.479,0.214-0.479,0.479v2.236
		c0,0.265,0.214,0.479,0.479,0.479S7.67,5.741,7.67,5.476V3.24L7.67,3.24z"/>
	<path fill="#FFFFFF" d="M7.193,6.596c-0.264,0-0.479,0.216-0.479,0.479c0,0.265,0.215,0.48,0.479,0.48
		c0.266,0,0.48-0.215,0.48-0.48C7.674,6.812,7.459,6.596,7.193,6.596L7.193,6.596z"/>
</g>
</svg>
