<?xml version="1.0" encoding="utf-8"?>
<!-- Generator: Adobe Illustrator 16.0.0, SVG Export Plug-In . SVG Version: 6.00 Build 0)  -->
<!DOCTYPE svg PUBLIC "-//W3C//DTD SVG 1.1//EN" "http://www.w3.org/Graphics/SVG/1.1/DTD/svg11.dtd">
<svg version="1.1" id="Camada_1" xmlns="http://www.w3.org/2000/svg" xmlns:xlink="http://www.w3.org/1999/xlink" x="0px" y="0px"
	 width="16px" height="16px" viewBox="0 0 16 16" enable-background="new 0 0 16 16" xml:space="preserve">
<path fill="#F8F8F9" d="M11.116,12.766c1.237,0.176,2.405-0.416,3.025-1.413c0.016-0.026,0.032-0.053,0.047-0.078
	c0.023-0.039,0.044-0.079,0.064-0.119c0.148-0.289,0.254-0.605,0.303-0.945c0.236-1.662-0.919-3.2-2.579-3.436
	c-1.661-0.237-3.2,0.917-3.436,2.58c-0.088,0.614,0.016,1.213,0.266,1.735C9.237,11.963,10.077,12.618,11.116,12.766z M11.854,7.633
	c1.186,0.169,2.012,1.268,1.842,2.454c-0.168,1.188-1.268,2.012-2.453,1.843c-1.188-0.169-2.012-1.268-1.844-2.454
	C9.569,8.289,10.667,7.463,11.854,7.633z"/>
<path fill="#F8F8F9" d="M15.745,14.212l-1.621-2.122l-1.485,0.88l1.64,2.152c0.26,0.4,0.799,0.52,1.201,0.27
	C15.888,15.14,16.005,14.612,15.745,14.212z"/>
<g>
	<path fill="none" stroke="#FFFFFF" stroke-width="0.7" stroke-miterlimit="10" d="M8.955,9.664c0.159-1.118,0.91-1.993,1.887-2.383
		l-3.75-6.423c-0.402-0.401-1.052-0.401-1.453,0l-4.806,8.23c-0.402,0.402-0.402,1.051,0,1.451h8.126
		C8.917,10.256,8.913,9.963,8.955,9.664z"/>
	<path fill="#FFFFFF" d="M7.074,3.812c0-0.318-0.258-0.577-0.576-0.577c-0.317,0-0.575,0.258-0.575,0.577V6.5
		c0,0.318,0.258,0.576,0.575,0.576c0.318,0,0.576-0.258,0.576-0.576V3.812L7.074,3.812z"/>
	<path fill="#FFFFFF" d="M6.501,7.847c-0.317,0-0.576,0.258-0.576,0.576c0,0.319,0.259,0.576,0.576,0.576
		c0.319,0,0.577-0.257,0.577-0.576C7.078,8.105,6.82,7.847,6.501,7.847L6.501,7.847z"/>
</g>
</svg>
