<?xml version="1.0" encoding="utf-8"?>
<!-- Generator: Adobe Illustrator 16.0.0, SVG Export Plug-In . SVG Version: 6.00 Build 0)  -->
<!DOCTYPE svg PUBLIC "-//W3C//DTD SVG 1.1//EN" "http://www.w3.org/Graphics/SVG/1.1/DTD/svg11.dtd">
<svg version="1.1" id="Camada_1" xmlns="http://www.w3.org/2000/svg" xmlns:xlink="http://www.w3.org/1999/xlink" x="0px" y="0px"
	 width="16px" height="16px" viewBox="0 0 16 16" enable-background="new 0 0 16 16" xml:space="preserve">
<g>
	<g>
		<path fill="#FFFFFF" d="M15.23,5.229l-0.4,0.896l-2.994-1.32l0.402-0.895c0.146-0.33,0.519-0.486,0.828-0.35l1.871,0.824
			C15.247,4.522,15.379,4.9,15.23,5.229L15.23,5.229z"/>
		<polygon fill="#FFFFFF" points="11.684,13.146 8.69,11.828 11.633,5.262 14.625,6.58 11.684,13.146 		"/>
		<polygon fill="#FFFFFF" points="11.496,13.562 8.797,15.588 8.504,12.242 11.496,13.562 		"/>
	</g>
	<g>
		<path fill="none" stroke="#FFFFFF" stroke-width="0.7634" stroke-miterlimit="10" d="M8.961,11.373H1.722
			c-0.973,0-1.014-0.879-1.014-0.879V1.245c0-0.807,0.973-0.833,0.973-0.833h7.295c0.892,0,0.96,0.833,0.96,0.833v9.249
			C9.938,10.494,9.796,11.373,8.961,11.373L8.961,11.373z"/>
		<circle fill="#FFFFFF" cx="6.946" cy="2.469" r="1.037"/>
		<circle fill="#FFFFFF" cx="2.938" cy="5.555" r="1.036"/>
		
			<rect x="2.724" y="3.767" transform="matrix(-0.8034 0.5954 -0.5954 -0.8034 11.0308 4.5242)" fill="#FFFFFF" width="4.089" height="0.631"/>
		<circle fill="#FFFFFF" cx="6.057" cy="9.031" r="1.036"/>
		
			<rect x="2.078" y="6.818" transform="matrix(-0.7135 -0.7006 0.7006 -0.7135 2.0667 15.1116)" fill="#FFFFFF" width="4.09" height="0.632"/>
	</g>
</g>
</svg>
