<?xml version="1.0" encoding="utf-8"?>
<!-- Generator: Adobe Illustrator 16.0.0, SVG Export Plug-In . SVG Version: 6.00 Build 0)  -->
<!DOCTYPE svg PUBLIC "-//W3C//DTD SVG 1.1//EN" "http://www.w3.org/Graphics/SVG/1.1/DTD/svg11.dtd">
<svg version="1.1" id="Camada_1" xmlns="http://www.w3.org/2000/svg" xmlns:xlink="http://www.w3.org/1999/xlink" x="0px" y="0px"
	 width="16px" height="16px" viewBox="0 0 16 16" enable-background="new 0 0 16 16" xml:space="preserve">
<g>
	<path fill="#FFFFFF" d="M0.365,2.05v5.972c0,0.508,0.411,0.917,0.917,0.917H2.2v1.82l1.817-1.82h6.437
		c0.506,0,0.918-0.409,0.918-0.917V2.05c0-0.507-0.412-0.918-0.918-0.918H1.282C0.776,1.132,0.365,1.543,0.365,2.05z M0.824,2.05
		c0-0.253,0.206-0.459,0.458-0.459h9.172c0.252,0,0.459,0.206,0.459,0.459v5.972c0,0.253-0.207,0.459-0.459,0.459H4.017h-0.19
		L3.693,8.614L2.659,9.651V8.938V8.48H2.2H1.282c-0.253,0-0.458-0.206-0.458-0.459V2.05z"/>
	<g>
		<path fill="#FFFFFF" d="M15.575,4.51l-0.4,0.896l-2.994-1.319l0.4-0.896c0.148-0.33,0.52-0.486,0.83-0.349l1.869,0.824
			C15.591,3.802,15.722,4.18,15.575,4.51L15.575,4.51z"/>
		<polygon fill="#FFFFFF" points="12.026,12.427 9.034,11.106 11.976,4.542 14.97,5.86 12.026,12.427 		"/>
		<polygon fill="#FFFFFF" points="11.841,12.843 9.14,14.868 8.848,11.522 11.841,12.843 		"/>
	</g>
	<g>
		<path fill="#FFFFFF" d="M5.159,3.168c0-0.266-0.214-0.479-0.48-0.479c-0.264,0-0.478,0.214-0.478,0.479v2.236
			c0,0.265,0.214,0.479,0.478,0.479c0.266,0,0.48-0.214,0.48-0.479V3.168L5.159,3.168z"/>
		<path fill="#FFFFFF" d="M4.683,6.524c-0.264,0-0.479,0.216-0.479,0.479c0,0.265,0.216,0.479,0.479,0.479s0.479-0.215,0.479-0.479
			C5.161,6.74,4.946,6.524,4.683,6.524L4.683,6.524z"/>
		<path fill="#FFFFFF" d="M7.381,3.168c0-0.266-0.214-0.479-0.479-0.479S6.424,2.902,6.424,3.168v2.236
			c0,0.265,0.214,0.479,0.479,0.479c0.266,0,0.479-0.214,0.479-0.479V3.168L7.381,3.168z"/>
		<path fill="#FFFFFF" d="M6.904,6.524c-0.263,0-0.479,0.216-0.479,0.479c0,0.265,0.216,0.479,0.479,0.479
			c0.266,0,0.48-0.215,0.48-0.479C7.385,6.74,7.17,6.524,6.904,6.524L6.904,6.524z"/>
	</g>
</g>
</svg>
