<?xml version="1.0" encoding="utf-8"?>
<!-- Generator: Adobe Illustrator 16.0.0, SVG Export Plug-In . SVG Version: 6.00 Build 0)  -->
<!DOCTYPE svg PUBLIC "-//W3C//DTD SVG 1.1//EN" "http://www.w3.org/Graphics/SVG/1.1/DTD/svg11.dtd">
<svg version="1.1" id="Camada_1" xmlns="http://www.w3.org/2000/svg" xmlns:xlink="http://www.w3.org/1999/xlink" x="0px" y="0px"
	 width="16px" height="16px" viewBox="0 0 16 16" enable-background="new 0 0 16 16" xml:space="preserve">
<circle fill="#FFFFFF" cx="3.246" cy="5.491" r="1.036"/>
<circle fill="#FFFFFF" cx="5.076" cy="9.63" r="1.037"/>
<rect x="2.498" y="7.338" transform="matrix(-0.522 -0.8529 0.8529 -0.522 -0.1205 15.2406)" fill="#FFFFFF" width="3.424" height="0.632"/>
<g>
	<path fill="#F8F8F9" d="M10.078,12.983c1.248,0.057,2.354-0.644,2.876-1.695c0.014-0.027,0.027-0.055,0.04-0.083
		c0.019-0.04,0.035-0.083,0.052-0.124c0.12-0.302,0.196-0.627,0.212-0.971c0.076-1.676-1.221-3.096-2.896-3.173
		C8.685,6.86,7.263,8.157,7.187,9.833c-0.028,0.621,0.132,1.206,0.43,1.702C8.13,12.364,9.029,12.936,10.078,12.983z M10.322,7.804
		c1.196,0.055,2.123,1.07,2.068,2.267s-1.07,2.123-2.268,2.068C8.925,12.085,8,11.069,8.054,9.872
		C8.109,8.675,9.123,7.749,10.322,7.804z"/>
	<path fill="#F8F8F9" d="M14.823,13.981l-1.815-1.958l-1.395,1.019l1.838,1.985c0.295,0.373,0.844,0.441,1.221,0.153
		C15.054,14.892,15.12,14.354,14.823,13.981z"/>
	<path fill="none" d="M9.245,11.602H8.803c0.357,0.311,0.81,0.515,1.32,0.538c1.197,0.055,2.213-0.871,2.268-2.068
		s-0.872-2.212-2.068-2.267c-0.034-0.001-0.066,0.005-0.1,0.005v2.914C10.223,10.724,10.08,11.602,9.245,11.602z"/>
	<path fill="none" stroke="#FFFFFF" stroke-width="0.7955" stroke-miterlimit="10" d="M7.448,10.22
		C7.525,8.523,8.927,7.21,10.61,7.21V1.509c0,0-0.071-0.868-1.001-0.868H2.006c0,0-1.014,0.027-1.014,0.868v9.639
		c0,0,0.043,0.915,1.057,0.915h5.902c-0.016-0.025-0.039-0.045-0.055-0.07C7.585,11.477,7.417,10.866,7.448,10.22z"/>
	<circle fill="#FFFFFF" cx="7.09" cy="2.21" r="1.036"/>
	<circle fill="#FFFFFF" cx="3.083" cy="5.295" r="1.036"/>
	
		<rect x="2.869" y="3.508" transform="matrix(-0.8034 0.5954 -0.5954 -0.8034 11.1371 3.9705)" fill="#FFFFFF" width="4.089" height="0.631"/>
	<circle fill="#FFFFFF" cx="4.913" cy="9.434" r="1.037"/>
	
		<rect x="2.335" y="7.142" transform="matrix(-0.522 -0.8529 0.8529 -0.522 -0.2015 14.8031)" fill="#FFFFFF" width="3.424" height="0.632"/>
</g>
<g>
	<g>
		<path fill="#FFFFFF" d="M15.497,5.076l-0.4,0.896l-2.994-1.32l0.402-0.895c0.146-0.33,0.52-0.486,0.828-0.349l1.871,0.824
			C15.515,4.369,15.646,4.747,15.497,5.076L15.497,5.076z"/>
		<polygon fill="#FFFFFF" points="11.95,12.994 8.957,11.675 11.899,5.108 14.893,6.427 11.95,12.994 		"/>
		<polygon fill="#FFFFFF" points="11.764,13.41 9.063,15.436 8.77,12.09 11.764,13.41 		"/>
	</g>
	<path fill="none" stroke="#FFFFFF" stroke-width="0.7" stroke-miterlimit="10" d="M11.81,10.548H0.743
		c-0.402-0.4-0.402-1.05,0-1.452l4.806-8.23c0.401-0.401,1.051-0.401,1.453,0l4.807,8.23C12.211,9.496,12.211,10.146,11.81,10.548
		L11.81,10.548z"/>
	<path fill="#FFFFFF" d="M6.985,3.82c0-0.318-0.258-0.577-0.576-0.577c-0.317,0-0.575,0.258-0.575,0.577v2.688
		c0,0.318,0.258,0.576,0.575,0.576c0.319,0,0.576-0.258,0.576-0.576V3.82L6.985,3.82z"/>
	<path fill="#FFFFFF" d="M6.412,7.854c-0.317,0-0.576,0.258-0.576,0.576c0,0.319,0.259,0.577,0.576,0.577
		c0.318,0,0.577-0.258,0.577-0.577C6.989,8.113,6.73,7.854,6.412,7.854L6.412,7.854z"/>
</g>
</svg>
