<svg version="1.2" xmlns="http://www.w3.org/2000/svg" viewBox="0 0 123 40" width="123" height="40">
	<title>dropComponentes-svg</title>
	<style>
		tspan { white-space:pre } 
		.s0 { fill: #1d771d } 
		.t1 { font-size: 14px;fill: #000000;font-family: "sans" } 
		.s2 { fill: #000000 } 
	</style>
	<g id="layer1">
		<g id="g4496">
			<path id="path4502" fill-rule="evenodd" class="s0" d="m47.2 31.6c-1.2-0.6-2-1.8-2-3.4 0-1.8 0.6-2.8 1.8-3.4 1.1-0.6 2.4-0.5 3.3 0.2 0.2 0.2 0.2 0.2-0.1 0.6-0.3 0.4-0.3 0.4-0.9 0.1-0.3-0.2-0.7-0.3-0.8-0.3-0.6 0-1.2 0.4-1.6 1-0.4 0.9-0.4 2.4 0 3.2 0.5 1.1 1.7 1.4 2.6 0.7 0.4-0.3 0.4-0.3 0.8 0.1 0.4 0.4 0.4 0.4-0.2 0.8-0.5 0.3-0.8 0.4-1.6 0.5-0.5 0-1.1-0.1-1.3-0.1zm5.7-0.1c-1.3-0.7-1.9-1.8-1.9-3.5 0-2.1 1.1-3.4 2.8-3.6 1.6-0.1 2.7 0.6 3.2 2.1 0.2 0.5 0.3 0.9 0.2 1.8-0.1 1.7-0.6 2.7-1.8 3.2-0.7 0.3-2 0.3-2.5 0zm1.9-1c0.7-0.3 1-1.2 1.1-2.4 0-1.7-0.6-2.6-1.7-2.6-1.1 0-1.8 0.9-1.8 2.6 0 1.9 1.2 3 2.4 2.4zm19.5 0.9c-2.1-1.1-2.3-5.2-0.3-6.5 1.1-0.7 2.8-0.6 3.7 0.2 0.8 0.6 1.1 1.4 1.1 2.9 0 1.2-0.1 1.4-0.4 2.1-0.5 1-1.3 1.5-2.5 1.6-0.8 0-1.1 0-1.6-0.3zm2.1-0.9c0.7-0.4 1-1.2 1-2.5 0-1.2-0.3-1.9-0.9-2.3-1.3-0.8-2.5 0.3-2.5 2.2 0 1.1 0.2 1.7 0.6 2.2 0.6 0.6 1.1 0.7 1.8 0.4zm30 1c-0.3 0-0.7-0.3-0.9-0.4-0.4-0.3-0.4-0.3 0-0.8 0.3-0.4 0.3-0.4 0.8-0.1 1 0.7 2.3 0.6 2.5-0.2 0.2-0.5-0.2-0.9-1.4-1.5-0.6-0.3-1.3-0.7-1.5-0.8-0.7-0.7-0.7-1.9 0.1-2.6 0.8-0.8 2.1-0.9 3.3-0.3 0.7 0.3 0.7 0.3 0.4 0.8-0.1 0.2-0.3 0.4-0.3 0.4 0 0-0.3-0.2-0.7-0.3-0.9-0.4-1.6-0.3-1.8 0.2-0.3 0.6 0 1 1.1 1.5 0.6 0.2 1.3 0.6 1.6 0.9 0.5 0.4 0.6 0.6 0.6 1.2q0 1.4-1.2 1.9c-0.7 0.3-1.9 0.4-2.6 0.1zm-47.9-3.4c0-3.6 0-3.6 0.8-3.6 0.8 0 0.8 0 1.6 2.3 0.5 1.3 0.8 2.3 0.9 2.3 0 0 0.3-0.9 0.7-1.9 0.3-1 0.7-2 0.8-2.3 0.1-0.3 0.2-0.4 0.9-0.4 0.8 0 0.8 0 0.8 3.6 0 3.5 0 3.5-0.7 3.5-0.6 0-0.6 0-0.6-2.4-0.1-2.4-0.1-2.4-0.7-0.7-0.8 2.2-1 2.5-1.3 2.5-0.3 0-0.4-0.3-1.5-3.2-0.3-0.9-0.3-0.9-0.3 1.4-0.1 2.4-0.1 2.4-0.7 2.4-0.7 0-0.7 0-0.7-3.5zm8 0c0-3.6 0-3.6 1.8-3.6 1.8 0 2.4 0.2 3 0.8 0.4 0.5 0.5 1.8 0.1 2.5-0.4 0.8-1.2 1.2-2.5 1.2-0.9 0-0.9 0-0.9 1.3 0 1.3 0 1.3-0.7 1.3-0.8 0-0.8 0-0.8-3.5zm3.1-0.3c0.6-0.2 0.8-0.5 0.8-1.1 0-0.7-0.4-1-1.5-1.1-0.9-0.1-0.9-0.1-0.9 1.1 0 1.3 0 1.3 0.6 1.3 0.4 0 0.8-0.1 1-0.2zm10.5 0.3c0-3.6 0-3.6 0.7-3.6 0.7 0 0.7 0 2 2.4 0.8 1.3 1.3 2.4 1.3 2.5 0 0.1 0.1 0.2 0.2 0.2 0 0 0-1.1 0-2.5 0-2.6 0-2.6 0.6-2.6 0.7 0 0.7 0 0.7 3.6 0 3.5 0 3.5-0.7 3.5-0.7 0-0.7 0-1.5-1.5-0.5-0.7-1.1-1.9-1.4-2.5-0.6-1.2-0.6-1.2-0.6 1.4 0 2.6 0 2.6-0.6 2.6-0.7 0-0.7 0-0.7-3.5zm7 0c0-3.6 0-3.6 2.3-3.6 2.2 0 2.2 0 2.2 0.5 0 0.5 0 0.5-1.5 0.5-1.5 0-1.5 0-1.5 1 0 0.9 0 0.9 1.2 0.9 1.2 0 1.2 0 1.2 0.5 0 0.5 0 0.5-1.2 0.5-1.2 0-1.2 0-1.2 1.1 0 1.1 0 1.1 1.5 1.1 1.5 0 1.5 0 1.5 0.5 0 0.5 0 0.5-2.2 0.5-2.3 0-2.3 0-2.3-3.5zm5.9 0c0-3.6 0-3.6 0.7-3.6 0.8 0 0.5-0.3 2.4 3.2 1 1.8 1 1.8 0.9-0.7 0-2.5 0-2.5 0.6-2.5 0.7 0 0.7 0 0.7 3.6 0 3.5 0 3.5-0.7 3.5-0.7 0-0.7 0-1.4-1.4-0.4-0.7-1-1.8-1.3-2.5-0.7-1.3-0.7-1.3-0.6 1.3 0 2.6 0 2.6-0.6 2.6-0.7 0-0.7 0-0.7-3.5zm8.5 0.5c0-3.1 0-3.1-1-3.1-1 0-1 0-1-0.5 0-0.5 0-0.5 2.6-0.5 2.6 0 2.6 0 2.6 0.5 0 0.5 0 0.5-1 0.5-1 0-1 0-1 3.1 0 3 0 3-0.6 3-0.6 0-0.6 0-0.6-3zm-37-9.7c-1.2-0.7-2.3-1.4-2.4-1.5-0.1-0.2-0.1-0.9-0.1-2.7 0-2.3 0-2.6 0.2-2.8 0.3-0.3 4.5-1.8 4.9-1.8 0.1 0 1.2 0.4 2.4 0.8 1.8 0.7 2.3 0.9 2.4 1.2 0.2 0.2 0.2 1.1 0.2 2.7 0 2.2 0 2.3-0.3 2.6-0.3 0.4-4.5 2.7-4.8 2.7-0.1 0-1.2-0.6-2.5-1.2zm4.9-0.9c1.7-1 1.7-1 1.7-2.9 0-1.9 0-1.9-1.1-1.5-2.8 1.1-2.5 0.7-2.6 3.2 0 1.2 0 2.2 0.1 2.2 0 0 0.9-0.5 1.9-1zm-0.3-4.9c1.1-0.4 1.9-0.7 1.8-0.8-0.2-0.1-3.7-1.4-3.9-1.4-0.2 0-3.9 1.4-3.9 1.5 0 0.1 3.6 1.4 3.9 1.4 0.1 0 1.1-0.3 2.1-0.7z"/>
			<text id="tspan4504" style="transform: matrix(.511,0,0,.573,15.267,16.129)" >
				<tspan x="0" y="0" class="t1">DROP HERE
</tspan>
			</text>
			<g id="g4512">
				<path id="path4510" class="s2" d="m32.3 26.7c-0.3 0-0.6 0.2-0.6 0.5v3.4h-14.6v-3.4c0-0.2-0.3-0.5-0.6-0.5-0.4 0-0.6 0.2-0.6 0.5v3.9c0 0.2 0.2 0.4 0.6 0.4h15.8c0.3 0 0.5-0.2 0.5-0.4v-3.9c0-0.3-0.2-0.5-0.5-0.5zm-8.3 1.8c0.1 0.1 0.3 0.2 0.4 0.2 0.1 0 0.3-0.1 0.4-0.2l3.4-3.3c0.2-0.2 0.2-0.5 0-0.7-0.3-0.2-0.6-0.2-0.8 0l-2.4 2.4v-7.4c0-0.2-0.3-0.4-0.6-0.4-0.4 0-0.6 0.2-0.6 0.4v7.5l-2.4-2.4c-0.2-0.2-0.6-0.2-0.8 0-0.2 0.2-0.2 0.5 0 0.7z"/>
			</g>
		</g>
	</g>
</svg>