<svg id="Layer_1" data-name="Layer 1" xmlns="http://www.w3.org/2000/svg" viewBox="0 0 326.11 174.02"><defs><style>.cls-1{fill:#c4ccd4;}.cls-1,.cls-2{opacity:0.8;}.cls-2{fill:#3aa0d9;}.cls-3{fill:#231f20;}</style></defs><title>logoIGRPWEB_v4.0</title><path class="cls-1" d="M285.77,307.36h65.91a6.82,6.82,0,0,1,5.51,2.81l54,74.48H328.48l-48.22-66.5A6.8,6.8,0,0,1,285.77,307.36Z" transform="translate(-257.89 -210.63)"/><path class="cls-2" d="M453.9,307.36H388a6.82,6.82,0,0,0-5.51,2.81l-54,74.48h82.71l48.22-66.5A6.8,6.8,0,0,0,453.9,307.36Z" transform="translate(-257.89 -210.63)"/><path class="cls-1" d="M388,307.36H453.9a6.82,6.82,0,0,1,5.51,2.81l54,74.48H430.7l-48.22-66.5A6.8,6.8,0,0,1,388,307.36Z" transform="translate(-257.89 -210.63)"/><path class="cls-2" d="M556.12,307.36H490.21a6.82,6.82,0,0,0-5.51,2.81l-54,74.48h82.71l48.22-66.5A6.8,6.8,0,0,0,556.12,307.36Z" transform="translate(-257.89 -210.63)"/><path class="cls-3" d="M262.6,210.63a4.76,4.76,0,1,1-3.32,1.4A4.58,4.58,0,0,1,262.6,210.63Zm-2.86,18.44h5.76v44.78h-5.76Z" transform="translate(-257.89 -210.63)"/><path class="cls-3" d="M316.09,229.07h5.76v35.68q0,9.44-1.65,13.79a17.91,17.91,0,0,1-7.86,9.51,25.86,25.86,0,0,1-13.46,3.33,30.71,30.71,0,0,1-10.35-1.63,20.59,20.59,0,0,1-7.47-4.37,26.11,26.11,0,0,1-5.31-8H282a16.48,16.48,0,0,0,6.59,6.58,21.16,21.16,0,0,0,10,2.14,20.76,20.76,0,0,0,9.95-2.19,13.49,13.49,0,0,0,5.79-5.52q1.72-3.32,1.73-10.73v-2.3a21.9,21.9,0,0,1-7.95,6.32,23.6,23.6,0,0,1-21.59-.87,21.73,21.73,0,0,1-8.41-8.25,22.54,22.54,0,0,1-3-11.4,23.29,23.29,0,0,1,23.15-23.21A21.35,21.35,0,0,1,307.7,230a25.88,25.88,0,0,1,8.39,6.85Zm-17,4.4a18.2,18.2,0,0,0-9.1,2.37,17.15,17.15,0,0,0-6.58,6.54,18,18,0,0,0-2.39,9A16.3,16.3,0,0,0,286,263.6q4.94,4.81,12.8,4.82c5.3,0,9.55-1.59,12.78-4.78s4.84-7.37,4.84-12.55a18.15,18.15,0,0,0-2.23-9,16.23,16.23,0,0,0-6.29-6.28A17.5,17.5,0,0,0,299.09,233.47Z" transform="translate(-257.89 -210.63)"/><path class="cls-3" d="M332,229.07h5.89v6.54a20.73,20.73,0,0,1,5.56-5.78,11,11,0,0,1,6.09-1.91,10.55,10.55,0,0,1,5.1,1.52l-3,4.86a8.12,8.12,0,0,0-3-.79,8.3,8.3,0,0,0-5.55,2.37,14.92,14.92,0,0,0-4.08,7.35q-1.07,3.83-1.07,15.47v15.15H332Z" transform="translate(-257.89 -210.63)"/><path class="cls-3" d="M359.63,229.07h5.76v8.23a23.24,23.24,0,0,1,7.86-7,20.92,20.92,0,0,1,9.91-2.34,22.12,22.12,0,0,1,16.32,6.87,22.71,22.71,0,0,1,6.78,16.55,23.14,23.14,0,0,1-6.72,16.77,22.65,22.65,0,0,1-26.05,4.67,24.85,24.85,0,0,1-8.1-6.63v24.08h-5.76Zm23.05,4.4a16.94,16.94,0,0,0-12.59,5.22,17.9,17.9,0,0,0-5.11,13,18.42,18.42,0,0,0,2.28,9.16,16.63,16.63,0,0,0,6.53,6.46,18,18,0,0,0,9,2.38,17,17,0,0,0,8.73-2.4,17.82,17.82,0,0,0,6.51-6.72,18.18,18.18,0,0,0,0-18.09,17.38,17.38,0,0,0-15.34-9Z" transform="translate(-257.89 -210.63)"/><path class="cls-3" d="M411.32,229.07h11l9,25.48L441,229.07h6.73l9.52,25.19,9-25.19h11.07L461,273.85h-7.12l-9.55-25.52-9.84,25.52h-7Z" transform="translate(-257.89 -210.63)"/><path class="cls-3" d="M528.56,254.71h-36.1a12,12,0,0,0,4.18,7.59,13.12,13.12,0,0,0,8.67,2.82,15,15,0,0,0,10.82-4.4l9.47,4.44a22.31,22.31,0,0,1-8.48,7.43A26.43,26.43,0,0,1,505.39,275q-10.54,0-17.16-6.65a22.6,22.6,0,0,1-6.63-16.64,23.38,23.38,0,0,1,6.6-17,22.18,22.18,0,0,1,16.57-6.77q10.58,0,17.21,6.77t6.62,17.88Zm-11.24-8.85a11.24,11.24,0,0,0-4.39-6.09,12.74,12.74,0,0,0-7.6-2.35,13.44,13.44,0,0,0-8.25,2.64,14.69,14.69,0,0,0-4.12,5.8Z" transform="translate(-257.89 -210.63)"/><path class="cls-3" d="M548.81,211.78V234a21.23,21.23,0,0,1,6.59-4.57,19,19,0,0,1,7.57-1.52,19.58,19.58,0,0,1,14.9,6.62q6.14,6.63,6.13,17a23.43,23.43,0,0,1-6.34,16.73,19.94,19.94,0,0,1-15,6.73,18.62,18.62,0,0,1-7.2-1.38,21.9,21.9,0,0,1-6.63-4.5v4.73H537.66V211.78Zm11.81,26.51a11.76,11.76,0,0,0-8.81,3.62,13.07,13.07,0,0,0-3.49,9.47,13.44,13.44,0,0,0,3.49,9.65,11.67,11.67,0,0,0,8.81,3.68,11.46,11.46,0,0,0,8.67-3.74,14.68,14.68,0,0,0,.06-19A11.49,11.49,0,0,0,560.62,238.29Z" transform="translate(-257.89 -210.63)"/></svg>