<svg width="532" height="705" viewBox="0 0 532 705" fill="none" xmlns="http://www.w3.org/2000/svg">
<path d="M14.9219 3.32166C10.0418 3.89478 5.17379 4.53668 0.330086 5.27026L0.330085 139.366C50.588 128.454 103.225 129.245 154.454 142.197C236.967 163.07 305.932 213.045 348.651 282.895C377.107 329.431 391.638 381.068 391.638 433.393C391.638 459.618 387.984 486.027 380.603 512.035C358.497 589.954 305.568 655.071 231.589 695.406C225.337 698.822 218.988 702.02 212.567 705C276.433 704.908 350.934 704.828 430.63 704.794C433.204 701.756 435.729 698.684 438.217 695.578C474.029 650.818 500.02 600.545 515.45 546.158C525.938 509.192 531.207 471.585 531.207 433.806C531.207 415.982 530.029 398.135 527.686 380.289C520.111 322.623 500.554 267.673 469.55 216.988C438.557 166.302 397.938 122.838 348.834 87.7977C301.441 53.9844 248.196 29.4439 190.582 14.8756C132.979 0.295717 73.8718 -3.58996 14.9219 3.32166Z" fill="#06376C" fill-opacity="0.14"/>
</svg>
