<svg width="181" height="96" viewBox="0 0 181 96" fill="none" xmlns="http://www.w3.org/2000/svg">
<path opacity="0.8" d="M15.3789 53.3477H51.7812C53.0141 53.3477 54.1172 53.931 54.8309 54.9034L84.6146 95.9999H38.9982L12.3291 59.3112C10.5772 56.848 12.3291 53.3477 15.3789 53.3477Z" fill="#D0D7DF"/>
<path opacity="0.8" d="M108.234 53.3477H71.8315C70.5986 53.3477 69.4955 53.931 68.7818 54.9034L38.998 95.9999H84.6794L111.284 59.3112C113.036 56.848 111.284 53.3477 108.234 53.3477Z" fill="#F6F6F9"/>
<path opacity="0.8" d="M71.8308 53.3477H108.233C109.466 53.3477 110.569 53.931 111.283 54.9034L141.067 95.9999H95.3853L68.7811 59.3112C66.9642 56.848 68.7811 53.3477 71.8308 53.3477Z" fill="#D0D7DF"/>
<path opacity="0.8" d="M164.622 53.3477H128.22C126.987 53.3477 125.884 53.931 125.17 54.9034L95.3867 95.9999H141.068L167.672 59.3112C169.489 56.848 167.737 53.3477 164.622 53.3477Z" fill="#F6F6F9"/>
<path d="M2.59553 0C3.3093 0 3.95818 0.259284 4.47729 0.777853C4.9964 1.29642 5.25595 1.87981 5.25595 2.65766C5.25595 3.3707 4.9964 3.95408 4.47729 4.47265C3.95818 4.99122 3.3093 5.25051 2.59553 5.25051C1.88176 5.25051 1.29776 4.99122 0.778659 4.47265C0.259553 3.95408 0 3.3707 0 2.65766C0 1.87981 0.259553 1.29642 0.778659 0.777853C1.29776 0.259284 1.88176 0 2.59553 0ZM1.03821 10.1769H4.21774V34.8737H1.03821V10.1769Z" fill="#F6F6F9"/>
<path d="M32.1191 10.1769H35.2986V29.8177C35.2986 33.2532 34.9742 35.846 34.3902 37.4018C33.5466 39.6705 32.1191 41.4207 30.0427 42.6523C27.9662 43.8839 25.5005 44.4672 22.5805 44.4672C20.4392 44.4672 18.5574 44.1431 16.8704 43.5598C15.1833 42.9764 13.8206 42.1337 12.7175 41.1614C11.6793 40.1242 10.706 38.6982 9.79753 36.7535H13.2366C14.145 38.3741 15.3779 39.6057 16.8704 40.3835C18.3628 41.1614 20.1797 41.5503 22.3859 41.5503C24.5272 41.5503 26.4089 41.1614 27.9014 40.3187C29.3938 39.5408 30.432 38.5037 31.0809 37.2721C31.7298 36.0405 32.0542 34.0959 32.0542 31.3734V30.077C30.8862 31.5679 29.3938 32.7346 27.6418 33.5773C25.8898 34.3552 24.0729 34.8089 22.1263 34.8089C19.8552 34.8089 17.7139 34.2255 15.7024 33.1236C13.6908 32.0216 12.1335 30.4659 11.0304 28.5861C9.92731 26.7063 9.4082 24.5672 9.4082 22.2984C9.4082 20.0297 9.9922 17.8906 11.0953 15.8812C12.1984 13.8717 13.8206 12.316 15.8321 11.214C17.8437 10.0473 19.985 9.46387 22.1912 9.46387C24.073 9.46387 25.76 9.85279 27.3823 10.6306C29.0045 11.4085 30.4969 12.6401 31.9893 14.3903V10.1769H32.1191ZM22.7752 12.5753C20.9583 12.5753 19.2712 13.029 17.7788 13.8717C16.2215 14.7144 15.0535 15.946 14.145 17.5017C13.2366 19.0574 12.8473 20.6779 12.8473 22.4929C12.8473 25.2154 13.7557 27.4193 15.5726 29.2343C17.3895 30.9845 19.7254 31.892 22.6454 31.892C25.5654 31.892 27.9014 30.9845 29.7182 29.2343C31.4702 27.4841 32.3786 25.1506 32.3786 22.2984C32.3786 20.4186 31.9893 18.7981 31.1458 17.3072C30.3022 15.8163 29.1991 14.7144 27.6418 13.8717C26.0845 13.029 24.4623 12.5753 22.7752 12.5753Z" fill="#F6F6F9"/>
<path d="M40.9438 10.1771H44.1882V13.8071C45.1615 12.3811 46.1997 11.3439 47.238 10.6309C48.3411 9.91785 49.4442 9.59375 50.6121 9.59375C51.5206 9.59375 52.429 9.85303 53.4023 10.4364L51.7152 13.0941C51.0664 12.8348 50.4824 12.6403 50.0281 12.6403C48.9899 12.6403 47.9517 13.0941 46.9784 13.9368C46.0051 14.7794 45.2264 16.1407 44.7073 18.0205C44.318 19.4465 44.1233 22.2987 44.1233 26.5769V34.9388H40.8789V10.1771H40.9438Z" fill="#F6F6F9"/>
<path d="M56.1934 10.177H59.3729V14.7145C60.6058 12.9643 62.0982 11.6679 63.7204 10.8252C65.3426 9.98256 67.1595 9.52881 69.171 9.52881C72.675 9.52881 75.6598 10.7604 78.1905 13.2884C80.6562 15.8165 81.954 18.863 81.954 22.4282C81.954 26.0582 80.7211 29.1696 78.2554 31.6976C75.7896 34.2256 72.8048 35.5221 69.3008 35.5221C67.3541 35.5221 65.5373 35.1331 63.8502 34.2905C62.228 33.4478 60.7355 32.281 59.3729 30.6605V43.9488H56.1934V10.177ZM68.9115 12.5754C66.1862 12.5754 63.8502 13.5477 61.9684 15.4275C60.0867 17.3722 59.1782 19.7057 59.1782 22.6227C59.1782 24.5025 59.5675 26.1878 60.4111 27.6787C61.2546 29.1696 62.4226 30.3364 64.0448 31.2439C65.6022 32.1514 67.2893 32.5403 68.9764 32.5403C70.6634 32.5403 72.2856 32.0865 73.7781 31.2439C75.2705 30.3364 76.5034 29.1048 77.3469 27.5491C78.2554 25.9934 78.7096 24.308 78.7096 22.5578C78.7096 20.8077 78.2554 19.1223 77.4118 17.5666C76.5034 16.0109 75.3354 14.7793 73.843 13.9366C72.2857 13.0291 70.6634 12.5754 68.9115 12.5754Z" fill="#F6F6F9"/>
<path d="M84.6797 10.1768H90.7792L95.7756 24.2429L101.096 10.1768H104.795L110.051 24.0485L115.047 10.1768H121.147L112.127 34.8736H108.169L102.913 20.8074L97.4627 34.8736H93.5694L84.6797 10.1768Z" fill="#F6F6F9"/>
<path d="M149.439 24.3074H129.518C129.778 26.0576 130.556 27.4836 131.854 28.5208C133.087 29.5579 134.709 30.0765 136.656 30.0765C138.992 30.0765 140.938 29.2986 142.626 27.6781L147.881 30.1413C146.584 31.9563 145.026 33.3824 143.21 34.225C141.393 35.1325 139.251 35.5215 136.721 35.5215C132.827 35.5215 129.713 34.2899 127.247 31.8267C124.781 29.3635 123.613 26.3169 123.613 22.6221C123.613 18.8624 124.846 15.751 127.247 13.223C129.648 10.7598 132.698 9.46338 136.396 9.46338C140.29 9.46338 143.469 10.695 145.87 13.223C148.336 15.6862 149.504 18.9921 149.504 23.0758L149.439 24.3074ZM143.21 19.4458C142.82 18.0846 141.977 16.9178 140.809 16.0751C139.576 15.2325 138.213 14.7787 136.591 14.7787C134.839 14.7787 133.347 15.2325 132.049 16.2048C131.205 16.7882 130.491 17.8901 129.778 19.381H143.21V19.4458Z" fill="#F6F6F9"/>
<path d="M160.6 0.647949V12.8991C161.703 11.7972 162.936 10.9545 164.234 10.3711C165.531 9.78772 166.959 9.52844 168.387 9.52844C171.631 9.52844 174.356 10.76 176.627 13.1584C178.898 15.5568 180.001 18.733 180.001 22.5575C180.001 26.2523 178.834 29.2989 176.498 31.7621C174.162 34.2253 171.371 35.4569 168.192 35.4569C166.764 35.4569 165.467 35.1976 164.234 34.679C163.001 34.1604 161.768 33.3178 160.6 32.2158V34.8087H154.436V0.647949H160.6ZM167.154 15.2327C165.207 15.2327 163.585 15.8809 162.287 17.2421C160.989 18.6034 160.34 20.2887 160.34 22.4927C160.34 24.6966 160.989 26.4467 162.287 27.808C163.585 29.1692 165.207 29.8174 167.154 29.8174C169.035 29.8174 170.658 29.1044 171.955 27.7432C173.253 26.3819 173.902 24.6317 173.902 22.4927C173.902 20.3536 173.253 18.6682 172.02 17.307C170.658 15.9457 169.1 15.2327 167.154 15.2327Z" fill="#F6F6F9"/>
</svg>
