<svg width="94" height="94" viewBox="0 0 94 94" fill="none" xmlns="http://www.w3.org/2000/svg">
<path d="M47.0414 76.8557C66.6671 76.8557 82.5769 60.9459 82.5769 41.3202C82.5769 21.6945 66.6671 5.78467 47.0414 5.78467C27.4156 5.78467 11.5059 21.6945 11.5059 41.3202C11.5059 60.9459 27.4156 76.8557 47.0414 76.8557Z" fill="white"/>
<path d="M47.0384 5.78662C27.4227 5.78662 11.5059 21.7004 11.5059 41.3164C11.5059 60.9322 27.4227 76.8459 47.0384 76.8459C66.6527 76.8459 82.5756 60.9322 82.5756 41.3164C82.5756 21.7007 66.6527 5.78678 47.0384 5.78678V5.78662ZM47.0384 7.24604C65.8448 7.24604 81.1119 22.5146 81.1119 41.3163C81.1119 60.1332 65.8448 75.3865 47.0384 75.3865C28.2307 75.3865 12.9682 60.1334 12.9682 41.3161C12.9682 22.5146 28.2306 7.24604 47.0386 7.24604H47.0384Z" fill="#06376C"/>
<path d="M47.0389 8.64355C29.0053 8.64355 14.3711 23.2822 14.3711 41.316C14.3711 59.3496 29.0053 73.9884 47.0389 73.9884C65.0742 73.9884 79.7114 59.3496 79.7114 41.316C79.7114 23.2822 65.0742 8.64355 47.0389 8.64355ZM47.0236 13.4976C62.3751 13.4976 74.8343 25.9551 74.8343 41.316C74.8343 56.6767 62.3752 69.1344 47.0236 69.1344C31.6721 69.1344 19.2128 56.6767 19.2128 41.316C19.2128 25.9553 31.6719 13.4976 47.0236 13.4976Z" fill="#06376C"/>
<path d="M18.5391 52.5664C18.9305 53.596 19.376 54.6043 19.8736 55.5871H74.1719C74.6695 54.6043 75.1149 53.596 75.5063 52.5664H18.5391ZM21.0477 57.7025C21.6934 58.7649 22.4057 59.7817 23.1683 60.7542H70.8772C71.6398 59.7817 72.3519 58.7649 72.9978 57.7025H21.0477ZM24.9476 62.8335C25.992 63.9478 27.1175 64.9833 28.3147 65.9316H65.7308C66.9281 64.9832 68.0535 63.9477 69.0979 62.8333L24.9476 62.8335Z" fill="#06376C"/>
<path d="M30.9513 48.7045L30.664 47.8135L29.4229 48.2129L29.2032 47.537C29.0681 47.1224 29.403 46.9534 29.7394 46.8151C29.8316 46.769 30.1619 46.6461 30.251 46.5386L29.9652 45.6631C29.8807 45.8167 29.383 46.0011 29.2432 46.0472C28.9283 46.1854 28.5565 46.4312 28.5888 46.8153H28.5734C28.3184 46.508 27.9128 46.4466 27.5443 46.5695C26.8576 46.7845 26.7777 47.4603 26.9728 48.0748L27.5381 49.8106L30.9513 48.7045ZM27.9667 48.6892L27.7363 47.9825C27.6564 47.7367 27.7056 47.4909 27.9591 47.4141C28.2171 47.3219 28.4061 47.4296 28.4937 47.6906L28.7349 48.4434L27.9667 48.6892ZM29.8761 45.3712L29.5212 42.4834L28.7239 42.591L28.9651 44.5418L28.2877 44.6186L28.0726 42.8827L27.3553 42.9749L27.5704 44.7108L26.9467 44.7876L26.7132 42.8827L25.9713 42.9749L26.3185 45.8014L29.8761 45.3712ZM29.4583 42.0994L29.4905 41.1776L28.2969 41.1315L28.323 40.3636C28.3506 39.5801 28.0219 39.0578 27.1341 39.0271C26.2861 38.9965 25.959 39.6108 25.936 40.2868L25.8761 41.9765L29.4583 42.0994ZM26.6565 41.0701L26.678 40.4404C26.6934 40.1639 26.8316 39.9488 27.1665 39.9642C27.4936 39.9795 27.6057 40.1946 27.5965 40.4865L27.5735 41.101L26.6565 41.0701ZM25.5059 36.3084L26.125 36.9536L26.2617 36.3545L25.7102 35.4328L25.5059 36.3084ZM26.807 34.9719L26.5966 35.8936L28.6994 36.3699C29.1495 36.4774 29.3415 36.6925 29.2386 37.138C29.1357 37.5833 28.8684 37.7062 28.4182 37.5987L26.3154 37.1071L26.105 38.0135L28.1542 38.4897C29.1665 38.7201 29.7778 38.3822 30.0221 37.3222C30.2663 36.2622 29.8684 35.6786 28.8561 35.4481L26.807 34.9719ZM29.403 33.8045L29.7194 33.1286C29.8377 32.8674 30.0267 32.7138 30.3124 32.8521C30.5812 32.975 30.5905 33.2054 30.4645 33.4665L30.1496 34.1425L29.403 33.8045ZM30.4322 35.31L31.1602 33.7431C31.4844 33.0518 31.5136 32.376 30.7393 32.0073C30.3706 31.8383 29.9712 31.9151 29.71 32.2224C29.6947 31.8998 29.5457 31.6232 29.2539 31.485C28.5765 31.1624 28.1448 31.7154 27.8928 32.2684L27.1833 33.7893L30.4322 35.31ZM28.2339 33.2515L28.5396 32.6063C28.621 32.4221 28.7777 32.2838 29.0143 32.4067C29.2463 32.5142 29.2309 32.7447 29.1618 32.8829L28.8561 33.5435L28.2339 33.2515ZM31.9589 32.1763L33.4905 30.0718L32.8407 29.5956L31.8575 30.9474L29.6088 29.3192L29.0604 30.0719L31.9589 32.1763ZM33.701 29.8415L34.3138 29.1349L31.6088 26.7846L30.9959 27.4912L33.701 29.8415ZM35.6794 24.8185C35.1048 24.1733 34.1464 24.3423 33.5549 24.8339C32.724 25.5405 32.7194 26.6157 33.3859 27.4144C34.0542 28.2133 35.1249 28.3976 35.9559 27.7063C36.6518 27.1226 36.8223 26.2624 36.2662 25.525L35.5519 26.1242C35.7884 26.4621 35.7577 26.8155 35.4243 27.092C34.9619 27.4914 34.4427 27.2302 34.1018 26.8155C33.7592 26.416 33.5949 25.8476 34.0557 25.4636C34.3553 25.2178 34.6933 25.1871 34.9652 25.4175L35.6794 24.8185ZM37.4767 23.4513V23.4359L38.432 24.3423L37.7207 24.7417L37.4767 23.4513ZM37.1511 26.585L37.9897 26.1242L37.876 25.4482L38.9698 24.8491L39.4735 25.2946L40.3246 24.8337L37.4151 22.3454L36.5856 22.8062L37.1511 26.585ZM41.9742 24.2808L43.4766 23.9429C44.5365 23.6971 45.0448 22.929 44.7807 21.7771C44.5319 20.7017 43.7407 20.1948 42.6699 20.4406L41.1678 20.7939L41.9742 24.2808ZM42.2584 21.3623L42.6885 21.2701C43.3107 21.1165 43.724 21.347 43.8699 21.9922C44.031 22.6833 43.8192 23.0213 43.134 23.1903L42.7039 23.2978L42.2584 21.3623ZM45.5994 23.6049L48.5056 23.5435L48.4902 22.7448L46.5179 22.7755L46.5025 22.0996L48.2584 22.0688L48.2429 21.3468L46.4872 21.3775L46.4718 20.7478L48.3935 20.7171L48.3781 19.9644L45.5239 20.0104L45.5994 23.6049ZM54.2614 22.4222C54.4611 21.5772 53.779 20.8861 53.0324 20.6864C51.9849 20.4099 51.0925 21.0244 50.8236 22.0229C50.5548 23.0367 51.0187 24.0197 52.0664 24.2962C52.9435 24.5266 53.7375 24.1887 54.0263 23.2977L53.123 23.0672C52.9832 23.4513 52.676 23.6203 52.2537 23.5127C51.673 23.3591 51.587 22.7907 51.7252 22.2685C51.862 21.7616 52.223 21.3007 52.8052 21.4543C53.1831 21.5619 53.4059 21.823 53.3598 22.1764L54.2614 22.4222ZM56.4179 23.1442L56.4333 23.1595L56.2167 24.45L55.4917 24.0813L56.4179 23.1442ZM53.6315 24.6342L54.4872 25.0797L54.9788 24.6034L56.0924 25.1719L55.9987 25.8476L56.8651 26.2931L57.2982 22.4836L56.4533 22.0535L53.6315 24.6342ZM58.6684 25.7556L59.2583 26.2163C59.4795 26.3853 59.5885 26.6004 59.3934 26.8462C59.2122 27.092 58.9848 27.0459 58.7513 26.8615L58.1614 26.4007L58.6684 25.7556ZM56.9648 26.416L58.3229 27.476C58.928 27.9521 59.5823 28.1211 60.1076 27.4605C60.358 27.1379 60.3765 26.7231 60.143 26.4005C60.4518 26.462 60.7621 26.3852 60.9602 26.124C61.4211 25.5404 60.9864 24.9874 60.4932 24.6188L59.1721 23.5895L56.9648 26.416ZM59.4626 24.7262L60.0325 25.1717C60.1861 25.2946 60.2799 25.4789 60.1201 25.6787C59.9619 25.8937 59.736 25.8169 59.6085 25.7247L59.0386 25.2792L59.4626 24.7262ZM60.9649 27.3378C60.1814 28.0136 59.974 29.0427 60.7144 29.903C61.4564 30.7477 62.4994 30.6864 63.2842 30.0105C64.0677 29.3192 64.2751 28.3053 63.5347 27.4452C62.7927 26.6002 61.7497 26.6617 60.9649 27.3376V27.3378ZM61.5778 28.0443C61.9801 27.691 62.5332 27.522 62.9278 27.9675C63.3227 28.4283 63.0723 28.9507 62.6713 29.3038C62.2703 29.6418 61.7174 29.8262 61.3211 29.3653C60.9263 28.9198 61.1767 28.3975 61.5777 28.0441L61.5778 28.0443ZM67.3734 34.0657L66.9617 33.19L64.249 33.6816V33.6663L66.3671 31.9151L65.9554 31.0241L63.1859 33.5589L63.6391 34.5419L67.3734 34.0657ZM64.1077 35.7093L64.8113 38.5356L65.59 38.3359L65.1137 36.4313L65.7759 36.2623L66.2014 37.9674L66.9019 37.783L66.4764 36.0778L67.0861 35.9242L67.55 37.7984L68.2767 37.614L67.5854 34.8491L64.1077 35.7093ZM64.928 38.935L64.9618 39.8721L66.2657 39.8261L66.2903 40.5326C66.3057 40.9627 65.9355 41.0395 65.576 41.0702C65.4761 41.0856 65.1245 41.1163 65.0077 41.2085L65.04 42.1301C65.166 41.9918 65.6914 41.9611 65.8419 41.9457C66.1829 41.8997 66.6054 41.7768 66.6822 41.3927H66.6976C66.8558 41.7614 67.229 41.9304 67.6146 41.9304C68.3381 41.8997 68.6023 41.2698 68.5793 40.64L68.5163 38.8122L64.928 38.935ZM67.7957 39.7646L67.8203 40.5174C67.8356 40.7784 67.7173 40.9934 67.4516 40.9934C67.1796 41.0088 67.0245 40.8552 67.0153 40.5787L66.9876 39.7952L67.7957 39.7646ZM64.997 42.3912L64.808 43.9273C64.6759 45.0027 65.2228 45.7399 66.3888 45.8935C67.4886 46.0164 68.232 45.448 68.3656 44.3573L68.553 42.8368L64.997 42.3912ZM67.6422 43.6663L67.5884 44.0963C67.5116 44.7262 67.1552 45.0488 66.5069 44.9566C65.7941 44.8798 65.5545 44.5572 65.6267 43.8505L65.6804 43.4204L67.6422 43.6663ZM64.3381 46.047L63.4394 48.8119L64.2029 49.0577L64.8128 47.1837L65.4625 47.3987L64.9186 49.0577L65.6069 49.2881L66.1492 47.6136L66.7467 47.8134L66.1522 49.6415L66.8633 49.8719L67.7451 47.1529L64.3381 46.047Z" fill="#1F1A17"/>
<path d="M59.1548 47.927H34.9258L40.9831 37.4357L47.0405 26.9443L53.0976 37.4357L59.1548 47.927Z" fill="#06376C"/>
<path d="M47.0389 1C46.8435 1 46.65 1.0385 46.4694 1.11329C46.2888 1.18809 46.1248 1.29772 45.9866 1.43592C45.8484 1.57412 45.7388 1.7382 45.664 1.91876C45.5892 2.09933 45.5508 2.29285 45.5508 2.48829C45.5508 2.88297 45.7076 3.26149 45.9867 3.54057C46.2657 3.81965 46.6442 3.97644 47.0389 3.97644C47.2344 3.97646 47.4279 3.93798 47.6085 3.8632C47.789 3.78843 47.9531 3.67881 48.0913 3.54062C48.2295 3.40243 48.3391 3.23838 48.4139 3.05782C48.4887 2.87726 48.5272 2.68373 48.5272 2.48829C48.5272 2.29284 48.4888 2.0993 48.414 1.91873C48.3392 1.73815 48.2296 1.57407 48.0914 1.43587C47.9532 1.29766 47.7891 1.18803 47.6085 1.11325C47.4279 1.03846 47.2344 0.99998 47.0389 1ZM47.0389 1.78178C47.2262 1.78203 47.4058 1.85654 47.5383 1.98898C47.6708 2.12142 47.7453 2.30098 47.7456 2.48829C47.7453 2.67558 47.6707 2.85511 47.5382 2.98751C47.4058 3.11992 47.2262 3.19441 47.0389 3.19465C46.6496 3.19465 46.3384 2.87757 46.3384 2.48829C46.3384 2.09886 46.6496 1.78163 47.0389 1.78163V1.78178Z" fill="#FCD116" stroke="black" stroke-width="1.1289"/>
<path d="M46.2415 3.97669C46.2716 4.57459 45.584 5.79189 44.1977 5.79189L46.2415 3.97669ZM50.6567 5.79281H43.4228C44.2639 5.79281 45.834 4.7127 45.834 3.977H48.2455C48.2455 4.73067 49.7702 5.79281 50.6567 5.79281ZM46.8621 3.97607C46.8621 3.97607 46.7106 5.7922 45.5523 5.7922L46.8621 3.97607ZM47.0397 16.6367L51.7083 5.79297H42.3711L47.0397 16.6367ZM44.1978 5.79312L47.0398 16.6353L44.1978 5.79312ZM45.4836 5.79312L47.0398 16.636L45.4836 5.79312ZM43.181 5.79312L47.04 16.6358L43.181 5.79312Z" fill="#FCD116"/>
<path d="M43.181 5.79312L47.04 16.6358M46.2415 3.97669C46.2716 4.57459 45.584 5.79189 44.1977 5.79189L46.2415 3.97669ZM50.6567 5.79281H43.4228C44.2639 5.79281 45.834 4.7127 45.834 3.977H48.2455C48.2455 4.73067 49.7702 5.79281 50.6567 5.79281V5.79281ZM46.8621 3.97607C46.8621 3.97607 46.7106 5.7922 45.5523 5.7922L46.8621 3.97607ZM47.0397 16.6367L51.7083 5.79297H42.3711L47.0397 16.6367ZM44.1978 5.79312L47.0398 16.6353L44.1978 5.79312ZM45.4836 5.79312L47.0398 16.636L45.4836 5.79312Z" stroke="black" stroke-width="1.1289"/>
<path d="M58.4261 83.5993C57.8458 83.6267 57.2772 83.7728 56.7555 84.0285L50.7556 86.9819C49.0916 87.8002 47.9391 89.7706 48.8212 91.5644C49.7035 93.3583 51.9674 93.65 53.6314 92.8317L59.6313 89.8835C61.2953 89.0652 62.4426 87.0896 61.5605 85.2957C60.954 84.0624 59.6946 83.5398 58.4261 83.5993ZM58.6589 85.2232C59.2949 85.2369 59.8501 85.5183 60.0968 86.0197C60.4913 86.8221 59.9545 87.8995 58.9071 88.4146L52.9125 91.3627C51.8651 91.8778 50.6846 91.6426 50.2901 90.8404C49.8956 90.038 50.4272 88.9607 51.4746 88.4456L57.4744 85.4974C57.8673 85.3042 58.2773 85.2151 58.6589 85.2232ZM35.3124 83.5983C34.1656 83.6418 33.0707 84.1737 32.5195 85.2949C31.6373 87.0888 32.7898 89.0642 34.4538 89.8827L40.4485 92.8308C42.1127 93.6493 44.3766 93.3577 45.2587 91.5637C46.1408 89.7698 44.9935 87.7995 43.3295 86.9811L37.3296 84.0277C36.7028 83.721 36.01 83.5735 35.3126 83.5983H35.3124ZM35.421 85.2224C35.8026 85.2143 36.2179 85.3034 36.6107 85.4967L42.6053 88.4447C43.6527 88.9599 44.1895 90.0371 43.795 90.8397C43.4003 91.6419 42.22 91.8771 41.1726 91.362L35.1728 88.4138C34.1254 87.8987 33.5938 86.8213 33.9883 86.019C34.2349 85.5176 34.785 85.2361 35.421 85.2224Z" fill="#FCD116" stroke="black" stroke-width="1.077"/>
<path d="M42.2991 89.3618H51.6759C52.2897 89.3618 52.5781 89.7989 52.5781 90.2038C52.5781 90.5951 52.2947 91.046 51.6759 91.046H42.2991C41.7044 91.046 41.5039 90.5931 41.5039 90.2038C41.5039 89.8009 41.7486 89.3618 42.2991 89.3618Z" fill="#FCD116" stroke="black" stroke-width="1.129"/>
<path d="M65.0723 84.982L65.2557 85.9074C76.3472 79.9868 85.162 70.3316 89.7709 59.7764C85.6273 67.8488 77.9549 78.1717 65.0723 84.982Z" fill="#00923F" stroke="#00923F" stroke-width="1.1289"/>
<path d="M69.2224 82.5059C68.2405 79.031 69.648 76.8197 71.5039 74.7993C70.7425 77.7737 69.9944 78.6125 69.2226 82.5059H69.2224ZM70.8763 82.5125C74.0789 83.455 77.7362 82.4836 80.592 79.3357C77.687 80.6445 74.2311 82.1126 70.8763 82.5125ZM72.2413 80.4088C71.9694 75.3598 72.9946 73.3618 75.7001 69.9493C74.523 73.7486 73.4868 77.3913 72.2413 80.4088ZM74.7853 79.5425C77.4348 79.9435 81.6906 78.8336 84.2355 75.6844C81.794 77.1013 77.962 78.0871 74.7851 79.5425H74.7853ZM76.4556 77.0423C75.8989 71.937 76.9948 68.9691 79.8282 65.8712C78.8868 70.0216 77.1635 73.2945 76.4556 77.0423ZM78.7089 75.88C84.9133 75.9218 86.6919 73.4497 88.635 70.2838C85.4053 73.634 83.6759 73.3904 78.7089 75.88ZM80.0852 73.4605C79.7319 70.1305 80.7716 65.1593 84.0424 61.9506C82.8629 66.6146 81.4262 69.2768 80.0851 73.4605H80.0852ZM82.4765 71.791C86.3893 72.2189 89.1646 68.8398 90.4921 65.6612C87.4969 68.4504 85.8757 70.1742 82.4765 71.791ZM83.4656 69.5377C83.5178 65.8529 85.5622 61.4946 88.6004 58.8305C87.0958 62.4087 86.2214 64.0042 83.4656 69.5377ZM85.7253 67.3366C88.7873 64.8095 89.4485 63.2668 91.9034 60.4359C91.5424 62.8559 88.7268 67.7007 85.7253 67.3366ZM88.4567 62.3357C89.5671 58.0977 90.8957 57.0668 93.0001 53.2285C92.2059 57.1883 92.1309 58.3222 88.4566 62.3357H88.4567Z" fill="#00923F" stroke="#00923F" stroke-width="1.1289" stroke-linejoin="round"/>
<path d="M28.927 84.8747L28.7436 85.8C17.6521 79.8794 8.8375 70.2242 4.22852 59.6689C8.37202 67.7413 16.0445 78.0643 28.927 84.8747Z" fill="#00923F" stroke="#00923F" stroke-width="1.1289"/>
<path d="M24.7777 82.3985C25.7596 78.9235 24.3522 76.7123 22.4964 74.6918C23.2576 77.6664 24.0057 78.5051 24.7777 82.3985ZM23.1238 82.4051C19.9212 83.3475 16.2641 82.3762 13.4081 79.2283C16.3131 80.537 19.7691 82.0052 23.1238 82.4051ZM21.7589 80.3014C22.0308 75.2524 21.0055 73.2544 18.3 69.8418C19.4773 73.6412 20.5133 77.2839 21.7589 80.3014ZM19.215 79.4351C16.5653 79.836 12.3097 78.7261 9.76463 75.5772C12.2063 76.9939 16.0381 77.9795 19.215 79.4351ZM17.5447 76.9349C18.1013 71.8295 17.0053 68.8617 14.1721 65.7638C15.1135 69.9142 16.8366 73.1873 17.5447 76.9349ZM15.2913 75.7726C9.087 75.8144 7.3082 73.3423 5.36534 70.1764C8.59479 73.5266 10.3243 73.283 15.2913 75.7726ZM13.9149 73.353C14.2682 70.0231 13.2287 65.0519 9.95788 61.8432C11.1372 66.5071 12.5741 69.1694 13.915 73.353H13.9149ZM11.5236 71.6836C7.61084 72.1114 4.83565 68.7324 3.5082 65.5538C6.50337 68.3431 8.1244 70.0667 11.5236 71.6836ZM10.5347 69.4304C10.4825 65.7455 8.43794 61.3872 5.39975 58.7231C6.90433 62.3013 7.77875 63.8968 10.5347 69.4304ZM8.27495 67.2292C5.21279 64.7021 4.55175 63.1594 2.09686 60.3284C2.45788 62.7485 5.27347 67.5933 8.27495 67.2292ZM5.54354 62.2283C4.433 57.9903 3.10463 56.9594 1 53.1211C1.79423 57.081 1.86935 58.2148 5.54354 62.2283Z" fill="#00923F" stroke="#00923F" stroke-width="1.1289" stroke-linejoin="round"/>
<path d="M15.1949 16.3359L13.6585 17.4475L14.2478 19.2495L12.7162 18.1322L11.1846 19.2495L11.7737 17.4475L10.2377 16.3358L12.1337 16.3395L12.7162 14.5352L13.2986 16.3395L15.1949 16.3359ZM10.8133 23.3457L9.27705 24.4573L9.8662 26.2593L8.33458 25.1422L6.80296 26.2595L7.39226 24.4575L5.85603 23.3457L7.7522 23.3494L8.33458 21.5451L8.91696 23.3494L10.8133 23.3457ZM8.20845 30.878L6.67223 31.9896L7.26137 33.7916L5.72976 32.6744L4.19814 33.7917L4.78743 31.9897L3.25121 30.878L5.14737 30.8817L5.72976 29.0774L6.31214 30.8817L8.20845 30.878ZM7.00006 38.6935L5.46383 39.8051L6.05298 41.6071L4.52136 40.4898L2.98974 41.6071L3.57904 39.8051L2.04297 38.6935L3.93898 38.6971L4.52136 36.8929L5.1039 38.6971L7.00006 38.6935ZM8.23196 46.6991L6.69558 47.8107L7.28503 49.6127L5.75341 48.4954L4.2218 49.6129L4.81094 47.8107L3.27487 46.6991L5.17088 46.7028L5.75326 44.8985L6.33564 46.7028L8.23196 46.6991ZM78.8865 16.3359L80.4227 17.4475L79.8336 19.2495L81.3652 18.1322L82.8968 19.2495L82.3075 17.4475L83.8437 16.3358L81.9476 16.3395L81.3652 14.5352L80.7828 16.3395L78.8865 16.3359ZM83.2681 23.3457L84.8043 24.4573L84.215 26.2593L85.7467 25.1422L87.2783 26.2595L86.6891 24.4575L88.2252 23.3457L86.3292 23.3494L85.7467 21.5451L85.1644 23.3494L83.2681 23.3457ZM85.8729 30.878L87.4092 31.9896L86.8199 33.7916L88.3515 32.6744L89.8831 33.7917L89.2938 31.9897L90.83 30.878L88.934 30.8817L88.3515 29.0774L87.7692 30.8817L85.8729 30.878ZM87.0813 38.6935L88.6176 39.8051L88.0283 41.6071L89.5599 40.4898L91.0915 41.6071L90.5023 39.8051L92.0383 38.6935L90.1424 38.6971L89.5599 36.8929L88.9775 38.6971L87.0813 38.6935ZM85.8493 46.6991L87.3858 47.8107L86.7964 49.6127L88.328 48.4954L89.8596 49.6129L89.2705 47.8107L90.8065 46.6991L88.9105 46.7028L88.328 44.8985L87.7457 46.7028L85.8493 46.6991Z" fill="#FCD116" stroke="#FCD116" stroke-width="1.1289"/>
<path fill-rule="evenodd" clip-rule="evenodd" d="M45.0322 37.5003C43.6369 37.5533 43.8355 36.3501 44.0894 35.6388C44.935 36.0364 45.6714 36.7646 45.0322 37.5004V37.5003ZM47.5464 31.5532C45.6021 32.6737 44.0796 34.8761 46.2409 36.8234L46.7245 36.0256L47.5464 36.9686C47.7204 35.9029 48.9116 35.0974 48.586 33.8258C48.586 33.8258 48.32 34.2851 47.8848 34.2608C47.9838 33.694 47.4702 32.7166 47.5464 31.5532Z" fill="white" stroke="#06376C" stroke-width="2.155"/>
<path d="M51.16 38.5942H42.9121C42.7363 38.5942 42.5938 38.7367 42.5938 38.9125V39.6444C42.5938 39.8202 42.7363 39.9627 42.9121 39.9627H51.16C51.3358 39.9627 51.4784 39.8202 51.4784 39.6444V38.9125C51.4784 38.7367 51.3358 38.5942 51.16 38.5942Z" fill="white"/>
<path d="M46.3005 43.9764C46.3005 43.5007 46.2882 41.7366 44.498 41.7366V41.019H49.5733V41.7555C47.8604 41.7555 47.8307 43.4375 47.8307 43.9766V48.0456H46.3005V43.9764Z" fill="white"/>
<path d="M47.8344 43.9482H46.2387C45.8394 43.9482 45.5156 44.272 45.5156 44.6713C45.5156 45.0707 45.8394 45.3944 46.2387 45.3944H47.8344C48.2338 45.3944 48.5575 45.0707 48.5575 44.6713C48.5575 44.272 48.2338 43.9482 47.8344 43.9482Z" fill="white" stroke="#06376C" stroke-width="4.31"/>
<path fill-rule="evenodd" clip-rule="evenodd" d="M49.9158 34.5753C50.55 37.117 49.8286 37.2909 49.2874 37.5489C47.9005 37.1471 48.467 35.2264 49.9158 34.5752V34.5753Z" fill="white" stroke="#06376C" stroke-width="2.155"/>
</svg>
