<?xml version="1.0" encoding="UTF-8" standalone="no"?>
<svg
   id="Layer_1"
   viewBox="0 0 274 192"
   version="1.1"
   sodipodi:docname="LOGO_neg-02.svg"
   inkscape:version="1.2.1 (9c6d41e4, 2022-07-14)"
   xmlns:inkscape="http://www.inkscape.org/namespaces/inkscape"
   xmlns:sodipodi="http://sodipodi.sourceforge.net/DTD/sodipodi-0.dtd"
   xmlns="http://www.w3.org/2000/svg"
   xmlns:svg="http://www.w3.org/2000/svg">
  <sodipodi:namedview
     id="namedview1272"
     pagecolor="#505050"
     bordercolor="#eeeeee"
     borderopacity="1"
     inkscape:showpageshadow="0"
     inkscape:pageopacity="0"
     inkscape:pagecheckerboard="0"
     inkscape:deskcolor="#505050"
     showgrid="false"
     inkscape:zoom="1.2291667"
     inkscape:cx="136.67797"
     inkscape:cy="96"
     inkscape:window-width="1529"
     inkscape:window-height="456"
     inkscape:window-x="224"
     inkscape:window-y="510"
     inkscape:window-maximized="0"
     inkscape:current-layer="Layer_1" />
  <defs
     id="defs1217">
    <style
       id="style1215">.cls-1{letter-spacing:-.07em;}.cls-2,.cls-3,.cls-4{fill:#fff;}.cls-5{letter-spacing:-.05em;}.cls-6{letter-spacing:-.05em;}.cls-7{letter-spacing:-.05em;}.cls-3{font-size:73.47px;}.cls-3,.cls-4{font-family:Montserrat-Regular, Montserrat;}.cls-8{letter-spacing:-.06em;}.cls-9{letter-spacing:-.06em;}.cls-10{letter-spacing:-.06em;}.cls-4{font-size:14.56px;}.cls-11{fill:none;stroke:#fff;stroke-miterlimit:10;stroke-width:.96px;}</style>
  </defs>
  <g
     id="g1251">
    <path
       class="cls-11"
       d="M241.79,81.06c-1.53-6.72-11.78-14.7-75.26-3.68,0-10.25,.12-17.24,0-34.68-.08-12.3-6.35-21.11-17.19-16.41-21.4,9.28-41.3,35.05-52.92,57.31-3.62,6.93-1.13,19.43,9.39,18.74,18.07-1.19,31.51-7.42,49.08-11.11,1.08,10.17,9.51,25.94,23.57,25.65,33.43-.69,65.56-26.02,63.32-35.82Zm-88.59-1.08c-7.79,1.05-27.24,5.3-44.17,10.07-.68,.19-1.3-.42-1.13-1.1,2.16-8.84,11.26-19.73,16.03-25.46,6.27-7.52,19.1-21.42,29.27-26.04-.62,10.01-.77,31.43,0,42.52Zm72.26,6.01c-6.63,6.32-30.68,18.09-43.29,19.1-8.67,.7-15.82-8.28-15.51-16.14,10.08-4.29,44.56-5.14,58.27-5.13,2.4,0,1.03,1.68,.54,2.16Z"
       id="path1227" />
    <path
       class="cls-2"
       d="M154.69,91.12c-.08,0-.06-.03-.01-.06v.06Z"
       id="path1229" />
    <path
       class="cls-2"
       d="M155.34,90.77c-.46-2.35-1.62-10.39-1.62-10.39-11.32,1.33-22.08,3.99-36.1,7.48,1.3-.28,2.61-.55,3.91-.81-3.81,.85-7.85,1.8-12.24,2.88-.09,.03-.17,.05-.26,.08-.04,.01-.06,.03-.1,.01-.01,.01-.03,.01-.04,.01-.62,.06-1.15-.5-.99-1.13,2.16-8.84,11.26-19.73,16.03-25.45,6.27-7.53,19.61-22.11,29.78-26.74,0,0-.85-3.68-5.43-1.71-32.21,13.87-42.07,31.27-51.85,48.55-3.86,6.81-1.13,19.43,9.39,18.74,13.83-.9,24.97-4.77,37.31-8.2,3.76-1.04,7.63-2.05,11.74-2.91l-.03-.19c.21-.1,.49-.21,.49-.22Zm-.64,.35c-.08,0-.06-.03-.01-.06v.06Z"
       id="path1231" />
    <path
       class="cls-2"
       d="M109.29,89.93c2.68-.76,5.43-1.43,8.18-2.03-2.6,.66-5.33,1.33-8.18,2.03Z"
       id="path1233" />
    <path
       class="cls-2"
       d="M154.69,91.12c-.08,0-.06-.03-.01-.06v.06Z"
       id="path1235" />
    <path
       class="cls-2"
       d="M168.17,88.43c-.55,.18-1.06,.37-1.52,.57v-.24c.5-.1,1-.22,1.52-.32Z"
       id="path1237" />
    <g
       id="g1249">
      <path
         class="cls-2"
         d="M228.08,79.72c0,3.14-.58,4.85-1.98,6.16,.54-.44-.4,.4,0,0,.5-.46,1.25-2.02-1.15-2.02-3.51-.01-8.39,.05-13.87,.21,0-.01-.01-.03-.01-.04-3.47,.09-7.18,.23-10.95,.42-.69,.03-1.39,.08-2.07,.12-11.74,.66-23.63,1.83-29.84,3.85-.01,.01-.03,.01-.04,.01-.51,.1-1.51,.68-2.01,.78l-.15-9.07,.03-2.69c18.36-3.18,32.78-4.81,43.3-5.32,1.78-.09,3.45-.14,5.03-.17,.01,0,.01-.01,.01-.01h.75c.59-.01,1.17-.01,1.74-.01h.33c.76,.01,1.49,.03,2.2,.04,.32,.01,.62,.03,.93,.04,.1,0,.22,.01,.32,.01,1.22,.05,2.39,.12,3.47,.21,2.39,1.62,3.96,4.36,3.96,7.48Z"
         id="path1239" />
      <polygon
         class="cls-2"
         points="166.56 80.14 166.65 88.75 166.64 88.75 166.56 80.14"
         id="polygon1241" />
      <path
         class="cls-2"
         d="M198.05,84.57c-12.77,.82-22.1,2.26-29.84,3.85,6.22-2.02,18.11-3.19,29.84-3.85Z"
         id="path1243" />
      <path
         class="cls-2"
         d="M108.93,90.02c.12-.03,.24-.05,.36-.09-.09,.03-.17,.05-.26,.08-.04,.01-.06,.03-.1,.01Z"
         id="path1245" />
      <path
         class="cls-2"
         d="M154.92,91.49c-3.94,.95-7.72,1.87-11.79,2.6,3.76-1.04,7.63-2.05,11.74-2.91l.05,.31Z"
         id="path1247" />
    </g>
  </g>
  <path
     class="cls-3"
     d="m 1.2594918,97.355087 c 0,-2.5 2.13,-4.63 4.82,-4.63 2.69,0 4.8200002,2.04 4.8200002,4.54 0,2.690003 -2.0400002,4.820003 -4.8200002,4.820003 -2.78,0 -4.82,-2.13 -4.82,-4.720003 z m 1.48,15.380003 h 6.58 v 48.73 h -6.58 z"
     id="path6"
     style="fill:#ffffff" />
  <path
     class="cls-3"
     d="m 68.139492,112.72509 v 42.8 c 0,16.77 -8.24,24.36 -24.36,24.36 -8.89,0 -17.6,-2.69 -22.7,-7.5 l 3.33,-5 c 4.63,4.17 11.67,6.67 19.18,6.67 12.32,0 17.97,-5.65 17.97,-17.69 v -6.21 c -4.08,6.21 -11.02,9.45 -18.99,9.45 -13.9,0 -24.46,-9.73 -24.46,-23.71 0,-13.98 10.56,-23.53 24.46,-23.53 8.15,0 15.19,3.33 19.27,9.73 v -9.36 h 6.3 z m -6.39,23.16 c 0,-10.56 -7.78,-17.79 -18.53,-17.79 -10.75,0 -18.43,7.23 -18.43,17.79 0,10.56 7.69,17.88 18.43,17.88 10.74,0 18.53,-7.32 18.53,-17.88 z"
     id="path8"
     style="fill:#ffffff" />
  <path
     class="cls-3"
     d="m 106.48949,112.35509 v 6.39 c -0.56,0 -1.11,-0.09 -1.58,-0.09 -10.189999,0 -16.399999,6.48 -16.399999,17.97 v 24.83 h -6.579999 v -48.73 h 6.299999 v 9.54 c 3.06,-6.48 9.26,-9.91 18.249999,-9.91 z"
     id="path10"
     style="fill:#ffffff" />
  <path
     class="cls-3"
     d="m 163.07949,137.09509 c 0,14.82 -10.38,24.83 -24.27,24.83 -7.78,0 -14.45,-3.34 -18.53,-9.63 v 27.14 h -6.58 v -66.71 h 6.3 v 9.63 c 3.98,-6.48 10.75,-10 18.8,-10 13.9,0 24.27,10 24.27,24.73 z m -6.58,0 c 0,-11.3 -7.87,-18.99 -18.16,-18.99 -10.29,0 -18.16,7.69 -18.16,18.99 0,11.3 7.78,18.99 18.16,18.99 10.38,0 18.16,-7.6 18.16,-18.99 z"
     id="path12"
     style="fill:#ffffff" />
  <g
     id="g66"
     transform="translate(-4.578814,-6.789153)"
     style="fill:#ffffff">
    <path
       d="m 175.65,141.78 0.53,-1.05 c 0.92,0.9 2.55,1.56 4.24,1.56 2.41,0 3.45,-1.01 3.45,-2.28 0,-3.53 -7.92,-1.36 -7.92,-6.12 0,-1.89 1.47,-3.53 4.74,-3.53 1.45,0 2.96,0.42 3.99,1.14 l -0.46,1.08 c -1.1,-0.72 -2.39,-1.07 -3.53,-1.07 -2.35,0 -3.4,1.05 -3.4,2.33 0,3.53 7.92,1.4 7.92,6.08 0,1.89 -1.51,3.51 -4.79,3.51 -1.93,0 -3.82,-0.68 -4.78,-1.67 z"
       id="path30"
       style="fill:#ffffff" />
    <path
       d="m 186.68,130.63 c 0,-0.5 0.42,-0.92 0.96,-0.92 0.54,0 0.96,0.4 0.96,0.9 0,0.53 -0.4,0.96 -0.96,0.96 -0.56,0 -0.96,-0.42 -0.96,-0.94 z m 0.29,3.05 h 1.3 v 9.66 h -1.3 z"
       id="path32"
       style="fill:#ffffff" />
    <path
       d="m 206.94,137.74 v 5.6 h -1.3 v -5.48 c 0,-2.04 -1.03,-3.09 -2.77,-3.09 -1.98,0 -3.23,1.29 -3.23,3.49 v 5.07 h -1.3 v -5.48 c 0,-2.04 -1.03,-3.09 -2.79,-3.09 -1.97,0 -3.23,1.29 -3.23,3.49 v 5.07 h -1.3 v -9.66 h 1.25 v 1.76 c 0.68,-1.16 1.93,-1.84 3.55,-1.84 1.62,0 2.85,0.68 3.44,2.04 0.7,-1.25 2.08,-2.04 3.82,-2.04 2.35,0 3.89,1.36 3.89,4.13 z"
       id="path34"
       style="fill:#ffffff" />
    <path
       d="m 219.36,138.51 c 0,2.94 -2.06,4.92 -4.81,4.92 -1.54,0 -2.87,-0.66 -3.67,-1.91 v 5.38 h -1.3 v -13.23 h 1.25 v 1.91 c 0.79,-1.29 2.13,-1.98 3.73,-1.98 2.76,0 4.81,1.98 4.81,4.91 z m -1.3,0 c 0,-2.24 -1.56,-3.77 -3.6,-3.77 -2.04,0 -3.6,1.53 -3.6,3.77 0,2.24 1.54,3.77 3.6,3.77 2.06,0 3.6,-1.51 3.6,-3.77 z"
       id="path36"
       style="fill:#ffffff" />
    <path
       d="m 221.1,129.71 h 1.3 v 13.63 h -1.3 z"
       id="path38"
       style="fill:#ffffff" />
    <path
       d="m 233.53,138.91 h -8.08 c 0.15,2.02 1.69,3.36 3.8,3.36 1.18,0 2.22,-0.42 2.96,-1.27 l 0.73,0.84 c -0.86,1.03 -2.2,1.58 -3.73,1.58 -3.01,0 -5.07,-2.06 -5.07,-4.92 0,-2.86 2,-4.91 4.72,-4.91 2.72,0 4.68,2 4.68,4.91 0,0.11 -0.02,0.26 -0.02,0.4 z m -8.08,-0.97 h 6.85 c -0.17,-1.89 -1.54,-3.21 -3.44,-3.21 -1.9,0 -3.25,1.32 -3.42,3.21 z"
       id="path40"
       style="fill:#ffffff" />
    <path
       d="m 234.45,142.42 c 0,-0.57 0.44,-0.99 0.97,-0.99 0.53,0 0.99,0.42 0.99,0.99 0,0.57 -0.46,1.01 -0.99,1.01 -0.53,0 -0.97,-0.44 -0.97,-1.01 z"
       id="path42"
       style="fill:#ffffff" />
    <path
       d="m 174.69,160.14 0.81,-0.92 c 0.7,1.03 1.64,1.58 2.77,1.58 1.58,0 2.39,-0.94 2.39,-2.83 v -7.79 h -4.7 V 149 H 182 v 8.91 c 0,2.72 -1.29,4.06 -3.75,4.06 -1.45,0 -2.77,-0.66 -3.56,-1.84 z"
       id="path44"
       style="fill:#ffffff" />
    <path
       d="m 193.59,152.2 v 9.66 h -1.25 v -1.76 c -0.68,1.18 -1.93,1.86 -3.47,1.86 -2.46,0 -4.08,-1.38 -4.08,-4.15 v -5.6 h 1.3 v 5.47 c 0,2.06 1.07,3.1 2.9,3.1 2.02,0 3.29,-1.3 3.29,-3.51 v -5.07 h 1.3 z"
       id="path46"
       style="fill:#ffffff" />
    <path
       d="m 194.98,160.76 0.59,-1.03 c 0.77,0.61 2.08,1.08 3.44,1.08 1.84,0 2.59,-0.62 2.59,-1.58 0,-2.52 -6.26,-0.53 -6.26,-4.35 0,-1.58 1.36,-2.76 3.82,-2.76 1.25,0 2.61,0.35 3.42,0.9 l -0.57,1.05 c -0.84,-0.59 -1.86,-0.83 -2.85,-0.83 -1.75,0 -2.52,0.68 -2.52,1.6 0,2.61 6.26,0.64 6.26,4.35 0,1.67 -1.47,2.76 -3.99,2.76 -1.6,0 -3.14,-0.51 -3.93,-1.19 z"
       id="path48"
       style="fill:#ffffff" />
    <path
       d="m 209.47,161.28 c -0.51,0.46 -1.29,0.68 -2.04,0.68 -1.82,0 -2.83,-1.03 -2.83,-2.81 v -5.84 h -1.73 v -1.1 h 1.73 v -2.11 h 1.3 v 2.11 h 2.94 v 1.1 h -2.94 v 5.77 c 0,1.14 0.59,1.76 1.67,1.76 0.53,0 1.07,-0.17 1.43,-0.5 l 0.46,0.94 z"
       id="path50"
       style="fill:#ffffff" />
    <path
       d="m 213.95,155.43 c 0,-3.77 2.87,-6.54 6.74,-6.54 1.87,0 3.56,0.62 4.7,1.88 l -0.86,0.86 c -1.05,-1.07 -2.33,-1.53 -3.8,-1.53 -3.11,0 -5.44,2.28 -5.44,5.33 0,3.05 2.33,5.33 5.44,5.33 1.47,0 2.76,-0.46 3.8,-1.54 l 0.86,0.86 c -1.14,1.25 -2.83,1.89 -4.72,1.89 -3.86,0 -6.72,-2.77 -6.72,-6.54 z"
       id="path52"
       style="fill:#ffffff" />
    <path
       d="m 231.97,152.13 v 1.27 c -0.11,0 -0.22,-0.02 -0.31,-0.02 -2.02,0 -3.25,1.29 -3.25,3.56 v 4.92 h -1.3 v -9.66 h 1.25 v 1.89 c 0.61,-1.29 1.84,-1.96 3.62,-1.96 z"
       id="path54"
       style="fill:#ffffff" />
    <path
       d="m 241.72,157.44 h -8.08 c 0.15,2.02 1.69,3.36 3.8,3.36 1.18,0 2.22,-0.42 2.96,-1.27 l 0.74,0.84 c -0.86,1.03 -2.21,1.58 -3.73,1.58 -3.01,0 -5.07,-2.06 -5.07,-4.92 0,-2.86 2,-4.9 4.72,-4.9 2.72,0 4.69,2 4.69,4.9 0,0.11 -0.02,0.26 -0.02,0.4 z m -8.08,-0.97 h 6.85 c -0.17,-1.89 -1.54,-3.22 -3.44,-3.22 -1.9,0 -3.25,1.32 -3.42,3.22 z"
       id="path56"
       style="fill:#ffffff" />
    <path
       d="m 250.5,155.88 v 5.99 h -1.25 v -1.51 c -0.59,0.99 -1.73,1.6 -3.33,1.6 -2.19,0 -3.53,-1.14 -3.53,-2.81 0,-1.49 0.96,-2.74 3.73,-2.74 h 3.07 v -0.59 c 0,-1.65 -0.94,-2.55 -2.74,-2.55 -1.25,0 -2.42,0.44 -3.21,1.14 l -0.59,-0.97 c 0.97,-0.83 2.41,-1.3 3.93,-1.3 2.5,0 3.91,1.25 3.91,3.75 z m -1.3,3.09 v -1.58 h -3.03 c -1.87,0 -2.48,0.73 -2.48,1.73 0,1.12 0.9,1.82 2.44,1.82 1.54,0 2.55,-0.7 3.07,-1.97 z"
       id="path58"
       style="fill:#ffffff" />
    <path
       d="m 258.21,161.28 c -0.51,0.46 -1.29,0.68 -2.04,0.68 -1.82,0 -2.83,-1.03 -2.83,-2.81 v -5.84 h -1.73 v -1.1 h 1.73 v -2.11 h 1.3 v 2.11 h 2.94 v 1.1 h -2.94 v 5.77 c 0,1.14 0.59,1.76 1.67,1.76 0.53,0 1.07,-0.17 1.43,-0.5 l 0.46,0.94 z"
       id="path60"
       style="fill:#ffffff" />
    <path
       d="m 267.73,157.44 h -8.08 c 0.15,2.02 1.69,3.36 3.8,3.36 1.18,0 2.22,-0.42 2.96,-1.27 l 0.73,0.84 c -0.86,1.03 -2.2,1.58 -3.73,1.58 -3.01,0 -5.07,-2.06 -5.07,-4.92 0,-2.86 2,-4.9 4.72,-4.9 2.72,0 4.68,2 4.68,4.9 0,0.11 -0.02,0.26 -0.02,0.4 z m -8.08,-0.97 h 6.85 c -0.17,-1.89 -1.54,-3.22 -3.44,-3.22 -1.9,0 -3.25,1.32 -3.42,3.22 z"
       id="path62"
       style="fill:#ffffff" />
    <path
       d="m 269.08,161 c 0,-0.53 0.42,-0.94 0.97,-0.94 0.55,0 0.96,0.4 0.96,0.94 0,0.54 -0.4,0.96 -0.96,0.96 -0.56,0 -0.97,-0.44 -0.97,-0.96 z m 0.2,-12 h 1.54 l -0.28,9 h -1.01 l -0.26,-9 z"
       id="path64"
       style="fill:#ffffff" />
  </g>
</svg>
