<?xml version="1.0" encoding="UTF-8" standalone="no"?>
<svg
   xmlns:dc="http://purl.org/dc/elements/1.1/"
   xmlns:cc="http://creativecommons.org/ns#"
   xmlns:rdf="http://www.w3.org/1999/02/22-rdf-syntax-ns#"
   xmlns:svg="http://www.w3.org/2000/svg"
   xmlns="http://www.w3.org/2000/svg"
   xmlns:sodipodi="http://sodipodi.sourceforge.net/DTD/sodipodi-0.dtd"
   xmlns:inkscape="http://www.inkscape.org/namespaces/inkscape"
   id="Layer_1"
   data-name="Layer 1"
   viewBox="0 0 45.000002 24.012498"
   version="1.1"
   sodipodi:docname="default.svg"
   inkscape:export-filename="D:\OneDrive\NOSi\Imagens\logos\logoIGRPWEB_v4.0 cinzento.png"
   inkscape:export-xdpi="96"
   inkscape:export-ydpi="96"
   inkscape:version="0.92.3 (2405546, 2018-03-11)"
   width="45"
   height="24.012499">
  <metadata
     id="metadata33">
    <rdf:RDF>
      <cc:Work
         rdf:about="">
        <dc:format>image/svg+xml</dc:format>
        <dc:type
           rdf:resource="http://purl.org/dc/dcmitype/StillImage" />
        <dc:title>logoIGRPWEB_v4.0</dc:title>
      </cc:Work>
    </rdf:RDF>
  </metadata>
  <sodipodi:namedview
     pagecolor="#ffffff"
     bordercolor="#666666"
     borderopacity="1"
     objecttolerance="10"
     gridtolerance="10"
     guidetolerance="10"
     inkscape:pageopacity="0"
     inkscape:pageshadow="2"
     inkscape:window-width="1920"
     inkscape:window-height="1001"
     id="namedview31"
     showgrid="false"
     inkscape:zoom="1.0395266"
     inkscape:cx="-55.280722"
     inkscape:cy="87.009997"
     inkscape:window-x="-9"
     inkscape:window-y="-9"
     inkscape:window-maximized="1"
     inkscape:current-layer="Layer_1"
     fit-margin-top="0"
     fit-margin-left="0"
     fit-margin-right="0"
     fit-margin-bottom="0" />
  <defs
     id="defs4">
    <style
       id="style2">.cls-1{fill:#c4ccd4;}.cls-1,.cls-2{opacity:0.8;}.cls-2{fill:#3aa0d9;}.cls-3{fill:#231f20;}</style>
  </defs>
  <title
     id="title6">logoIGRPWEB_v4.0</title>
  <path
     class="cls-1"
     d="m 3.8468011,13.347498 h 9.0947079 a 0.9410697,0.9410697 0 0 1 0.760307,0.38775 l 7.451283,10.277251 H 9.7402155 L 3.0864941,14.836376 a 0.93831,0.93831 0 0 1 0.760307,-1.488878 z"
     id="path8"
     style="opacity:0.8;fill:#333333;fill-opacity:1;stroke-width:0.13798676"
     inkscape:connector-curvature="0" />
  <path
     class="cls-2"
     d="m 27.046516,13.347498 h -9.09333 a 0.9410697,0.9410697 0 0 0 -0.760308,0.38775 L 9.7415955,24.012499 H 21.154481 l 6.653721,-9.176123 a 0.93831,0.93831 0 0 0 -0.761686,-1.488878 z"
     id="path10"
     style="opacity:0.8;fill:#333333;fill-opacity:0.8;stroke-width:0.13798676"
     inkscape:connector-curvature="0" />
  <path
     class="cls-1"
     d="m 17.953186,13.347498 h 9.09333 a 0.9410697,0.9410697 0 0 1 0.760306,0.38775 l 7.451287,10.277251 H 23.845222 l -6.653721,-9.176123 a 0.93831,0.93831 0 0 1 0.761685,-1.488878 z"
     id="path12"
     style="opacity:0.8;fill:#333333;fill-opacity:0.8;stroke-width:0.13798676"
     inkscape:connector-curvature="0" />
  <path
     class="cls-2"
     d="m 41.151522,13.347498 h -9.094709 a 0.9410697,0.9410697 0 0 0 -0.760306,0.38775 l -7.451285,10.277251 h 11.412887 l 6.653718,-9.176123 a 0.93831,0.93831 0 0 0 -0.760305,-1.488878 z"
     id="path14"
     style="opacity:0.8;fill:#333333;fill-opacity:0.8;stroke-width:0.13798676"
     inkscape:connector-curvature="0" />
  <path
     class="cls-3"
     d="M 0.64964785,3.9126296e-5 A 0.65681696,0.65681696 0 1 1 0.19153178,0.19322423 0.63197936,0.63197936 0 0 1 0.64964785,3.9126296e-5 Z M 0.25500568,2.5445115 H 1.0498095 v 6.179056 H 0.25500568 Z"
     id="path16"
     inkscape:connector-curvature="0"
     style="fill:#231f20;stroke-width:0.13798676" />
  <path
     class="cls-3"
     d="m 8.0305596,2.5445115 h 0.7948043 v 4.923368 q 0,1.302608 -0.227679,1.90284 A 2.4713428,2.4713428 0 0 1 7.5131098,10.68298 3.5683375,3.5683375 0 0 1 5.6558074,11.142468 4.2375735,4.2375735 0 0 1 4.2276446,10.917558 2.8411472,2.8411472 0 0 1 3.1968836,10.31455 3.6028343,3.6028343 0 0 1 2.4641738,9.2106625 H 3.326591 a 2.2740219,2.2740219 0 0 0 0.9093328,0.9079505 2.9197998,2.9197998 0 0 0 1.3798675,0.29529 2.864605,2.864605 0 0 0 1.3729684,-0.30219 1.8614412,1.8614412 0 0 0 0.7989431,-0.7616935 q 0.2373375,-0.458107 0.2387175,-1.480597 v -0.317363 a 3.0219101,3.0219101 0 0 1 -1.0969948,0.872078 3.2564876,3.2564876 0 0 1 -2.9791343,-0.120105 2.9984524,2.9984524 0 0 1 -1.1604687,-1.138395 3.1102216,3.1102216 0 0 1 -0.4139604,-1.57305 3.2137116,3.2137116 0 0 1 3.1943937,-3.202688 2.9460173,2.9460173 0 0 1 1.3025949,0.282885 3.5710973,3.5710973 0 0 1 1.1577089,0.945202 z m -2.3457748,0.60714 a 2.5113589,2.5113589 0 0 0 -1.2556796,0.32703 2.3664729,2.3664729 0 0 0 -0.907953,0.902438 2.4837616,2.4837616 0 0 0 -0.3297881,1.241888 2.2491843,2.2491843 0 0 0 0.687174,1.686195 q 0.6816546,0.66372 1.7662306,0.6651 c 0.7313297,0 1.3177735,-0.219405 1.763471,-0.65958 0.4456971,-0.440183 0.6678554,-1.01697 0.6678554,-1.731743 A 2.5044595,2.5044595 0 0 0 7.768385,4.3410995 2.2395249,2.2395249 0 0 0 6.9004482,3.4745495 2.4147685,2.4147685 0 0 0 5.6847848,3.1516515 Z"
     id="path18"
     inkscape:connector-curvature="0"
     style="fill:#231f20;stroke-width:0.13798676" />
  <path
     class="cls-3"
     d="m 10.22593,2.5445115 h 0.812741 v 0.902438 a 2.8604655,2.8604655 0 0 1 0.767207,-0.797558 1.5178544,1.5178544 0 0 1 0.840339,-0.26355 1.4557602,1.4557602 0 0 1 0.703732,0.20973 l -0.41396,0.67062 a 1.1204525,1.1204525 0 0 0 -0.413959,-0.10896 1.1452901,1.1452901 0 0 0 -0.765828,0.32703 2.0587626,2.0587626 0 0 0 -0.562985,1.014203 q -0.147647,0.528488 -0.147647,2.134658 v 2.090497 h -0.81964 z"
     id="path20"
     inkscape:connector-curvature="0"
     style="fill:#231f20;stroke-width:0.13798676" />
  <path
     class="cls-3"
     d="m 14.038502,2.5445115 h 0.794808 v 1.135628 a 3.2068124,3.2068124 0 0 1 1.084575,-0.96591 2.886683,2.886683 0 0 1 1.36745,-0.322875 3.0522672,3.0522672 0 0 1 2.251939,0.947962 3.1336793,3.1336793 0 0 1 0.93555,2.283691 3.1930136,3.1930136 0 0 1 -0.92727,2.314035 3.1254002,3.1254002 0 0 1 -3.594556,0.6444 3.428971,3.428971 0 0 1 -1.117688,-0.914865 V 10.98931 h -0.794808 z m 3.180595,0.60714 a 2.3374959,2.3374959 0 0 0 -1.737251,0.7203 2.4699631,2.4699631 0 0 0 -0.705114,1.793828 2.5417162,2.5417162 0 0 0 0.314607,1.26396 2.2947198,2.2947198 0 0 0 0.901057,0.891398 2.4837616,2.4837616 0 0 0 1.24188,0.328395 2.3457747,2.3457747 0 0 0 1.204624,-0.331163 2.4589241,2.4589241 0 0 0 0.898296,-0.92727 2.5085992,2.5085992 0 0 0 0,-2.496172 2.3982099,2.3982099 0 0 0 -2.116719,-1.241888 z"
     id="path22"
     inkscape:connector-curvature="0"
     style="fill:#231f20;stroke-width:0.13798676" />
  <path
     class="cls-3"
     d="m 21.171039,2.5445115 h 1.517856 l 1.241879,3.515918 1.33571,-3.515918 h 0.928654 l 1.313635,3.475891 1.241879,-3.475891 h 1.527513 l -2.251943,6.179056 h -0.982468 l -1.317773,-3.521415 -1.357787,3.521415 h -0.96591 z"
     id="path24"
     inkscape:connector-curvature="0"
     style="fill:#231f20;stroke-width:0.13798676" />
  <path
     class="cls-3"
     d="m 37.348607,6.0825025 h -4.981322 a 1.6558411,1.6558411 0 0 0 0.576786,1.047315 1.8103863,1.8103863 0 0 0 1.196342,0.389122 2.0698013,2.0698013 0 0 0 1.493017,-0.60714 l 1.306737,0.61266 a 3.0784848,3.0784848 0 0 1 -1.170128,1.025243 3.6469901,3.6469901 0 0 1 -1.618585,0.33255 q -1.454379,0 -2.367852,-0.917618 a 3.1185008,3.1185008 0 0 1 -0.914853,-2.296095 3.2261307,3.2261307 0 0 1 0.910713,-2.345783 3.0605465,3.0605465 0 0 1 2.286442,-0.93417 q 1.459897,0 2.37475,0.93417 0.914853,0.934171 0.913473,2.467216 z m -1.55097,-1.22118 a 1.550971,1.550971 0 0 0 -0.605763,-0.840338 1.7579512,1.7579512 0 0 0 -1.0487,-0.324285 1.8545423,1.8545423 0 0 0 -1.138389,0.36429 2.0270253,2.0270253 0 0 0 -0.568506,0.800333 z"
     id="path26"
     inkscape:connector-curvature="0"
     style="fill:#231f20;stroke-width:0.13798676" />
  <path
     class="cls-3"
     d="M 40.14284,0.15873173 V 3.2247995 a 2.929459,2.929459 0 0 1 0.909332,-0.630608 2.6217485,2.6217485 0 0 1 1.044558,-0.20973 2.7017808,2.7017808 0 0 1 2.056004,0.91347 q 0.847239,0.914851 0.845859,2.345768 a 3.2330295,3.2330295 0 0 1 -0.874835,2.308523 2.7514559,2.7514559 0 0 1 -2.069802,0.928657 2.5693133,2.5693133 0 0 1 -0.993507,-0.190432 3.0219101,3.0219101 0 0 1 -0.914851,-0.62094 v 0.65268 H 38.604286 V 0.15873173 Z m 1.629622,3.65802777 a 1.6227244,1.6227244 0 0 0 -1.215663,0.499515 1.8034868,1.8034868 0 0 0 -0.481573,1.306733 1.8545423,1.8545423 0 0 0 0.481573,1.331565 1.6103056,1.6103056 0 0 0 1.215663,0.507795 1.5813283,1.5813283 0 0 0 1.196347,-0.516068 2.0256458,2.0256458 0 0 0 0.0082,-2.621752 1.585468,1.585468 0 0 0 -1.204626,-0.507788 z"
     id="path28"
     inkscape:connector-curvature="0"
     style="fill:#231f20;stroke-width:0.13798676" />
</svg>
