<?xml version="1.0" encoding="UTF-8" standalone="no"?>
<svg
   xmlns:dc="http://purl.org/dc/elements/1.1/"
   xmlns:cc="http://creativecommons.org/ns#"
   xmlns:rdf="http://www.w3.org/1999/02/22-rdf-syntax-ns#"
   xmlns:svg="http://www.w3.org/2000/svg"
   xmlns="http://www.w3.org/2000/svg"
   xmlns:sodipodi="http://sodipodi.sourceforge.net/DTD/sodipodi-0.dtd"
   xmlns:inkscape="http://www.inkscape.org/namespaces/inkscape"
   id="Layer_1"
   data-name="Layer 1"
   viewBox="0 0 45.117998 24.075458"
   version="1.1"
   sodipodi:docname="studioSoLogo.svg"
   inkscape:version="0.92.3 (2405546, 2018-03-11)"
   width="45.117996"
   height="24.075459">
  <metadata
     id="metadata33">
    <rdf:RDF>
      <cc:Work
         rdf:about="">
        <dc:format>image/svg+xml</dc:format>
        <dc:type
           rdf:resource="http://purl.org/dc/dcmitype/StillImage" />
        <dc:title>logoIGRPWEB_v4.0</dc:title>
      </cc:Work>
    </rdf:RDF>
  </metadata>
  <sodipodi:namedview
     pagecolor="#ffffff"
     bordercolor="#666666"
     borderopacity="1"
     objecttolerance="10"
     gridtolerance="10"
     guidetolerance="10"
     inkscape:pageopacity="0"
     inkscape:pageshadow="2"
     inkscape:window-width="1920"
     inkscape:window-height="1001"
     id="namedview31"
     showgrid="false"
     inkscape:zoom="1.0395266"
     inkscape:cx="-54.834583"
     inkscape:cy="87.009998"
     inkscape:window-x="-9"
     inkscape:window-y="-9"
     inkscape:window-maximized="1"
     inkscape:current-layer="Layer_1"
     fit-margin-top="0"
     fit-margin-left="0"
     fit-margin-right="0"
     fit-margin-bottom="0" />
  <defs
     id="defs4">
    <style
       id="style2">.cls-1{fill:#c4ccd4;}.cls-1,.cls-2{opacity:0.8;}.cls-2{fill:#3aa0d9;}.cls-3{fill:#231f20;}</style>
  </defs>
  <title
     id="title6">logoIGRPWEB_v4.0</title>
  <path
     class="cls-1"
     d="m 3.8568897,13.382499 h 9.1185543 a 0.94353733,0.94353733 0 0 1 0.762301,0.38876 l 7.470824,10.3042 H 9.7657577 L 3.094589,14.875279 a 0.94077036,0.94077036 0 0 1 0.7623007,-1.49278 z"
     id="path8"
     inkscape:connector-curvature="0"
     style="opacity:0.8;fill:#c4ccd4;stroke-width:0.13834858" />
  <path
     class="cls-2"
     d="m 27.117437,13.382499 h -9.117172 a 0.94353733,0.94353733 0 0 0 -0.762301,0.38876 l -7.4708229,10.3042 H 21.209952 l 6.671169,-9.20018 a 0.94077036,0.94077036 0 0 0 -0.763684,-1.49278 z"
     id="path10"
     style="opacity:0.8;fill:#008900;fill-opacity:1;stroke-width:0.13834858"
     inkscape:connector-curvature="0" />
  <path
     class="cls-1"
     d="m 18.000265,13.382499 h 9.117172 a 0.94353733,0.94353733 0 0 1 0.7623,0.38876 l 7.470824,10.3042 H 23.907749 l -6.671168,-9.20018 a 0.94077036,0.94077036 0 0 1 0.763684,-1.49278 z"
     id="path12"
     inkscape:connector-curvature="0"
     style="opacity:0.8;fill:#c4ccd4;stroke-width:0.13834858" />
  <path
     class="cls-2"
     d="m 41.259429,13.382499 h -9.118555 a 0.94353733,0.94353733 0 0 0 -0.762301,0.38876 l -7.470824,10.3042 h 11.442812 l 6.671168,-9.20018 a 0.94077036,0.94077036 0 0 0 -0.7623,-1.49278 z"
     id="path14"
     style="opacity:0.8;fill:#008900;fill-opacity:1;stroke-width:0.13834858"
     inkscape:connector-curvature="0" />
  <path
     class="cls-3"
     d="M 0.65135299,3.9210927e-5 A 0.65853925,0.65853925 0 1 1 0.19203569,0.19372921 0.63363651,0.63363651 0 0 1 0.65135299,3.9210927e-5 Z M 0.25567604,2.5511892 H 1.0525639 v 6.19525 H 0.25567604 Z"
     id="path16"
     inkscape:connector-curvature="0"
     style="fill:#231f20;stroke-width:0.13834858" />
  <path
     class="cls-3"
     d="m 8.0516187,2.5511892 h 0.7968878 v 4.93627 q 0,1.30602 -0.2282751,1.90783 a 2.4778231,2.4778231 0 0 1 -1.0874199,1.3156998 3.5776943,3.5776943 0 0 1 -1.8621719,0.4607 4.248685,4.248685 0 0 1 -1.4319078,-0.22551 2.8485973,2.8485973 0 0 1 -1.0334639,-0.60458 3.6122815,3.6122815 0 0 1 -0.734631,-1.1067898 h 0.8646786 a 2.2799846,2.2799846 0 0 0 0.9117172,0.9103298 2.927456,2.927456 0 0 0 1.3834858,0.29607 2.8721166,2.8721166 0 0 0 1.3765684,-0.30299 1.8663224,1.8663224 0 0 0 0.8010383,-0.7636798 q 0.2379596,-0.45932 0.2393431,-1.48448 v -0.3182 a 3.029834,3.029834 0 0 1 -1.0998713,0.87436 3.2650265,3.2650265 0 0 1 -2.9869459,-0.12036 3.0063147,3.0063147 0 0 1 -1.1635116,-1.14138 3.1183771,3.1183771 0 0 1 -0.4150457,-1.57717 3.2221385,3.2221385 0 0 1 3.2027697,-3.21107 2.9537422,2.9537422 0 0 1 1.3060106,0.28361 3.5804613,3.5804613 0 0 1 1.1607446,0.94769 z m -2.3519259,0.60873 a 2.5179442,2.5179442 0 0 0 -1.2589721,0.32789 2.3726782,2.3726782 0 0 0 -0.9103337,0.9048 2.4902745,2.4902745 0 0 0 -0.3306531,1.24513 2.2550819,2.2550819 0 0 0 0.688976,1.69062 q 0.683442,0.66546 1.7708618,0.66684 c 0.7332475,0 1.321229,-0.21997 1.7680949,-0.6613 0.4468659,-0.44133 0.6696071,-1.01963 0.6696071,-1.73628 a 2.5110268,2.5110268 0 0 0 -0.3085173,-1.24513 2.2453975,2.2453975 0 0 0 -0.8702126,-0.86883 2.4211002,2.4211002 0 0 0 -1.218851,-0.32374 z"
     id="path18"
     inkscape:connector-curvature="0"
     style="fill:#231f20;stroke-width:0.13834858" />
  <path
     class="cls-3"
     d="m 10.252744,2.5511892 h 0.814874 v 0.9048 a 2.8679661,2.8679661 0 0 1 0.769218,-0.79966 1.5218344,1.5218344 0 0 1 0.842543,-0.26424 1.4595775,1.4595775 0 0 1 0.705577,0.21029 l -0.415045,0.67237 a 1.1233905,1.1233905 0 0 0 -0.415046,-0.10929 1.1482932,1.1482932 0 0 0 -0.767835,0.32788 2.0641609,2.0641609 0 0 0 -0.564462,1.01686 q -0.148033,0.52988 -0.148033,2.14026 v 2.09598 h -0.821791 z"
     id="path20"
     inkscape:connector-curvature="0"
     style="fill:#231f20;stroke-width:0.13834858" />
  <path
     class="cls-3"
     d="m 14.075316,2.5511892 h 0.796888 v 1.13861 a 3.2152211,3.2152211 0 0 1 1.087419,-0.96844 2.8942523,2.8942523 0 0 1 1.371035,-0.32374 3.0602706,3.0602706 0 0 1 2.257849,0.95046 3.1418963,3.1418963 0 0 1 0.938003,2.28966 3.2013862,3.2013862 0 0 1 -0.929702,2.32011 3.1335954,3.1335954 0 0 1 -3.603981,0.64609 3.4379623,3.4379623 0 0 1 -1.120623,-0.91725 v 3.3314298 h -0.796888 z m 3.188935,0.60873 a 2.343625,2.343625 0 0 0 -1.741809,0.72218 2.4764396,2.4764396 0 0 0 -0.706961,1.79853 2.5483809,2.5483809 0 0 0 0.315434,1.26728 2.3007369,2.3007369 0 0 0 0.903417,0.89373 2.4902745,2.4902745 0 0 0 1.245137,0.32927 2.3519259,2.3519259 0 0 0 1.207783,-0.33204 2.4653717,2.4653717 0 0 0 0.900649,-0.9297 2.5151772,2.5151772 0 0 0 0,-2.50273 2.4044984,2.4044984 0 0 0 -2.122267,-1.24514 z"
     id="path22"
     inkscape:connector-curvature="0"
     style="fill:#231f20;stroke-width:0.13834858" />
  <path
     class="cls-3"
     d="m 21.226554,2.5511892 h 1.521834 l 1.245138,3.52512 1.339214,-3.52512 h 0.931086 l 1.317078,3.485 1.245138,-3.485 h 1.531518 l -2.257848,6.19525 H 27.11467 l -1.321229,-3.53066 -1.36135,3.53066 h -0.96844 z"
     id="path24"
     inkscape:connector-curvature="0"
     style="fill:#231f20;stroke-width:0.13834858" />
  <path
     class="cls-3"
     d="m 37.446542,6.0984492 h -4.994384 a 1.660183,1.660183 0 0 0 0.578297,1.05006 1.8151334,1.8151334 0 0 0 1.199482,0.39014 2.0752287,2.0752287 0 0 0 1.496932,-0.60873 l 1.310161,0.61427 a 3.0865569,3.0865569 0 0 1 -1.173196,1.02793 3.656553,3.656553 0 0 1 -1.622829,0.33342 q -1.458194,0 -2.374062,-0.92002 a 3.126678,3.126678 0 0 1 -0.917251,-2.30212 3.2345899,3.2345899 0 0 1 0.913101,-2.35193 3.0685716,3.0685716 0 0 1 2.292436,-0.93662 q 1.463728,0 2.380979,0.93662 0.917251,0.93662 0.915868,2.47368 z m -1.555038,-1.22439 a 1.5550381,1.5550381 0 0 0 -0.607351,-0.84254 1.7625609,1.7625609 0 0 0 -1.051449,-0.32512 1.859405,1.859405 0 0 0 -1.141376,0.36524 2.0323407,2.0323407 0 0 0 -0.569996,0.80242 z"
     id="path26"
     inkscape:connector-curvature="0"
     style="fill:#231f20;stroke-width:0.13834858" />
  <path
     class="cls-3"
     d="M 40.248101,0.15913921 V 3.2332492 a 2.9371404,2.9371404 0 0 1 0.911717,-0.63226 2.6286231,2.6286231 0 0 1 1.047298,-0.21029 2.7088652,2.7088652 0 0 1 2.061394,0.91587 q 0.849461,0.91725 0.848077,2.35193 a 3.2415073,3.2415073 0 0 1 -0.87713,2.31457 2.7586707,2.7586707 0 0 1 -2.075229,0.93108 2.5760506,2.5760506 0 0 1 -0.996109,-0.19092 3.029834,3.029834 0 0 1 -0.917251,-0.62257 v 0.65439 H 38.705514 V 0.15913921 Z m 1.633896,3.66761999 a 1.6269793,1.6269793 0 0 0 -1.218851,0.50082 1.808216,1.808216 0 0 0 -0.482836,1.31016 1.859405,1.859405 0 0 0 0.482836,1.33507 1.614528,1.614528 0 0 0 1.218851,0.50912 1.5854748,1.5854748 0 0 0 1.199483,-0.51742 2.0309572,2.0309572 0 0 0 0.0083,-2.62863 1.5896252,1.5896252 0 0 0 -1.207783,-0.50912 z"
     id="path28"
     inkscape:connector-curvature="0"
     style="fill:#231f20;stroke-width:0.13834858" />
</svg>
