<?xml version="1.0" encoding="iso-8859-1"?>
<!-- Generator: Adobe Illustrator 18.1.1, SVG Export Plug-In . SVG Version: 6.00 Build 0)  -->
<svg version="1.1" id="Capa_1" xmlns="http://www.w3.org/2000/svg" xmlns:xlink="http://www.w3.org/1999/xlink" x="0px" y="0px"
	 viewBox="0 0 9 9" style="enable-background:new 0 0 9 9;" xml:space="preserve">
<g>
	<g>
		<path style="fill:#fff;" d="M8.5,4H5V0.5C5,0.224,4.775,0,4.5,0C4.224,0,4,0.224,4,0.5V4H0.5C0.224,4,0,4.224,0,4.5
			C0,4.775,0.224,5,0.5,5H4v3.5C4,8.775,4.224,9,4.5,9C4.775,9,5,8.775,5,8.5V5h3.5C8.775,5,9,4.775,9,4.5C9,4.224,8.775,4,8.5,4z"
			/>
	</g>
</g>
<g>
</g>
<g>
</g>
<g>
</g>
<g>
</g>
<g>
</g>
<g>
</g>
<g>
</g>
<g>
</g>
<g>
</g>
<g>
</g>
<g>
</g>
<g>
</g>
<g>
</g>
<g>
</g>
<g>
</g>
</svg>
