<?xml version="1.0" encoding="UTF-8" standalone="no"?>
<svg
   xmlns:dc="http://purl.org/dc/elements/1.1/"
   xmlns:cc="http://creativecommons.org/ns#"
   xmlns:rdf="http://www.w3.org/1999/02/22-rdf-syntax-ns#"
   xmlns:svg="http://www.w3.org/2000/svg"
   xmlns="http://www.w3.org/2000/svg"
   xmlns:sodipodi="http://sodipodi.sourceforge.net/DTD/sodipodi-0.dtd"
   xmlns:inkscape="http://www.inkscape.org/namespaces/inkscape"
   id="Layer_1"
   data-name="Layer 1"
   viewBox="0 0 274 135.46"
   version="1.1"
   sodipodi:docname="IGRP_Logo-05 - .svg"
   inkscape:version="0.92.1 r15371">
  <metadata
     id="metadata47">
    <rdf:RDF>
      <cc:Work
         rdf:about="">
        <dc:format>image/svg+xml</dc:format>
        <dc:type
           rdf:resource="http://purl.org/dc/dcmitype/StillImage" />
        <dc:title>IGRP_Logo</dc:title>
      </cc:Work>
    </rdf:RDF>
  </metadata>
  <sodipodi:namedview
     pagecolor="#ffffff"
     bordercolor="#666666"
     borderopacity="1"
     objecttolerance="10"
     gridtolerance="10"
     guidetolerance="10"
     inkscape:pageopacity="0"
     inkscape:pageshadow="2"
     inkscape:window-width="1920"
     inkscape:window-height="1001"
     id="namedview45"
     showgrid="false"
     inkscape:zoom="4.9489051"
     inkscape:cx="104.56788"
     inkscape:cy="46.638795"
     inkscape:window-x="-9"
     inkscape:window-y="-9"
     inkscape:window-maximized="1"
     inkscape:current-layer="Layer_1"
     inkscape:snap-grids="true"
     inkscape:pagecheckerboard="true" />
  <defs
     id="defs4">
    <style
       id="style2">.cls-1{fill:#c4ccd4;}.cls-1,.cls-2{opacity:0.8;}.cls-2{fill:#3aa0d9;}.cls-3{fill:#6d6e71;}</style>
  </defs>
  <title
     id="title6">IGRP_Logo</title>
  <polygon
     class="cls-1"
     points="51.07 5.19 4.67 44.48 4.67 94.14 51.07 52.12 51.07 5.19"
     id="polygon8" />
  <polygon
     class="cls-2"
     points="4.67 44.48 51.07 72.16 51.07 120.19 4.67 94.14 4.67 44.48"
     id="polygon10" />
  <polygon
     class="cls-2"
     points="54.33 14.37 99.1 44.48 99.1 90.88 54.33 64.02 54.33 14.37"
     id="polygon12" />
  <polygon
     class="cls-1"
     points="54.33 132.4 99.1 90.88 99.1 44.48 54.33 82.34 54.33 132.4"
     id="polygon14" />
  <path
     class="cls-3"
     d="M251.32,51.33c0-11.43-10.09-12.16-10.09-12.16H220.56V70.66h8.27V64h11.55C252.05,63.12,251.32,51.33,251.32,51.33Zm-13,6H229V45.86h9.48s4.74.12,4.62,6C243.05,51.81,243.78,56.56,238.31,57.29Z"
     id="path16" />
  <path
     class="cls-3"
     d="M213.33,49.75s1.15-9-8.7-10.58H180.92V70.66h8.88l.12-7.9h10.21s4.26.12,4.87,7.9h8.26s1.1-8.63-5.59-11.06C207.67,59.6,213.88,57.53,213.33,49.75ZM200,56.68H189.8V45.86h11.3s3.9.36,3.77,5.71A4.6,4.6,0,0,1,200,56.68Z"
     id="path18" />
  <path
     class="cls-3"
     d="M174.36,70.66H162.44a8.6,8.6,0,0,0,4-7.42h-8.16V56.68h16.05Z"
     id="path20" />
  <path
     class="cls-3"
     d="M152.59,70.66s-5.71-3.4-5.59-13.37c0,0-.37-10.95,10.21-12,0,0,6.93.24,8.39,6.32h8.15s-1.7-13.37-16.66-13.74c0,0-18.73-.24-18.85,21.52,0,0,.47,8.39,3.83,11.31Z"
     id="path22" />
  <rect
     class="cls-3"
     x="124.02"
     y="39.17"
     width="8.51"
     height="31.49"
     id="rect24" />
  <path
     class="cls-3"
     d="M137.61,83.35v2H126.38V92.3h9.77v2h-9.77v9.64h-1.85V83.35Z"
     id="path26" />
  <path
     class="cls-3"
     d="M141,89.16h1.85v2.25a8.58,8.58,0,0,1,1.79-1.85,3.45,3.45,0,0,1,2.07-.66l.43,0a2.07,2.07,0,0,1,.43.1v2.18a3,3,0,0,0-.93-.17,3.75,3.75,0,0,0-1.6.33,3.73,3.73,0,0,0-2,2.13,4.71,4.71,0,0,0-.24,1.5v8.92H141Z"
     id="path28" />
  <path
     class="cls-3"
     d="M150.65,93.12a3.93,3.93,0,0,1,.57-1.9,4.34,4.34,0,0,1,1.31-1.32,6.17,6.17,0,0,1,1.76-.76,8.11,8.11,0,0,1,1.94-.24,8.86,8.86,0,0,1,2.06.24,5.84,5.84,0,0,1,1.78.76,3.8,3.8,0,0,1,1.24,1.34,4,4,0,0,1,.46,2v7.8a1.28,1.28,0,0,0,.35.85,1.09,1.09,0,0,0,.87.4l.32,0a1.38,1.38,0,0,0,.25,0V104a4.36,4.36,0,0,1-1.36.23,1.83,1.83,0,0,1-.84-.21,2.29,2.29,0,0,1-.73-.59,3.21,3.21,0,0,1-.51-.91,3.32,3.32,0,0,1-.2-1.16,7.46,7.46,0,0,1-2.75,2.3,7.07,7.07,0,0,1-2.73.57,4.48,4.48,0,0,1-1.65-.29,3.89,3.89,0,0,1-2.21-2.15,4.24,4.24,0,0,1-.33-1.71,2.82,2.82,0,0,1,.71-2,5.81,5.81,0,0,1,1.8-1.27,14.92,14.92,0,0,1,2.33-.85c.82-.24,1.6-.47,2.32-.7a7.22,7.22,0,0,0,1.8-.81,1.36,1.36,0,0,0,.71-1.19,2,2,0,0,0-1-1.86,5.47,5.47,0,0,0-2.77-.58,5.11,5.11,0,0,0-2.39.53,2.19,2.19,0,0,0-1.18,1.78Zm9.27,2.45a2.68,2.68,0,0,1-1.14.8,14.35,14.35,0,0,1-1.61.57c-.59.16-1.18.32-1.79.47a11.37,11.37,0,0,0-1.65.57,4,4,0,0,0-1.2.79,1.55,1.55,0,0,0-.46,1.15,2.34,2.34,0,0,0,.23,1.11,2,2,0,0,0,.62.73,3.08,3.08,0,0,0,.88.41,3.54,3.54,0,0,0,1,.13,5.22,5.22,0,0,0,2.78-.83,7.25,7.25,0,0,0,2.37-2.5Z"
     id="path30" />
  <path
     class="cls-3"
     d="M167.05,89.16h1.85v2.31a5.89,5.89,0,0,1,2.45-2.06,6.44,6.44,0,0,1,2.34-.51,3.58,3.58,0,0,1,2,.64,5.78,5.78,0,0,1,1.76,2,6,6,0,0,1,2.45-2.15,6.4,6.4,0,0,1,2.47-.56,4.69,4.69,0,0,1,1.82.35,4.35,4.35,0,0,1,1.42.94,4.3,4.3,0,0,1,.92,1.42,4.74,4.74,0,0,1,.33,1.78v10.57H185V94a3.58,3.58,0,0,0-.28-1.53,2.62,2.62,0,0,0-.71-1,2.46,2.46,0,0,0-1-.51,4.15,4.15,0,0,0-1.09-.15,3.74,3.74,0,0,0-1.42.3,4.39,4.39,0,0,0-1.3.84,4.21,4.21,0,0,0-.94,1.29,3.61,3.61,0,0,0-.36,1.6v9.08h-1.85V94a3.73,3.73,0,0,0-.28-1.53,2.85,2.85,0,0,0-.71-1,2.62,2.62,0,0,0-.94-.51,3.54,3.54,0,0,0-1-.15,3.65,3.65,0,0,0-1.68.4,4.75,4.75,0,0,0-1.36,1,5.07,5.07,0,0,0-.89,1.36,3.43,3.43,0,0,0-.33,1.4v9h-1.85Z"
     id="path32" />
  <path
     class="cls-3"
     d="M192.41,97a6.32,6.32,0,0,0,.45,2,6,6,0,0,0,1,1.71,4.88,4.88,0,0,0,1.43,1.21,3.59,3.59,0,0,0,1.79.46,4.13,4.13,0,0,0,4.35-2.94h1.69a6.59,6.59,0,0,1-.85,2.07,5.56,5.56,0,0,1-1.38,1.51,6.08,6.08,0,0,1-1.78.94,6.3,6.3,0,0,1-2,.33,5.74,5.74,0,0,1-2.74-.64,6.42,6.42,0,0,1-2.08-1.72,7.68,7.68,0,0,1-1.33-2.5,10.1,10.1,0,0,1-.46-3,8.88,8.88,0,0,1,.46-2.83,7.14,7.14,0,0,1,1.33-2.37,6.39,6.39,0,0,1,2.06-1.61A5.89,5.89,0,0,1,197,88.9a6.29,6.29,0,0,1,2.64.54,5.71,5.71,0,0,1,2,1.5A6.83,6.83,0,0,1,203,93.22a8.76,8.76,0,0,1,.44,2.84V97Zm4.49-6.14a4,4,0,0,0-1.72.38,4.71,4.71,0,0,0-1.38,1,4.81,4.81,0,0,0-1,1.42,4.92,4.92,0,0,0-.43,1.64h9.08a5,5,0,0,0-.36-1.74,4.24,4.24,0,0,0-2.36-2.34A4.94,4.94,0,0,0,196.9,90.81Z"
     id="path34" />
  <path
     class="cls-3"
     d="M214.63,91.44,211,103.92h-2l-4.22-14.76h1.88L210,101.51l3.54-12.35h2.08l3.53,12.35c.26-1,.53-1.94.81-3s.55-2.11.84-3.19.57-2.14.86-3.18.56-2,.82-3h1.88l-4.22,14.76h-2Z"
     id="path36" />
  <path
     class="cls-3"
     d="M226.41,96.56a10.27,10.27,0,0,1,.43-3,7.43,7.43,0,0,1,1.26-2.42,5.92,5.92,0,0,1,2-1.65,6,6,0,0,1,2.79-.61,6.14,6.14,0,0,1,2.8.61,6,6,0,0,1,2.07,1.65,7.48,7.48,0,0,1,1.29,2.42,10.28,10.28,0,0,1,0,6,7.48,7.48,0,0,1-1.29,2.42,5.94,5.94,0,0,1-2.07,1.64,6.4,6.4,0,0,1-2.8.59,6.3,6.3,0,0,1-2.79-.59,5.89,5.89,0,0,1-2-1.64,7.43,7.43,0,0,1-1.26-2.42A10.25,10.25,0,0,1,226.41,96.56Zm1.82,0a7.27,7.27,0,0,0,.33,2.22,6,6,0,0,0,.92,1.82,4.33,4.33,0,0,0,1.47,1.22,4.52,4.52,0,0,0,3.93,0,4.4,4.4,0,0,0,1.49-1.22,5.61,5.61,0,0,0,.94-1.82,7.67,7.67,0,0,0,0-4.45,5.61,5.61,0,0,0-.94-1.82,4.58,4.58,0,0,0-1.49-1.24,4.43,4.43,0,0,0-3.93,0,4.51,4.51,0,0,0-1.47,1.24,6,6,0,0,0-.92,1.82A7.29,7.29,0,0,0,228.23,96.56Z"
     id="path38" />
  <path
     class="cls-3"
     d="M243,89.16h1.84v2.25a8.84,8.84,0,0,1,1.8-1.85,3.45,3.45,0,0,1,2.07-.66l.43,0a2.07,2.07,0,0,1,.43.1v2.18a3,3,0,0,0-.93-.17,3.75,3.75,0,0,0-1.6.33,3.64,3.64,0,0,0-1.95,2.13,4.72,4.72,0,0,0-.25,1.5v8.92H243Z"
     id="path40" />
  <path
     class="cls-3"
     d="M258.31,94.58l5.51,9.34h-2.08L257,96l-3,2.91v5h-1.85V83.25H254v13l7.36-7.16h2.37Z"
     id="path42" />
  <path
     style="fill:#ffffff;stroke-width:0.4041298"
     d="m 141.67746,70.061419 c -0.93038,-1.028194 -2.15343,-3.989033 -2.69943,-6.534948 -1.01949,-4.753708 -0.15273,-11.673471 1.98774,-15.869142 3.21327,-6.298526 11.68517,-10.519015 18.76139,-9.346449 6.43118,1.065681 11.12296,4.922035 13.14748,10.806418 l 0.76238,2.215875 h -3.97051 -3.9705 l -0.50038,-1.208026 c -0.27521,-0.664414 -1.19369,-1.834392 -2.04107,-2.59995 -3.80492,-3.437518 -9.84456,-2.800888 -13.4561,1.41839 -2.11096,2.466179 -2.82009,5.181713 -2.61724,10.022409 0.17375,4.146112 1.18371,7.127038 3.39852,10.030804 l 1.0148,1.330473 -3.15257,0.0044 c -1.73391,0.0025 -3.79119,0.110135 -4.57172,0.239308 -1.07306,0.177586 -1.58342,0.05331 -2.09279,-0.50961 z"
     id="path49"
     inkscape:connector-curvature="0" />
  <path
     style="fill:#ffffff;stroke-width:0.4041298"
     d="M 124.37671,54.768276 V 39.209279 h 4.0413 4.0413 v 15.558997 15.558997 h -4.0413 -4.0413 z"
     id="path51"
     inkscape:connector-curvature="0" />
  <path
     style="fill:#ffffff;stroke-width:0.4041298"
     d="m 164.84231,68.556233 c 0.78871,-1.118955 1.32579,-2.458137 1.45868,-3.637168 l 0.21034,-1.866128 h -4.09386 -4.09385 V 60.021963 56.99099 h 7.88053 7.88053 v 6.668142 6.668141 h -5.24536 -5.24536 z"
     id="path53"
     inkscape:connector-curvature="0" />
  <path
     style="fill:#ffffff;stroke-width:0.4041298"
     d="M 180.95489,54.746718 V 39.166162 l 12.42699,0.122591 12.42699,0.122591 2.27175,1.115643 c 3.80633,1.869262 5.59749,5.724534 5.05794,10.886659 -0.37924,3.628422 -1.90946,6.053862 -4.9469,7.841005 -0.70181,0.412928 -0.66923,0.490432 0.45103,1.072959 2.59223,1.347944 3.95472,3.699371 4.44765,7.675917 l 0.28806,2.323746 h -4.02161 -4.0216 l -0.69037,-2.483104 c -0.47019,-1.69121 -1.12285,-2.915591 -2.04649,-3.839233 l -1.35613,-1.356129 h -5.69823 -5.69823 v 3.199986 c 0,4.68086 0.21197,4.47848 -4.69073,4.47848 h -4.20012 z m 21.41887,1.536417 c 3.17414,-1.585658 3.70576,-6.578722 0.98964,-9.294839 l -1.33431,-1.334313 -6.19271,0.111719 -6.1927,0.111719 -0.11411,5.029205 c -0.0627,2.766064 -0.023,5.266617 0.0883,5.556785 0.33754,0.87961 10.93397,0.729852 12.75584,-0.180276 z"
     id="path55"
     inkscape:connector-curvature="0" />
  <path
     style="fill:#ffffff;stroke-width:0.4041298"
     d="M 220.55961,54.739762 V 39.15225 l 11.2146,0.129547 11.2146,0.129547 2.06904,1.091489 c 3.99739,2.108763 5.88735,5.469394 5.96177,10.600913 0.0811,5.594894 -2.02277,9.588907 -6.10014,11.58038 -1.75298,0.856189 -2.59088,0.957364 -9.10397,1.099279 l -7.17331,0.1563 v 3.193784 3.193784 h -4.0413 -4.04129 z m 19.9611,2.042633 c 0.71017,-0.336998 1.60148,-1.137956 1.98069,-1.779905 0.96214,-1.628775 0.90938,-5.122289 -0.10242,-6.781703 -1.35517,-2.222541 -2.59233,-2.584103 -8.40529,-2.456449 l -5.14942,0.113083 -0.11213,5.758849 -0.11213,5.75885 h 5.30474 c 3.90327,0 5.64587,-0.161877 6.59596,-0.612725 z"
     id="path57"
     inkscape:connector-curvature="0" />
  <path
     style="fill:#ffffff;stroke-width:0.4041298"
     d="m 128.72111,94.275844 c 1.3892,-0.07891 3.66243,-0.07891 5.05162,0 1.3892,0.07891 0.25258,0.143482 -2.52581,0.143482 -2.77839,0 -3.91501,-0.06457 -2.52581,-0.143482 z"
     id="path59"
     inkscape:connector-curvature="0" />
  <path
     style="fill:#ffffff;stroke-width:0.4041298"
     d="m 124.55238,93.766801 c 0,-5.66792 0.0568,-7.986615 0.1263,-5.152655 0.0695,2.833961 0.0695,7.47135 0,10.30531 -0.0695,2.833964 -0.1263,0.515266 -0.1263,-5.152655 z"
     id="path61"
     inkscape:connector-curvature="0" />
  <path
     style="fill:#ffffff;stroke-width:0.07144073"
     d="m 124.60026,101.98201 c 0.0173,-1.05107 0.0671,-3.325564 0.11069,-5.054429 0.0582,-2.309195 0.058,-3.98707 -7.8e-4,-6.322505 -0.044,-1.748512 -0.0937,-4.087303 -0.11059,-5.197313 l -0.0306,-2.018201 h 6.50324 6.50325 v 0.96445 0.96445 h -5.6081 -5.60809 v 3.500596 3.500596 h 4.89369 4.89369 v 0.975985 0.975986 l -2.44798,-0.0477 c -1.34639,-0.02623 -3.54855,-0.02622 -4.89369,2.2e-5 l -2.44571,0.04772 v 4.810691 4.810692 h -0.89525 -0.89525 z"
     id="path63"
     inkscape:connector-curvature="0" />
  <path
     style="fill:#ffffff;stroke-width:0.07144073"
     d="m 141.00459,96.534657 v -7.358396 h 0.89301 0.89301 v 1.107332 c 0,0.609032 0.0255,1.107331 0.0568,1.107331 0.0312,0 0.17712,-0.157831 0.32423,-0.350735 0.35321,-0.463164 1.26031,-1.320388 1.67856,-1.586279 0.55007,-0.349693 1.16681,-0.500896 1.94549,-0.47697 l 0.67432,0.02072 0.0198,1.062595 0.0198,1.062596 -0.1627,-0.04511 c -0.70573,-0.195652 -1.67988,-0.06838 -2.48452,0.324589 -0.59334,0.289776 -1.39085,1.078693 -1.66214,1.644232 -0.40428,0.842773 -0.40744,0.889829 -0.40859,6.077817 l -0.001,4.768671 h -0.89301 -0.89301 z"
     id="path65"
     inkscape:connector-curvature="0" />
  <path
     style="fill:#ffffff;stroke-width:0.07144073"
     d="m 153.23457,104.03415 c -0.28721,-0.0752 -0.68906,-0.22532 -0.89301,-0.33352 -0.47149,-0.25013 -1.31157,-1.09132 -1.56901,-1.57111 -0.27868,-0.51935 -0.48067,-1.37103 -0.48067,-2.02673 0,-1.418309 0.71313,-2.373561 2.39327,-3.205844 0.72246,-0.357882 1.63349,-0.674164 4.0364,-1.401318 1.63989,-0.496253 2.63252,-0.981114 2.95828,-1.445007 0.17035,-0.24258 0.2202,-0.398602 0.24331,-0.761467 0.0751,-1.179536 -0.62129,-1.946762 -2.11973,-2.335331 -0.75733,-0.196388 -2.24969,-0.195327 -3.02181,0.0021 -1.26251,0.322895 -2.0335,0.988849 -2.1784,1.881628 l -0.0435,0.267903 h -0.94349 -0.9435 l 0.0584,-0.42709 c 0.17444,-1.275517 1.03643,-2.3815 2.36633,-3.036148 0.98774,-0.486216 1.58834,-0.620851 2.94539,-0.66026 0.94973,-0.02758 1.258,-0.0095 1.82269,0.107096 2.07891,0.429125 3.33815,1.459402 3.75037,3.068448 0.0886,0.345839 0.10648,1.142642 0.10648,4.745751 v 4.330129 l 0.19746,0.37799 c 0.25012,0.47878 0.64308,0.70994 1.20687,0.70994 h 0.38169 v 0.82333 0.82334 l -0.19647,0.0819 c -0.10805,0.045 -0.51794,0.0844 -0.91086,0.0875 -0.57594,0.005 -0.7698,-0.0218 -1.00017,-0.13575 -0.69134,-0.34207 -1.25059,-1.20206 -1.41463,-2.17533 l -0.0856,-0.50808 -0.30845,0.39519 c -0.63508,0.81365 -1.93229,1.75703 -2.85195,2.07406 -1.18775,0.40944 -2.52503,0.50351 -3.50569,0.24661 z m 3.09405,-1.95398 c 0.91666,-0.29493 1.61071,-0.74821 2.46471,-1.6097 0.41257,-0.41619 0.85315,-0.933517 0.97906,-1.149625 l 0.22894,-0.392924 -0.0436,-1.695554 -0.0436,-1.695554 -0.30218,0.27854 c -0.1662,0.153197 -0.39426,0.32562 -0.50681,0.383162 -0.48584,0.248395 -1.66916,0.640058 -2.95959,0.979583 -2.17304,0.571749 -3.08522,0.985066 -3.68977,1.671868 -0.36304,0.412443 -0.46969,0.821397 -0.37988,1.456764 0.14198,1.00442 0.70367,1.59817 1.80595,1.90901 0.57053,0.16089 1.72402,0.097 2.44679,-0.13557 z"
     id="path73"
     inkscape:connector-curvature="0" />
  <path
     style="fill:#ffffff;stroke-width:0.07144073"
     d="m 167.03331,102.8393 c 0.0257,-0.61885 0.0468,-3.946206 0.0469,-7.394115 l 2.3e-4,-6.268924 h 0.89301 0.89301 v 1.143074 1.143074 l 0.69655,-0.704491 c 0.80807,-0.817287 1.41268,-1.204369 2.39111,-1.53082 0.60694,-0.202505 0.74495,-0.221552 1.63266,-0.225321 l 0.96968,-0.0041 0.62876,0.311485 c 0.50142,0.2484 0.74633,0.43002 1.20926,0.896767 0.31928,0.321905 0.67695,0.751732 0.79483,0.95517 0.11787,0.203438 0.23569,0.370526 0.26181,0.371306 0.0261,7.79e-4 0.16043,-0.151287 0.29846,-0.337926 0.43396,-0.58681 1.16003,-1.22151 1.83299,-1.602329 1.09918,-0.622005 2.74339,-0.869063 3.92924,-0.590403 1.52181,0.357605 2.72053,1.515045 3.13881,3.030725 0.14326,0.519131 0.14746,0.695865 0.14746,6.197483 v 5.663115 h -0.893 -0.89301 v -5.271606 c 0,-4.447925 -0.0167,-5.335683 -0.10682,-5.681717 -0.36727,-1.410023 -1.3484,-2.119763 -2.94342,-2.129232 -0.92553,-0.0055 -1.7261,0.283928 -2.53054,0.914849 -0.48263,0.378523 -0.75977,0.712996 -1.09262,1.31864 -0.46788,0.85135 -0.46845,0.858725 -0.46962,6.116116 l -10e-4,4.73295 h -0.89301 -0.893 l -0.001,-5.197314 c -8.8e-4,-4.337783 -0.0186,-5.271528 -0.10686,-5.646067 -0.34548,-1.465355 -1.36182,-2.251982 -2.90093,-2.245261 -1.60982,0.007 -3.05536,1.013635 -3.85811,2.68661 -0.25703,0.535668 -0.30082,0.702458 -0.36232,1.379969 -0.0385,0.423862 -0.0672,2.643298 -0.0638,4.93208 l 0.006,4.161423 h -0.90419 -0.9042 z"
     id="path75"
     inkscape:connector-curvature="0" />
  <path
     style="fill:#ffffff;stroke-width:0.07144073"
     d="m 195.83535,104.13649 c -1.90672,-0.42605 -3.55969,-1.82147 -4.46734,-3.77127 -0.55117,-1.184009 -0.80651,-2.416037 -0.80871,-3.902004 -0.005,-3.158865 1.39696,-5.612343 3.91867,-6.859414 1.04183,-0.515221 1.44369,-0.606142 2.67903,-0.606142 1.24339,0 1.6392,0.09007 2.71475,0.617747 0.67378,0.330568 0.82284,0.441657 1.46453,1.091507 1.40775,1.425628 1.95625,2.810899 2.07413,5.238357 l 0.0494,1.01803 h -5.54907 -5.54906 l 0.0468,0.339343 c 0.21831,1.581391 0.89987,2.976076 1.92132,3.931586 0.91321,0.85427 1.70392,1.15912 3.00287,1.15772 1.36814,-10e-4 2.16631,-0.32375 3.07675,-1.24231 0.4578,-0.46189 0.6235,-0.69024 0.82156,-1.13217 l 0.2481,-0.553588 0.81136,-7.1e-5 c 0.67618,-6.5e-5 0.80478,0.01703 0.77194,0.102614 -0.0217,0.05648 -0.0737,0.230234 -0.11572,0.386116 -0.18899,0.701839 -0.78718,1.764449 -1.33405,2.369769 -0.64577,0.71479 -1.73391,1.37317 -2.77683,1.68013 -0.8292,0.24406 -2.22845,0.30657 -3.00051,0.13405 z m 5.60809,-9.126381 c 0,-0.45284 -0.24785,-1.348008 -0.51378,-1.855596 -0.31151,-0.59459 -1.17882,-1.464737 -1.74381,-1.749525 -1.30752,-0.659054 -2.40162,-0.757494 -3.68424,-0.331478 -0.9485,0.315042 -2.13768,1.407341 -2.63217,2.417725 -0.29003,0.592611 -0.49897,1.27501 -0.49897,1.629617 v 0.199312 h 4.53649 4.53648 z"
     id="path77"
     inkscape:connector-curvature="0" />
  <path
     style="fill:#ffffff;stroke-width:0.07144073"
     d="m 208.99648,103.80578 c -0.0176,-0.0502 -0.95357,-3.32224 -2.07999,-7.271123 -1.12642,-3.948887 -2.0632,-7.219979 -2.08173,-7.269095 -0.0259,-0.06857 0.17951,-0.08918 0.88482,-0.0888 l 0.91851,5.02e-4 1.6027,5.946938 c 0.88148,3.270816 1.64021,6.059458 1.68607,6.196988 l 0.0834,0.25004 0.11583,-0.39293 c 0.0637,-0.2161 0.86317,-3.004974 1.77659,-6.197481 l 1.66076,-5.80456 h 1.01688 1.01688 l 0.0644,0.232183 c 1.08043,3.895537 3.48004,12.113038 3.51686,12.043508 0.0277,-0.0523 0.29465,-1.01127 0.59326,-2.131107 1.09164,-4.093805 1.9663,-7.355712 2.34176,-8.733243 l 0.38448,-1.410567 0.91086,-3.87e-4 c 0.50098,-2.13e-4 0.9098,0.0076 0.90848,0.01747 -10e-4,0.0098 -0.94506,3.313063 -2.0972,7.340535 l -2.09482,7.322669 -0.97112,0.0198 -0.97113,0.0199 -0.14313,-0.48422 c -0.0787,-0.26632 -0.82148,-2.89534 -1.65057,-5.842269 -1.86514,-6.629447 -1.71849,-6.127606 -1.77432,-6.071965 -0.0258,0.02575 -0.85268,2.816998 -1.83742,6.20278 l -1.79045,6.155964 -0.97935,0.0199 c -0.74512,0.0151 -0.98698,-0.002 -1.01129,-0.0714 z"
     id="path79"
     inkscape:connector-curvature="0" />
  <path
     style="fill:#ffffff;stroke-width:0.07144073"
     d="m 231.64235,104.07755 c -2.49408,-0.48793 -4.27773,-2.35264 -4.9374,-5.16177 -0.24253,-1.032827 -0.312,-2.933375 -0.14451,-3.953669 0.29432,-1.792917 0.92897,-3.161056 1.96691,-4.240196 0.78566,-0.816831 1.64785,-1.325105 2.7578,-1.625748 0.81726,-0.221366 2.39586,-0.221611 3.21483,-4.99e-4 2.4718,0.66736 4.14153,2.575664 4.76031,5.440474 0.21316,0.986871 0.23182,2.910003 0.0377,3.882692 -0.34775,1.742246 -0.97822,2.985966 -2.05068,4.045406 -0.76534,0.75604 -1.62547,1.23731 -2.7473,1.53722 -0.59436,0.15889 -2.21397,0.20202 -2.85763,0.0761 z m 2.4389,-1.94038 c 1.36313,-0.35505 2.5057,-1.42904 3.09602,-2.910192 0.34804,-0.873242 0.45761,-1.53318 0.45293,-2.728042 -0.004,-0.920366 -0.0307,-1.172355 -0.19223,-1.78541 -0.44933,-1.705603 -1.3345,-2.876268 -2.64231,-3.494535 -0.66614,-0.314914 -1.1271,-0.415646 -1.891,-0.413228 -2.31698,0.0073 -4.05657,1.665019 -4.59275,4.376526 -0.05,0.252647 -0.0879,0.909435 -0.0843,1.459529 0.005,0.829071 0.0381,1.122383 0.19115,1.714577 0.56689,2.193885 1.94515,3.597775 3.82153,3.892545 0.49982,0.0785 1.29594,0.0302 1.84094,-0.11177 z"
     id="path81"
     inkscape:connector-curvature="0" />
  <path
     style="fill:#ffffff;stroke-width:0.07144073"
     d="m 243.03715,96.534657 v -7.358396 h 0.89119 0.8912 l 0.0197,1.11249 0.0197,1.11249 0.41562,-0.487383 c 0.61481,-0.720987 1.37285,-1.356145 1.9718,-1.652161 0.52163,-0.257802 0.5443,-0.262083 1.39324,-0.263052 l 0.86299,-9.85e-4 0.0198,1.061986 0.0198,1.061987 -0.1627,-0.03996 c -1.2151,-0.298452 -2.56546,0.107705 -3.46191,1.041261 -0.50527,0.526186 -0.76422,1.000372 -0.95619,1.750975 -0.12983,0.507627 -0.13821,0.827666 -0.13821,5.279764 v 4.739377 h -0.89301 -0.893 z"
     id="path83"
     inkscape:connector-curvature="0" />
  <path
     style="fill:none;stroke-width:0.07144073"
     d="M 252.18156,93.569866 V 83.246681 h 0.89301 0.89301 v 6.501106 c 0,3.575609 0.0241,6.499619 0.0536,6.497801 0.0295,-0.0018 1.69314,-1.607534 3.69706,-3.568257 l 3.64347,-3.564953 1.13324,-0.0038 1.13324,-0.0038 -0.78918,0.839428 c -0.43404,0.461686 -1.62715,1.675053 -2.65135,2.696373 -1.0242,1.021319 -1.86218,1.895257 -1.86218,1.942086 0,0.04683 1.20968,2.136701 2.68818,4.644162 1.47849,2.507463 2.70203,4.583133 2.71896,4.612603 0.0169,0.0295 -0.42066,0.0536 -0.97243,0.0536 h -1.00322 l -2.37101,-3.968571 -2.37101,-3.96857 -0.46992,0.449493 c -0.25846,0.247222 -0.94412,0.915522 -1.52368,1.485112 l -1.05375,1.035617 v 2.483459 2.48346 h -0.89301 -0.89301 z"
     id="path85"
     inkscape:connector-curvature="0" />
  <path
     style="fill:#ffffff;stroke-width:0.2020649"
     d="m 252.27732,93.589944 v -10.30531 h 0.80826 0.80826 v 6.466077 c 0,3.556342 0.0533,6.466076 0.11837,6.466076 0.0651,0 1.77003,-1.591145 3.78872,-3.535879 l 3.67034,-3.535879 0.97687,-2.56e-4 0.97686,-2.57e-4 -2.49235,2.642662 c -1.37079,1.453465 -2.52043,2.719765 -2.55474,2.814 -0.0343,0.09424 1.12504,2.179611 2.57633,4.634168 1.45129,2.454554 2.63871,4.507174 2.63871,4.561364 0,0.0542 -0.39674,0.0985 -0.88165,0.0985 h -0.88166 l -2.36107,-3.940262 c -1.29858,-2.167146 -2.42277,-3.940266 -2.49818,-3.940266 -0.0754,0 -0.79848,0.656961 -1.60683,1.459914 l -1.46972,1.459913 v 2.480351 2.48035 h -0.80826 -0.80826 z"
     id="path87"
     inkscape:connector-curvature="0" />
</svg>
