<svg id="Layer_1" data-name="Layer 1" xmlns="http://www.w3.org/2000/svg" viewBox="0 0 227.14 171.35"><defs><style>.cls-1{fill:#820000;}</style></defs><path class="cls-1" d="M143.28,148.62a14.79,14.79,0,0,1-3.31-.56,30.76,30.76,0,0,1-14.49-10,24.78,24.78,0,0,1-6.14-13.79c-.28-2.94-.13-5.91-.21-8.87a1.18,1.18,0,0,1,.83-1.36,2.92,2.92,0,0,0,1.78-2.11,3.3,3.3,0,0,0,.17-1,3.35,3.35,0,0,0-.85-2.24,3.39,3.39,0,0,0-2.11-1.11,1.65,1.65,0,0,1-.17-.89v-2.73h-8.37v1.51c0,1.58,0-.22,0,1.37a1.53,1.53,0,0,1-.12.72,3.38,3.38,0,0,0-2.67,5.27,3.52,3.52,0,0,0,1.5,1.22l.25.11a1,1,0,0,1,.71,1.15c0,1.83,0,3.66,0,5.5a24.44,24.44,0,0,1-4.89,15.34c-5,6.63-11.09,11.71-19.8,12.58a3.14,3.14,0,0,0-2.87,3.21,3.19,3.19,0,0,0,2.81,3.36,8.74,8.74,0,0,0,1.35.08h55.87c.26,0,.52,0,.78,0a3.25,3.25,0,0,0,3.33-3.37A3.3,3.3,0,0,0,143.28,148.62Zm48.49-44.42a7,7,0,0,0-1,0c-1.18.23-1.63-.37-2-1.41Q177.5,73,166.21,43.3c-.13-.35-.25-.7-.37-1.06l.28.12a22,22,0,0,0,1.91-2.2,1.25,1.25,0,0,0-.28-1.93c-.66-.39-1.24-.18-1.8.73a1.22,1.22,0,0,1-1.86.55,16.53,16.53,0,0,1-2.39-1.76c-1.14-1-2.16-2.22-3.31-3.24a18.47,18.47,0,0,0-10.3-4.85A26,26,0,0,0,137.26,31c-4.39,1.35-8.73,2.86-13.12,4.22-1.7.53-3.47.82-5.35,1.26V29.69a9.44,9.44,0,1,0-8.37,0c0,1.91,0,3.82,0,5.73,0,.28,0,.55-.09,1.08-2.66-.7-5.23-1.29-7.74-2.06-4.3-1.31-8.53-2.84-12.86-4.07a20,20,0,0,0-12.25.08,22.84,22.84,0,0,0-8.88,6.14,20.88,20.88,0,0,1-3.21,2.73c-1,.72-1.52.53-2.21-.54-.42-.65-1-1-1.69-.59A1.13,1.13,0,0,0,61.07,40c.6.86,1.35,1.64,2,2.45.12.19,0,.52-.1.85Q51.81,72.83,40.6,102.39c-.66,1.76-.66,1.76-2.6,1.8l-.64,0c0,.53,0,1,.09,1.48a9.5,9.5,0,0,0,4.33,6.77,21.65,21.65,0,0,0,7.52,3.13,72.9,72.9,0,0,0,20,1.44A48.66,48.66,0,0,0,83,114.85a15.4,15.4,0,0,0,7.07-4.34,8.76,8.76,0,0,0,2.16-6.27l-1,0-.61,0-3.3-.09h-45l22.5-59.4h0l1.5-2.39h0c2-1.62,3.82-3.09,5.61-4.63,3.89-3.38,8.34-5.05,13.45-3.89a63.28,63.28,0,0,1,9,2.94c4.91,1.92,9.72,4.11,14.91,5.2,1,.2,1.19.57,1.19,1.5,0,3.14,0,2.33,0,5.47v.83h8.37V42.26c5.59-1.08,10.68-3.31,15.84-5.39,2.38-1,4.79-1.87,7.25-2.6a15.26,15.26,0,0,1,15.2,3.31c1.86,1.6,3.78,3.14,5.79,4.79h0l1.5,2.39h0c7.55,19.94,15,39.6,22.5,59.38h-45c.31-.83-.31.82,0,0l-1.93,0h0s-.47,0-2.4.08c-.18,0-.36,0-.7.09a25.62,25.62,0,0,0,.45,2.78c.93,3.38,3.41,5.35,6.41,6.78a33.18,33.18,0,0,0,10.4,2.73,87.38,87.38,0,0,0,19.06.17,37.22,37.22,0,0,0,11-2.49,13.4,13.4,0,0,0,5.94-4.31A8.55,8.55,0,0,0,191.77,104.2Z"/><path class="cls-1" d="M90.72,66.15H86c-.41-3.16-1.9-4.74-4.45-4.74a5.22,5.22,0,0,0-3.73,1.19,4.71,4.71,0,0,0-1.24,3.55A5,5,0,0,0,78,69.48L88,80.64a9.86,9.86,0,0,1,2.76,6.65V89.6A9.47,9.47,0,0,1,81.3,99H76.62q-4.68,0-7-2.34T67.21,89.6h4.73v.79a3.36,3.36,0,0,0,1.47,2.94,5.58,5.58,0,0,0,3.21,1,4.61,4.61,0,0,0,3.58-1.21,5,5,0,0,0,1.1-3.53A4.89,4.89,0,0,0,80,86.28L70,75.11a9.7,9.7,0,0,1-2.76-6.65V66.15A9.12,9.12,0,0,1,70,59.52a9,9,0,0,1,6.65-2.79H81.3Q90.15,56.73,90.72,66.15Z"/><path class="cls-1" d="M109.89,99V56.73h9.36V99Z"/><path class="cls-1" d="M165.31,56.73V89.6q0,4.74-2.34,7.08c-1.56,1.56-3.91,2.34-7.07,2.34h-9.36q-4.74,0-7.08-2.34t-2.34-7.08V80.25h9.42V89.6A4.57,4.57,0,0,0,147.92,93a4.64,4.64,0,0,0,6.6,0,4.57,4.57,0,0,0,1.38-3.36V56.73Z"/></svg>