<?xml version="1.0" encoding="utf-8"?>
<!-- Generator: Adobe Illustrator 21.0.0, SVG Export Plug-In . SVG Version: 6.00 Build 0)  -->
<svg version="1.1" id="Layer_1" xmlns="http://www.w3.org/2000/svg" xmlns:xlink="http://www.w3.org/1999/xlink" x="0px" y="0px"
	 viewBox="0 0 32 32" style="enable-background:new 0 0 32 32;" xml:space="preserve">
<style type="text/css">
	.st0{fill:#6D6E71;}
	.st1{fill:#3B76A8;stroke:#FFFFFF;stroke-width:0.1592;stroke-miterlimit:10;}
	.st2{fill:#AA454A;stroke:#FFFFFF;stroke-width:0.1802;stroke-miterlimit:10;}
	.st3{fill:#85A754;stroke:#FFFFFF;stroke-width:0.1317;stroke-miterlimit:10;}
	.st4{fill:#3B76A8;stroke:#FFFFFF;stroke-width:0.1556;stroke-miterlimit:10;}
	.st5{fill:#AA454A;stroke:#FFFFFF;stroke-width:0.1982;stroke-miterlimit:10;}
	.st6{fill:#85A754;stroke:#FFFFFF;stroke-width:0.109;stroke-miterlimit:10;}
</style>
<g>
	<g>
		<path class="st0" d="M0.3,0.3v31.6C0.3,32,0.4,32,0.4,32c0.1,0,0.1,0,0.1-0.1V0.3c0-0.1-0.1-0.1-0.1-0.1C0.4,0.2,0.3,0.2,0.3,0.3
			L0.3,0.3z M0.3,0.3"/>
		<path class="st0" d="M7.9,0.3v31.6C7.9,32,8,32,8.1,32c0.1,0,0.1,0,0.1-0.1V0.3c0-0.1-0.1-0.1-0.1-0.1C8,0.2,7.9,0.2,7.9,0.3
			L7.9,0.3z M7.9,0.3"/>
		<path class="st0" d="M15.6,0.3v31.6c0,0.1,0.1,0.1,0.1,0.1c0.1,0,0.1,0,0.1-0.1V0.3c0-0.1-0.1-0.1-0.1-0.1
			C15.7,0.2,15.6,0.2,15.6,0.3L15.6,0.3z M15.6,0.3"/>
		<path class="st0" d="M23.2,0.3v31.6c0,0.1,0.1,0.1,0.1,0.1c0.1,0,0.1,0,0.1-0.1V0.3c0-0.1-0.1-0.1-0.1-0.1
			C23.3,0.2,23.2,0.2,23.2,0.3L23.2,0.3z M23.2,0.3"/>
		<path class="st0" d="M30.9,0.3v31.6c0,0.1,0.1,0.1,0.1,0.1c0.1,0,0.1,0,0.1-0.1V0.3c0-0.1-0.1-0.1-0.1-0.1
			C30.9,0.2,30.9,0.2,30.9,0.3L30.9,0.3z M30.9,0.3"/>
	</g>
	<g>
		<rect x="8.3" y="3" class="st1" width="7.1" height="2.2"/>
		<rect x="8.3" y="6.9" class="st2" width="19.5" height="2.2"/>
		<rect x="8.3" y="10.8" class="st3" width="14.9" height="2.2"/>
		<rect x="1.6" y="19.6" class="st4" width="6.7" height="2.1"/>
		<rect x="8.3" y="23.3" class="st5" width="23.5" height="2.1"/>
		<rect x="8.3" y="27.1" class="st6" width="10.2" height="2.1"/>
	</g>
</g>
</svg>
