<?xml version="1.0" encoding="utf-8"?>
<!-- Generator: Adobe Illustrator 21.0.0, SVG Export Plug-In . SVG Version: 6.00 Build 0)  -->
<svg version="1.1" id="Layer_1" xmlns="http://www.w3.org/2000/svg" xmlns:xlink="http://www.w3.org/1999/xlink" x="0px" y="0px"
	 viewBox="0 0 32 32" style="enable-background:new 0 0 32 32;" xml:space="preserve">
<style type="text/css">
	.st0{fill:#6D6E71;}
	.st1{fill:#3B76A8;stroke:#FFFFFF;stroke-width:0.2;stroke-miterlimit:10;}
	.st2{fill:#AA454A;stroke:#FFFFFF;stroke-width:0.2265;stroke-miterlimit:10;}
	.st3{fill:#85A754;stroke:#FFFFFF;stroke-width:0.1058;stroke-miterlimit:10;}
	.st4{fill:#3B76A8;stroke:#FFFFFF;stroke-width:0.1439;stroke-miterlimit:10;}
	.st5{fill:#AA454A;stroke:#FFFFFF;stroke-width:0.2;stroke-miterlimit:10;}
	.st6{fill:#85A754;stroke:#FFFFFF;stroke-width:0.2154;stroke-miterlimit:10;}
</style>
<g>
	<path class="st0" d="M0.1,31.8h31.8c0.1,0,0.1-0.1,0.1-0.1c0-0.1,0-0.1-0.1-0.1H0.1C0,31.6,0,31.6,0,31.7C0,31.8,0,31.8,0.1,31.8
		L0.1,31.8z M0.1,31.8"/>
	<path class="st0" d="M0.1,24h31.8C32,24,32,24,32,23.9s0-0.1-0.1-0.1H0.1C0,23.8,0,23.8,0,23.9S0,24,0.1,24L0.1,24z M0.1,24"/>
	<path class="st0" d="M0.1,16.2h31.8c0.1,0,0.1-0.1,0.1-0.1c0-0.1,0-0.1-0.1-0.1H0.1C0,15.9,0,16,0,16.1C0,16.1,0,16.2,0.1,16.2
		L0.1,16.2z M0.1,16.2"/>
	<path class="st0" d="M0.1,8.4h31.8C32,8.4,32,8.3,32,8.2c0-0.1,0-0.1-0.1-0.1H0.1C0,8.1,0,8.2,0,8.2C0,8.3,0,8.4,0.1,8.4L0.1,8.4z
		 M0.1,8.4"/>
	<path class="st0" d="M0.1,0.6h31.8C32,0.6,32,0.5,32,0.4c0-0.1,0-0.1-0.1-0.1H0.1C0,0.3,0,0.3,0,0.4C0,0.5,0,0.6,0.1,0.6L0.1,0.6z
		 M0.1,0.6"/>
	<rect x="1.8" y="18.1" class="st1" width="3.6" height="6"/>
	<rect x="6" y="7.5" class="st2" width="3.6" height="16.5"/>
	<rect x="10.3" y="24.1" class="st3" width="3.6" height="5.2"/>
	<rect x="18.1" y="24.1" class="st4" width="3.6" height="7"/>
	<rect x="22.4" y="19.4" class="st5" width="3.6" height="4.6"/>
	<rect x="26.6" y="2.6" class="st6" width="3.6" height="21.5"/>
</g>
</svg>
