<?xml version="1.0" encoding="utf-8"?>
<!-- Generator: Adobe Illustrator 21.0.0, SVG Export Plug-In . SVG Version: 6.00 Build 0)  -->
<svg version="1.1" id="Layer_1" xmlns="http://www.w3.org/2000/svg" xmlns:xlink="http://www.w3.org/1999/xlink" x="0px" y="0px"
	 viewBox="0 0 32 32" style="enable-background:new 0 0 32 32;" xml:space="preserve">
<style type="text/css">
	.st0{fill:#BCD7F1;}
	.st1{fill:#9EC2E5;}
	.st2{fill:#CEE3F5;}
	.st3{fill:#E7F1FA;}
	.st4{fill:#BED8F1;}
	.st5{fill:#6D6E71;}
	.st6{font-family:'MyriadPro-Regular';}
	.st7{font-size:2.3309px;}
	.st8{stroke:#FFFFFF;stroke-width:8.000000e-02;stroke-miterlimit:10;}
	.st9{font-family:'Arial-Black';}
</style>
<g>
	<rect x="8.2" y="3.5" class="st0" width="8.2" height="8.3"/>
	<rect x="0.3" y="3.5" class="st1" width="8.2" height="8.3"/>
	<rect x="16.5" y="3.5" class="st2" width="7.7" height="8.3"/>
	<rect x="24" y="3.5" class="st2" width="7.9" height="8.3"/>
	<rect x="8.2" y="12" class="st3" width="8.2" height="8"/>
	<rect x="0.3" y="12" class="st0" width="8.2" height="8"/>
	<rect x="16.5" y="12" class="st4" width="7.7" height="8"/>
	<rect x="24" y="12" class="st2" width="7.9" height="8"/>
	<rect x="8.2" y="20.1" class="st4" width="8.2" height="8"/>
	<rect x="0.3" y="20.1" class="st3" width="8.2" height="8"/>
	<rect x="16.5" y="20.1" class="st2" width="7.7" height="8"/>
	<rect x="24" y="20.1" class="st4" width="7.9" height="8"/>
	<path class="st5" d="M0.4,28.5h31.1c0.1,0,0.1-0.1,0.1-0.1c0-0.1,0-0.1-0.1-0.1H0.4c-0.1,0-0.1,0.1-0.1,0.1
		C0.3,28.4,0.4,28.5,0.4,28.5L0.4,28.5z M0.4,28.5"/>
	<path class="st5" d="M0.4,12h31.1c0.1,0,0.1-0.1,0.1-0.1c0-0.1,0-0.1-0.1-0.1H0.4c-0.1,0-0.1,0.1-0.1,0.1C0.3,12,0.4,12,0.4,12
		L0.4,12z M0.4,12"/>
	<path class="st5" d="M0.4,20.2h31.1c0.1,0,0.1-0.1,0.1-0.1c0-0.1,0-0.1-0.1-0.1H0.4c-0.1,0-0.1,0.1-0.1,0.1
		C0.3,20.2,0.4,20.2,0.4,20.2L0.4,20.2z M0.4,20.2"/>
	<path class="st5" d="M0.4,3.8h31.1c0.1,0,0.1-0.1,0.1-0.1c0-0.1,0-0.1-0.1-0.1H0.4c-0.1,0-0.1,0.1-0.1,0.1C0.3,3.7,0.4,3.8,0.4,3.8
		L0.4,3.8z M0.4,3.8"/>
	<path class="st5" d="M8.2,3.6v24.6c0,0,0,0.1,0.1,0.1c0,0,0.1,0,0.1-0.1V3.6C8.4,3.6,8.4,3.5,8.2,3.6C8.3,3.5,8.2,3.6,8.2,3.6
		L8.2,3.6z M8.2,3.6"/>
	<path class="st5" d="M16.3,3.6v24.6c0,0,0,0.1,0.1,0.1c0,0,0.1,0,0.1-0.1V3.6C16.5,3.6,16.4,3.5,16.3,3.6
		C16.3,3.5,16.3,3.6,16.3,3.6L16.3,3.6z M16.3,3.6"/>
	<path class="st5" d="M0.2,3.6v24.6c0,0,0,0.1,0.1,0.1c0,0,0.1,0,0.1-0.1V3.6C0.3,3.6,0.3,3.5,0.2,3.6C0.2,3.5,0.2,3.6,0.2,3.6
		L0.2,3.6z M0.2,3.6"/>
	<path class="st5" d="M24,3.6v24.6c0,0,0,0.1,0.1,0.1c0,0,0.1,0,0.1-0.1V3.6C24.1,3.6,24.1,3.5,24,3.6C24,3.5,24,3.6,24,3.6L24,3.6z
		 M24,3.6"/>
	<path class="st5" d="M31.7,3.6v24.6c0,0,0,0.1,0.1,0.1c0,0,0.1,0,0.1-0.1V3.6C31.8,3.6,31.8,3.5,31.7,3.6
		C31.7,3.5,31.7,3.6,31.7,3.6L31.7,3.6z M31.7,3.6"/>
	<text transform="matrix(0.6308 0 0 1 1.082 7.0771)" class="st6 st7">2015</text>
	<text transform="matrix(0.6308 0 0 1 3.6553 8.9473)" class="st8 st9 st7">1010</text>
	<text transform="matrix(0.6308 0 0 1 3.6553 17.4697)" class="st8 st9 st7">768</text>
	<text transform="matrix(0.6308 0 0 1 3.6553 25.1904)" class="st8 st9 st7">322</text>
	<text transform="matrix(0.6308 0 0 1 10.5483 8.9473)" class="st8 st9 st7">874</text>
	<text transform="matrix(0.6308 0 0 1 10.5483 17.4697)" class="st8 st9 st7">343</text>
	<text transform="matrix(0.6308 0 0 1 18.6811 8.9473)" class="st8 st9 st7">332</text>
	<text transform="matrix(0.6308 0 0 1 18.6811 17.4697)" class="st8 st9 st7">244</text>
	<text transform="matrix(0.6308 0 0 1 25.5981 8.9473)" class="st8 st9 st7">234</text>
	<text transform="matrix(0.6308 0 0 1 10.5483 25.1904)" class="st8 st9 st7">874</text>
	<text transform="matrix(0.6308 0 0 1 18.6811 25.1904)" class="st8 st9 st7">332</text>
	<text transform="matrix(0.6308 0 0 1 25.5981 25.1904)" class="st8 st9 st7">234</text>
	<text transform="matrix(0.6308 0 0 1 26.2114 17.4697)" class="st8 st9 st7">438</text>
	<text transform="matrix(0.6308 0 0 1 1.082 15.2305)" class="st6 st7">2009</text>
	<text transform="matrix(0.6308 0 0 1 1.082 23.2207)" class="st6 st7">2010</text>
</g>
</svg>
