<?xml version="1.0" encoding="utf-8"?>
<!-- Generator: Adobe Illustrator 21.0.0, SVG Export Plug-In . SVG Version: 6.00 Build 0)  -->
<svg version="1.1" id="Layer_1" xmlns="http://www.w3.org/2000/svg" xmlns:xlink="http://www.w3.org/1999/xlink" x="0px" y="0px"
	 viewBox="0 0 32 32" style="enable-background:new 0 0 32 32;" xml:space="preserve">
<style type="text/css">
	.st0{fill:#FFFFFF;}
	.st1{fill:#AA454A;stroke:#AA454A;stroke-width:0.5;stroke-miterlimit:10;}
	.st2{fill:#85A754;stroke:#85A754;stroke-width:0.5;stroke-miterlimit:10;}
	.st3{fill:#3B76A8;stroke:#3B76A8;stroke-width:0.5;stroke-miterlimit:10;}
</style>
<g>
	<ellipse transform="matrix(0.7071 -0.7071 0.7071 0.7071 -6.6277 16.0005)" class="st0" cx="16" cy="16" rx="16" ry="16"/>
	<g>
		<path class="st1" d="M16.9,16.2l3.8-14.2c2.1,0.7,4.1,1.9,5.7,3.5c5.7,5.7,5.7,15.1,0,20.8C20.8,31.9,12,32.1,6.3,27l10.4-10.4
			C16.7,16.5,16.8,16.4,16.9,16.2L16.9,16.2z"/>
		<path class="st2" d="M5,25.7l9.7-9.7L5,6.3C0.1,11.8,0.1,20.2,5,25.7z"/>
		<path class="st3" d="M18.9,1.6C14.5,0.7,9.8,1.9,6.3,5l9.2,9.2L18.9,1.6z"/>
	</g>
</g>
</svg>
