<?xml version="1.0" encoding="utf-8"?>
<!-- Generator: Adobe Illustrator 21.0.0, SVG Export Plug-In . SVG Version: 6.00 Build 0)  -->
<svg version="1.1" id="Layer_1" xmlns="http://www.w3.org/2000/svg" xmlns:xlink="http://www.w3.org/1999/xlink" x="0px" y="0px"
	 viewBox="0 0 32 32" style="enable-background:new 0 0 32 32;" xml:space="preserve">
<style type="text/css">
	.st0{fill:#6D6E71;}
	.st1{fill:#3978AC;}
	.st2{fill:#85A754;}
	.st3{fill:#AA454A;}
	.st4{fill:none;stroke:#AA454A;stroke-width:0.6;stroke-miterlimit:10;}
	.st5{fill:none;stroke:#3978AC;stroke-width:0.6;stroke-miterlimit:10;}
	.st6{fill:none;stroke:#85A754;stroke-width:0.6;stroke-miterlimit:10;}
</style>
<g>
	<g>
		<path class="st0" d="M0.1,31.4h31.8c0.1,0,0.1-0.1,0.1-0.1c0-0.1,0-0.1-0.1-0.1H0.1C0,31.1,0,31.2,0,31.3C0,31.3,0,31.4,0.1,31.4
			L0.1,31.4z M0.1,31.4"/>
		<path class="st0" d="M0.1,23.8h31.8c0.1,0,0.1-0.1,0.1-0.1c0-0.1,0-0.1-0.1-0.1H0.1C0,23.5,0,23.6,0,23.6C0,23.7,0,23.8,0.1,23.8
			L0.1,23.8z M0.1,23.8"/>
		<path class="st0" d="M0.1,16.1h31.8c0.1,0,0.1-0.1,0.1-0.1c0-0.1,0-0.1-0.1-0.1H0.1C0,15.9,0,15.9,0,16C0,16.1,0,16.1,0.1,16.1
			L0.1,16.1z M0.1,16.1"/>
		<path class="st0" d="M0.1,8.5h31.8C32,8.5,32,8.5,32,8.4c0-0.1,0-0.1-0.1-0.1H0.1C0,8.2,0,8.3,0,8.4C0,8.5,0,8.5,0.1,8.5L0.1,8.5z
			 M0.1,8.5"/>
		<path class="st0" d="M0.1,0.9h31.8C32,0.9,32,0.8,32,0.7c0-0.1,0-0.1-0.1-0.1H0.1C0,0.6,0,0.7,0,0.7C0,0.8,0,0.9,0.1,0.9L0.1,0.9z
			 M0.1,0.9"/>
	</g>
	<ellipse class="st1" cx="2.6" cy="11.9" rx="0.8" ry="0.9"/>
	<ellipse class="st1" cx="17.1" cy="12.7" rx="0.8" ry="0.9"/>
	<ellipse class="st1" cx="30.2" cy="27" rx="0.8" ry="0.9"/>
	<ellipse class="st2" cx="2.6" cy="16.9" rx="0.8" ry="0.9"/>
	<ellipse class="st2" cx="17.9" cy="26.1" rx="0.8" ry="0.9"/>
	<ellipse class="st2" cx="28.1" cy="14.6" rx="0.8" ry="0.9"/>
	<ellipse class="st3" cx="2.6" cy="5.5" rx="0.8" ry="0.9"/>
	<ellipse class="st3" cx="16.8" cy="6.2" rx="0.8" ry="0.9"/>
	<ellipse class="st3" cx="28.8" cy="10.2" rx="0.8" ry="0.9"/>
	<path class="st4" d="M2.6,5.5c0,0,14.4-1.6,26.3,4.7"/>
	<path class="st5" d="M2.6,11.9c0,0,16.7-6.8,27.7,15.1"/>
	<path class="st6" d="M2.6,16.9c0,0,16.8,22.8,25.5-2.3"/>
</g>
</svg>
