<?xml version="1.0" encoding="utf-8"?>
<!-- Generator: Adobe Illustrator 21.0.0, SVG Export Plug-In . SVG Version: 6.00 Build 0)  -->
<svg version="1.1" id="Layer_1" xmlns="http://www.w3.org/2000/svg" xmlns:xlink="http://www.w3.org/1999/xlink" x="0px" y="0px"
	 viewBox="0 0 32 32" style="enable-background:new 0 0 32 32;" xml:space="preserve">
<style type="text/css">
	.st0{fill:#8CC4EB;}
	.st1{fill:#6D6E71;}
	.st2{fill:#7251A1;}
	.st3{fill:#B9D986;}
	.st4{fill:#AA454A;}
</style>
<g>
	<rect x="1.5" y="0.8" class="st0" width="29" height="29.3"/>
	<g>
		<path class="st1" d="M0.1,31.4h31.8c0.1,0,0.1-0.1,0.1-0.1c0-0.1,0-0.1-0.1-0.1H0.1C0,31.1,0,31.2,0,31.2C0,31.3,0,31.4,0.1,31.4
			L0.1,31.4z M0.1,31.4"/>
		<path class="st1" d="M0.1,23.8h31.8c0.1,0,0.1-0.1,0.1-0.1c0-0.1,0-0.1-0.1-0.1H0.1C0,23.5,0,23.5,0,23.6C0,23.7,0,23.8,0.1,23.8
			L0.1,23.8z M0.1,23.8"/>
		<path class="st1" d="M0.1,16.1h31.8c0.1,0,0.1-0.1,0.1-0.1c0-0.1,0-0.1-0.1-0.1H0.1C0,15.9,0,15.9,0,16C0,16.1,0,16.1,0.1,16.1
			L0.1,16.1z M0.1,16.1"/>
		<path class="st1" d="M0.1,8.5h31.8C32,8.5,32,8.5,32,8.4c0-0.1,0-0.1-0.1-0.1H0.1C0,8.2,0,8.3,0,8.4C0,8.5,0,8.5,0.1,8.5L0.1,8.5z
			 M0.1,8.5"/>
		<path class="st1" d="M0.1,0.9h31.8C32,0.9,32,0.8,32,0.8c0-0.1,0-0.1-0.1-0.1H0.1C0,0.6,0,0.7,0,0.8C0,0.8,0,0.9,0.1,0.9L0.1,0.9z
			 M0.1,0.9"/>
	</g>
	<polygon class="st2" points="1.5,30.1 1.5,17.8 5.5,19.1 8.4,19.5 14.5,17.8 18.7,17.8 23.4,17 28.2,18.5 30.4,19.6 30.4,30.1 	"/>
	<path class="st3" d="M1.5,23.5l5.8-0.1l4.5-1.3l6.1-1.5c0,0,2,0,2.3,0c0.3,0,3.8,0,3.8,0l1.9,1.4l2.4,1.2l1.5,0.2l0.8,0.6v6.1h-29
		V23.5z"/>
	<polygon class="st4" points="1.5,28.8 10.9,28.8 18.9,27.7 26.7,27.7 30.5,27 30.5,30.1 1.5,30.1 	"/>
</g>
</svg>
