<?xml version="1.0" encoding="utf-8"?>
<!-- Generator: Adobe Illustrator 21.0.0, SVG Export Plug-In . SVG Version: 6.00 Build 0)  -->
<svg version="1.1" id="Layer_1" xmlns="http://www.w3.org/2000/svg" xmlns:xlink="http://www.w3.org/1999/xlink" x="0px" y="0px"
	 viewBox="0 0 32 32" style="enable-background:new 0 0 32 32;" xml:space="preserve">
<style type="text/css">
	.st0{fill:#8CC4EB;}
	.st1{fill:#6D6E71;}
	.st2{fill:#7251A1;}
	.st3{fill:#B9D986;}
	.st4{fill:#AA454A;}
	.st5{fill:#3978AC;}
	.st6{fill:#A88CC1;}
	.st7{fill:#85A754;}
	.st8{fill:#F4862C;}
</style>
<g>
	<polygon class="st0" points="30.9,30.3 30.9,3 24.9,10.3 22.1,15.1 19.1,18.6 13.5,20.7 7.9,21.7 3.2,23 0.9,23.7 0.9,30 	"/>
	<g>
		<path class="st1" d="M0.1,31.6h31.8c0.1,0,0.1-0.1,0.1-0.1c0-0.1,0-0.1-0.1-0.1H0.1C0,31.4,0,31.4,0,31.5C0,31.6,0,31.6,0.1,31.6
			L0.1,31.6z M0.1,31.6"/>
		<path class="st1" d="M0.1,23.9h31.8c0.1,0,0.1-0.1,0.1-0.1c0-0.1,0-0.1-0.1-0.1H0.1C0,23.7,0,23.7,0,23.8C0,23.9,0,23.9,0.1,23.9
			L0.1,23.9z M0.1,23.9"/>
		<path class="st1" d="M0.1,16.2h31.8c0.1,0,0.1-0.1,0.1-0.1c0-0.1,0-0.1-0.1-0.1H0.1C0,16,0,16,0,16.1C0,16.2,0,16.2,0.1,16.2
			L0.1,16.2z M0.1,16.2"/>
		<path class="st1" d="M0.1,8.5h31.8C32,8.5,32,8.5,32,8.4c0-0.1,0-0.1-0.1-0.1H0.1C0,8.2,0,8.3,0,8.4C0,8.5,0,8.5,0.1,8.5L0.1,8.5z
			 M0.1,8.5"/>
		<path class="st1" d="M0.1,0.8h31.8C32,0.8,32,0.8,32,0.7c0-0.1,0-0.1-0.1-0.1H0.1C0,0.5,0,0.6,0,0.7C0,0.8,0,0.8,0.1,0.8L0.1,0.8z
			 M0.1,0.8"/>
	</g>
	<polygon class="st2" points="30.9,16.7 26,19.3 21.4,22.2 16.9,23.9 10.7,26.2 2.7,26.9 0.9,26.9 0.9,30 30.9,30 	"/>
	<polygon class="st3" points="30.9,22.2 24.6,23.6 21.3,25.3 18.1,27.1 11.5,27.6 5.6,28.4 0.9,28.4 0.9,30 30.9,30 	"/>
	<polygon class="st4" points="30.9,25.7 23.1,27.3 20.7,28.7 15.2,29.3 11,29.3 6.8,29.3 0.9,30 30.9,30 	"/>
	<ellipse class="st5" cx="4" cy="22.6" rx="0.5" ry="0.6"/>
	<ellipse class="st6" cx="3.5" cy="26.8" rx="0.5" ry="0.6"/>
	<ellipse class="st6" cx="10.6" cy="26.1" rx="0.5" ry="0.6"/>
	<ellipse class="st6" cx="17.1" cy="23.8" rx="0.5" ry="0.6"/>
	<ellipse class="st6" cx="21.2" cy="22.2" rx="0.5" ry="0.6"/>
	<ellipse class="st6" cx="26.3" cy="19.4" rx="0.5" ry="0.6"/>
	<ellipse class="st6" cx="31.1" cy="16.3" rx="0.5" ry="0.6"/>
	<ellipse class="st5" cx="12.8" cy="20.8" rx="0.5" ry="0.6"/>
	<ellipse class="st5" cx="19" cy="18.8" rx="0.5" ry="0.6"/>
	<ellipse class="st5" cx="22.3" cy="14.5" rx="0.5" ry="0.6"/>
	<ellipse class="st5" cx="25" cy="10.1" rx="0.5" ry="0.6"/>
	<ellipse class="st5" cx="30.9" cy="3" rx="0.5" ry="0.6"/>
	<ellipse class="st7" cx="7.3" cy="28.2" rx="0.4" ry="0.5"/>
	<ellipse class="st7" cx="12.9" cy="27.3" rx="0.4" ry="0.5"/>
	<ellipse class="st7" cx="18" cy="26.9" rx="0.4" ry="0.5"/>
	<ellipse class="st7" cx="24.5" cy="23.5" rx="0.4" ry="0.5"/>
	<ellipse class="st7" cx="30.9" cy="22.2" rx="0.4" ry="0.5"/>
	<ellipse class="st8" cx="23.1" cy="27.3" rx="0.5" ry="0.5"/>
	<ellipse class="st8" cx="30.9" cy="25.6" rx="0.5" ry="0.5"/>
	<ellipse class="st8" cx="20.7" cy="28.7" rx="0.5" ry="0.5"/>
	<ellipse class="st8" cx="15.2" cy="29.4" rx="0.5" ry="0.5"/>
</g>
</svg>
