<?xml version="1.0" encoding="UTF-8" standalone="no"?>
<!-- Created with Inkscape (http://www.inkscape.org/) -->

<svg
   xmlns:dc="http://purl.org/dc/elements/1.1/"
   xmlns:cc="http://creativecommons.org/ns#"
   xmlns:rdf="http://www.w3.org/1999/02/22-rdf-syntax-ns#"
   xmlns:svg="http://www.w3.org/2000/svg"
   xmlns="http://www.w3.org/2000/svg"
   xmlns:sodipodi="http://sodipodi.sourceforge.net/DTD/sodipodi-0.dtd"
   xmlns:inkscape="http://www.inkscape.org/namespaces/inkscape"
   width="122.35997mm"
   height="39.910072mm"
   viewBox="0 0 122.35997 39.910072"
   version="1.1"
   id="svg8"
   inkscape:version="0.92.1 r15371"
   sodipodi:docname="dropComponentes.svg">
  <defs
     id="defs2" />
  <sodipodi:namedview
     id="base"
     pagecolor="#ffffff"
     bordercolor="#666666"
     borderopacity="1.0"
     inkscape:pageopacity="0.0"
     inkscape:pageshadow="2"
     inkscape:zoom="1.0359552"
     inkscape:cx="320.39464"
     inkscape:cy="207.82647"
     inkscape:document-units="mm"
     inkscape:current-layer="layer1"
     showgrid="true"
     showguides="false"
     inkscape:window-width="1920"
     inkscape:window-height="1001"
     inkscape:window-x="-9"
     inkscape:window-y="100"
     inkscape:window-maximized="1"
     units="mm"
     fit-margin-top="0"
     fit-margin-left="0"
     fit-margin-right="0"
     fit-margin-bottom="0">
    <inkscape:grid
       type="xygrid"
       id="grid4524"
       originx="24.320101"
       originy="-18.584021" />
  </sodipodi:namedview>
  <metadata
     id="metadata5">
    <rdf:RDF>
      <cc:Work
         rdf:about="">
        <dc:format>image/svg+xml</dc:format>
        <dc:type
           rdf:resource="http://purl.org/dc/dcmitype/StillImage" />
        <dc:title></dc:title>
      </cc:Work>
    </rdf:RDF>
  </metadata>
  <g
     inkscape:label="Layer 1"
     inkscape:groupmode="layer"
     id="layer1"
     transform="translate(24.3201,-238.50591)">
    <g
       id="g4496"
       transform="matrix(0.5406811,0,0,0.54150728,-115.93477,171.06636)"
       style="fill:#4496c1;fill-opacity:1">
      <path
         style="fill:#4496c1;fill-opacity:1;stroke-width:0.26458332"
         d="m 256.81402,182.80914 c -2.37658,-0.99884 -3.70537,-3.23218 -3.70949,-6.23465 -0.004,-3.21602 1.02187,-5.19591 3.27544,-6.31891 2.01673,-1.00498 4.41341,-0.83198 6.04809,0.43657 0.43602,0.33836 0.42842,0.40123 -0.13229,1.09488 -0.59487,0.73591 -0.59487,0.73591 -1.643,0.19844 -0.57647,-0.29561 -1.27285,-0.53748 -1.54751,-0.53748 -1.0023,0 -2.21985,0.82598 -2.84175,1.92782 -0.84382,1.49501 -0.88875,4.32543 -0.0934,5.88022 0.98123,1.91806 3.19617,2.46662 4.89326,1.2119 0.70293,-0.5197 0.70293,-0.5197 1.4259,0.23492 0.72297,0.75462 0.72297,0.75462 -0.40036,1.49801 -0.90008,0.59565 -1.47092,0.75725 -2.87236,0.81317 -0.96197,0.0384 -2.04313,-0.0538 -2.40259,-0.20489 z m 10.44313,-0.1578 c -2.35231,-1.2362 -3.44349,-3.28603 -3.43292,-6.44887 0.0129,-3.85043 1.96885,-6.32503 5.18323,-6.55754 2.86386,-0.20715 4.90504,1.08616 5.92362,3.75326 0.35342,0.92542 0.43448,1.72979 0.34277,3.40125 -0.17453,3.18067 -1.20914,4.94537 -3.44775,5.88072 -1.25248,0.52332 -3.54583,0.50885 -4.56895,-0.0288 z m 3.58242,-1.81609 c 1.16135,-0.60056 1.88715,-2.24353 1.91391,-4.33248 0.0415,-3.24125 -1.02375,-4.92248 -3.11902,-4.92248 -2.07299,0 -3.313,1.79486 -3.29026,4.7625 0.0275,3.5841 2.15002,5.70529 4.49537,4.49246 z m 36.00489,1.69501 c -3.91392,-1.9862 -4.2507,-9.59816 -0.5335,-12.05809 1.95951,-1.29674 5.08897,-1.12802 6.86972,0.37039 1.48337,1.24817 1.95889,2.55007 1.96268,5.37355 0.003,2.1859 -0.086,2.69311 -0.67254,3.83404 -1.00092,1.94712 -2.45131,2.86792 -4.6933,2.97962 -1.42826,0.0712 -2.00061,-0.0263 -2.93306,-0.49951 z m 3.97058,-1.7071 c 1.17251,-0.60633 1.80526,-2.2028 1.81234,-4.57268 0.007,-2.29215 -0.49767,-3.57477 -1.6928,-4.30357 -2.35992,-1.43907 -4.65139,0.6056 -4.65139,4.15043 0,1.9576 0.341,3.18382 1.11816,4.02092 1.07013,1.15264 2.12616,1.3707 3.41369,0.7049 z m 55.36525,1.9467 c -0.45362,-0.14617 -1.15676,-0.53049 -1.56253,-0.85404 -0.73776,-0.58827 -0.73776,-0.58827 -0.13214,-1.40742 0.60562,-0.81914 0.60562,-0.81914 1.56254,-0.18886 1.91371,1.26049 4.19277,1.07064 4.65567,-0.38784 0.29158,-0.9187 -0.3628,-1.59874 -2.58197,-2.6832 -1.18763,-0.58036 -2.43096,-1.31039 -2.76294,-1.62227 -1.31378,-1.23424 -1.25647,-3.45563 0.12312,-4.77176 1.53363,-1.46308 3.87484,-1.68292 6.10215,-0.573 1.37572,0.68555 1.37572,0.68555 0.82768,1.4552 -0.30142,0.42331 -0.58433,0.76966 -0.62869,0.76966 -0.0444,0 -0.64374,-0.24909 -1.33198,-0.55353 -1.57394,-0.69623 -2.93288,-0.52053 -3.36848,0.43551 -0.51587,1.13221 0.0499,1.82129 2.19147,2.66925 1.05244,0.41671 2.36713,1.18301 2.92905,1.70728 0.91558,0.85423 1.01944,1.08355 1.01855,2.24896 -10e-4,1.70089 -0.73773,2.89825 -2.18729,3.55627 -1.22123,0.55437 -3.46701,0.64681 -4.85421,0.19979 z m -88.4721,-6.42707 c 0,-6.4823 0,-6.4823 1.42396,-6.4823 1.42395,0 1.42395,0 2.95108,4.23676 0.83993,2.33022 1.5653,4.1986 1.61195,4.15195 0.0466,-0.0466 0.63586,-1.62577 1.30935,-3.50916 0.67348,-1.88339 1.34304,-3.75176 1.48789,-4.15194 0.24305,-0.67146 0.37367,-0.72761 1.6927,-0.72761 1.42932,0 1.42932,0 1.42932,6.4823 0,6.48229 0,6.48229 -1.18422,6.48229 -1.18423,0 -1.18423,0 -1.25678,-4.41789 -0.0725,-4.41789 -0.0725,-4.41789 -1.23599,-1.25677 -1.49274,4.0558 -1.78319,4.61632 -2.39206,4.61632 -0.50191,0 -0.75968,-0.55733 -2.69222,-5.82083 -0.63144,-1.71979 -0.63144,-1.71979 -0.70414,2.57969 -0.0727,4.29948 -0.0727,4.29948 -1.25677,4.29948 -1.18407,0 -1.18407,0 -1.18407,-6.48229 z m 14.81667,0 c 0,-6.4823 0,-6.4823 3.1835,-6.4823 3.47088,0 4.44965,0.25212 5.53113,1.42474 0.88405,0.95855 1.05923,3.33252 0.34391,4.66068 -0.73473,1.36422 -2.3759,2.11667 -4.61669,2.11667 -1.79602,0 -1.79602,0 -1.79602,2.38125 0,2.38125 0,2.38125 -1.32291,2.38125 -1.32292,0 -1.32292,0 -1.32292,-6.48229 z m 5.7159,-0.40728 c 0.96071,-0.36526 1.4092,-1.0006 1.41944,-2.01081 0.0145,-1.42495 -0.68805,-1.97943 -2.71381,-2.14203 -1.7757,-0.14254 -1.7757,-0.14254 -1.7757,2.14264 0,2.28518 0,2.28518 1.1734,2.28518 0.64537,0 1.49887,-0.12374 1.89667,-0.27498 z m 19.41952,0.40728 c 0,-6.4823 0,-6.4823 1.30195,-6.4823 1.30196,0 1.30196,0 3.70417,4.32786 1.32122,2.38032 2.40221,4.45689 2.40221,4.6146 0,0.1577 0.0893,0.34212 0.19844,0.40981 0.10914,0.0677 0.16348,-2.00887 0.12075,-4.61459 -0.0777,-4.73768 -0.0777,-4.73768 1.12448,-4.73768 1.20216,0 1.20216,0 1.20216,6.4823 0,6.48229 0,6.48229 -1.30802,6.48229 -1.30802,0 -1.30802,0 -2.77893,-2.62074 -0.809,-1.4414 -1.97656,-3.56777 -2.59458,-4.72527 -1.12367,-2.10454 -1.12367,-2.10454 -1.04083,2.62073 0.0828,4.72528 0.0828,4.72528 -1.12448,4.72528 -1.20732,0 -1.20732,0 -1.20732,-6.48229 z m 12.96458,0 c 0,-6.4823 0,-6.4823 4.10104,-6.4823 4.10104,0 4.10104,0 4.10104,0.92605 0,0.92604 0,0.92604 -2.77812,0.92604 -2.77813,0 -2.77813,0 -2.77813,1.71979 0,1.71979 0,1.71979 2.24896,1.71979 2.24896,0 2.24896,0 2.24896,0.92604 0,0.92604 0,0.92604 -2.24896,0.92604 -2.24896,0 -2.24896,0 -2.24896,1.98438 0,1.98437 0,1.98437 2.77813,1.98437 2.77812,0 2.77812,0 2.77812,0.92605 0,0.92604 0,0.92604 -4.10104,0.92604 -4.10104,0 -4.10104,0 -4.10104,-6.48229 z m 10.84792,0 c 0,-6.4823 0,-6.4823 1.25677,-6.48203 1.4311,2.7e-4 0.97359,-0.59761 4.5155,5.90126 1.81793,3.33563 1.81793,3.33563 1.69088,-1.28295 -0.12704,-4.61858 -0.12704,-4.61858 1.09969,-4.61858 1.22674,0 1.22674,0 1.22674,6.4823 0,6.48229 0,6.48229 -1.25677,6.47968 -1.25677,-0.003 -1.25677,-0.003 -2.57969,-2.42576 -0.7276,-1.33274 -1.86454,-3.46611 -2.52653,-4.74081 -1.20362,-2.31765 -1.20362,-2.31765 -1.09166,2.42576 0.11196,4.74342 0.11196,4.74342 -1.11149,4.74342 -1.22344,0 -1.22344,0 -1.22344,-6.48229 z m 15.61041,0.92604 c 0,-5.55625 0,-5.55625 -1.85208,-5.55625 -1.85208,0 -1.85208,0 -1.85208,-0.92604 0,-0.92605 0,-0.92605 4.89479,-0.92605 4.89479,0 4.89479,0 4.89479,0.92605 0,0.92604 0,0.92604 -1.85208,0.92604 -1.85209,0 -1.85209,0 -1.85209,5.55625 0,5.55625 0,5.55625 -1.19062,5.55625 -1.19063,0 -1.19063,0 -1.19063,-5.55625 z m -68.2625,-17.89179 c -2.25557,-1.24117 -4.24987,-2.449 -4.43177,-2.68406 -0.23595,-0.3049 -0.33073,-1.76588 -0.33073,-5.0983 0,-4.15666 0.0523,-4.71823 0.47481,-5.10062 0.53585,-0.48493 8.29027,-3.36534 8.9922,-3.34018 0.25018,0.009 2.29774,0.69542 4.55014,1.52546 3.28534,1.21069 4.16106,1.63916 4.42787,2.16651 0.22577,0.44621 0.33385,2.03359 0.3365,4.94208 0.004,4.07429 -0.0254,4.31714 -0.59141,4.94471 -0.65666,0.72799 -8.29688,4.93132 -8.92969,4.91274 -0.21828,-0.006 -2.24234,-1.02716 -4.49792,-2.26834 z m 8.88825,-1.62123 c 3.27834,-1.78594 3.27834,-1.78594 3.28046,-5.27319 0.002,-3.48725 0.002,-3.48725 -2.0484,-2.73539 -5.2705,1.93252 -4.68703,1.22694 -4.76939,5.76759 -0.0402,2.21481 0.002,4.02692 0.093,4.02692 0.0913,0 1.64127,-0.80367 3.44435,-1.78593 z m -0.44369,-9.02467 c 1.94254,-0.70709 3.41824,-1.35585 3.27933,-1.44171 -0.37006,-0.2287 -6.8562,-2.56435 -7.12127,-2.56435 -0.40486,0 -7.24316,2.50954 -7.24584,2.6591 -0.003,0.18177 6.59559,2.59783 7.15008,2.61788 0.22319,0.008 1.99516,-0.56384 3.9377,-1.27092 z"
         id="path4502"
         inkscape:connector-curvature="0"
         sodipodi:nodetypes="ccscccssccscccccsccscccscscscsccccccccscccsccccccccscccccscssscscssssssssssssccsssscccsscsscsccssscscsssssssssssssssscscsscccssssssssssssccsccsccccccccssccccsccc" />
      <text
         xml:space="preserve"
         style="font-style:normal;font-variant:normal;font-weight:normal;font-stretch:normal;font-size:14.1397953px;line-height:125%;font-family:sans-serif;-inkscape-font-specification:sans-serif;letter-spacing:0px;word-spacing:0px;fill:#000000;fill-opacity:1;stroke:none;stroke-width:0.35349488px;stroke-linecap:butt;stroke-linejoin:miter;stroke-opacity:1"
         x="209.02969"
         y="145.94615"
         id="text4506"
         transform="scale(0.94569776,1.0574203)"><tspan
           sodipodi:role="line"
           id="tspan4504"
           x="209.02969"
           y="145.94615"
           style="font-style:normal;font-variant:normal;font-weight:normal;font-stretch:normal;font-family:sans-serif;-inkscape-font-specification:sans-serif;fill:#000000;fill-opacity:1;stroke-width:0.35349488px">DROP HERE</tspan></text>
      <g
         id="g4512"
         transform="matrix(0.6248409,0,0,0.53381584,198.86182,159.72918)"
         style="fill:#000000;fill-opacity:1">
        <path
           id="path4510"
           d="m 48.4,26.6 c -0.9,0 -1.7,0.7 -1.7,1.7 V 39.9 H 3.4 V 28.3 c 0,-0.9 -0.7,-1.7 -1.7,-1.7 -1,0 -1.7,0.7 -1.7,1.7 v 13.2 c 0,0.9 0.7,1.7 1.7,1.7 h 46.7 c 0.9,0 1.7,-0.7 1.7,-1.7 V 28.3 c 0,-1 -0.7,-1.7 -1.7,-1.7 z m -24.5,6.1 c 0.3,0.3 0.8,0.5 1.2,0.5 0.4,0 0.9,-0.2 1.2,-0.5 l 10,-11.6 C 37,20.4 37,19.4 36.3,18.7 35.6,18 34.6,18 33.9,18.7 L 26.8,27 V 1.7 C 26.8,0.8 26.1,0 25.1,0 c -1,0 -1.7,0.7 -1.7,1.7 v 25.9 l -7.1,-8.3 c -0.7,-0.7 -1.7,-0.7 -2.4,0 -0.7,0.7 -0.7,1.7 0,2.4 z"
           class="st0"
           inkscape:connector-curvature="0"
           style="fill:#000000;fill-opacity:1"
           inkscape:transform-center-x="1.3507842"
           inkscape:transform-center-y="2.0261763" />
      </g>
    </g>
  </g>
  <style
     id="style4508"
     type="text/css">
	.st0{fill:#E74C3C;}
</style>
</svg>
