<?xml version="1.0" encoding="iso-8859-1"?>
<!-- Generator: Adobe Illustrator 19.0.0, SVG Export Plug-In . SVG Version: 6.00 Build 0)  -->
<svg version="1.1" id="Capa_1" xmlns="http://www.w3.org/2000/svg" xmlns:xlink="http://www.w3.org/1999/xlink" x="0px" y="0px"
	 viewBox="0 0 512 512" style="enable-background:new 0 0 512 512;" xml:space="preserve">
<g>
	<g>
		<path d="M436,0c-24.814,0-45,20.186-45,45c0,10.065,3.439,19.272,9.044,26.776l-73.392,79.636C323.22,150.571,319.688,150,316,150
			c-9.212,0-17.77,2.802-24.91,7.57l-52.335-39.24c1.328-4.239,2.245-8.659,2.245-13.33c0-24.814-20.186-45-45-45
			c-24.814,0-45,20.186-45,45c0,4.671,0.917,9.091,2.245,13.33l-52.335,39.24C93.77,152.802,85.212,150,76,150
			c-24.814,0-45,20.186-45,45c0,24.814,20.186,45,45,45s45-20.186,45-45c0-4.671-0.917-9.091-2.245-13.33l52.335-39.24
			c7.139,4.768,15.698,7.57,24.91,7.57c9.212,0,17.77-2.802,24.91-7.57l52.335,39.24C271.917,185.909,271,190.329,271,195
			c0,24.814,20.186,45,45,45c24.814,0,45-20.186,45-45c0-10.065-3.439-19.272-9.044-26.776l73.392-79.636
			C428.78,89.429,432.312,90,436,90c24.814,0,45-20.186,45-45C481,20.186,460.814,0,436,0z"/>
	</g>
</g>
<g>
	<g>
		<path d="M226,240h-60c-8.291,0-15,6.709-15,15v197h90V255C241,246.709,234.291,240,226,240z"/>
	</g>
</g>
<g>
	<g>
		<path d="M346,300h-60c-8.291,0-15,6.709-15,15v137h90V315C361,306.709,354.291,300,346,300z"/>
	</g>
</g>
<g>
	<g>
		<path d="M466,180h-60c-8.291,0-15,6.709-15,15v257h90V195C481,186.709,474.291,180,466,180z"/>
	</g>
</g>
<g>
	<g>
		<path d="M106,330H46c-8.291,0-15,6.709-15,15v107h90V345C121,336.709,114.291,330,106,330z"/>
	</g>
</g>
<g>
	<g>
		<path d="M497,482c-66.985,0-97.729,0-109.871,0c-5.55,0-7.533,0-7.518,0c-22.103,0-104.372,0-364.611,0c-8.291,0-15,6.709-15,15
			c0,8.291,6.709,15,15,15c181.52,0,312.43,0,482,0c8.291,0,15-6.709,15-15C512,488.709,505.291,482,497,482z"/>
	</g>
</g>
<g>
</g>
<g>
</g>
<g>
</g>
<g>
</g>
<g>
</g>
<g>
</g>
<g>
</g>
<g>
</g>
<g>
</g>
<g>
</g>
<g>
</g>
<g>
</g>
<g>
</g>
<g>
</g>
<g>
</g>
</svg>
