<?xml version="1.0" encoding="UTF-8"?><svg id="Layer_1" xmlns="http://www.w3.org/2000/svg" viewBox="0 0 274 192"><defs><style>.cls-1{fill:#fff;}.cls-2{fill:none;stroke:#fff;stroke-miterlimit:10;stroke-width:5.55px;}</style></defs><g><path class="cls-1" d="M7.39,100.6c0-2.4,2.05-4.45,4.63-4.45s4.63,1.96,4.63,4.36c0,2.58-1.96,4.63-4.63,4.63s-4.63-2.05-4.63-4.54Zm1.42,14.77h6.32v46.81h-6.32v-46.81Z"/><path class="cls-1" d="M71.64,115.37v41.11c0,16.11-7.92,23.4-23.4,23.4-8.54,0-16.91-2.58-21.8-7.21l3.2-4.81c4.45,4,11.21,6.41,18.42,6.41,11.84,0,17.26-5.43,17.26-17v-5.96c-3.92,5.96-10.59,9.08-18.24,9.08-13.35,0-23.49-9.34-23.49-22.78s10.14-22.6,23.49-22.6c7.83,0,14.59,3.2,18.51,9.34v-8.99h6.05Zm-6.14,22.25c0-10.14-7.48-17.09-17.8-17.09s-17.71,6.94-17.71,17.09,7.39,17.18,17.71,17.18,17.8-7.03,17.8-17.18Z"/><path class="cls-1" d="M108.48,115.01v6.14c-.53,0-1.07-.09-1.51-.09-9.79,0-15.75,6.23-15.75,17.26v23.85h-6.32v-46.81h6.05v9.17c2.94-6.23,8.9-9.52,17.53-9.52Z"/><path class="cls-1" d="M162.85,138.77c0,14.24-9.97,23.85-23.32,23.85-7.47,0-13.88-3.2-17.8-9.25v26.07h-6.32V115.37h6.05v9.25c3.83-6.23,10.32-9.61,18.06-9.61,13.35,0,23.32,9.61,23.32,23.76Zm-6.32,0c0-10.86-7.56-18.24-17.44-18.24s-17.44,7.39-17.44,18.24,7.48,18.24,17.44,18.24,17.44-7.3,17.44-18.24Z"/></g><g><path class="cls-2" d="M260.69,73.51c-1.86-8.14-14.27-17.81-91.16-4.46,0-12.41,.14-20.89,0-42.01-.1-14.9-7.69-25.57-20.82-19.88-25.92,11.24-50.02,42.46-64.11,69.42-4.39,8.4-1.36,23.54,11.38,22.7,21.89-1.44,38.17-8.98,59.45-13.46,1.31,12.32,11.52,31.43,28.55,31.07,40.5-.84,79.41-31.52,76.7-43.39Zm-107.31-1.31c-9.44,1.27-32.99,6.42-53.51,12.2-.82,.23-1.57-.51-1.37-1.33,2.62-10.71,13.64-23.9,19.42-30.84,7.59-9.11,23.14-25.94,35.46-31.54-.75,12.13-.93,38.07,0,51.51Zm87.53,7.28c-8.02,7.65-37.16,21.91-52.44,23.14-10.5,.84-19.16-10.03-18.79-19.55,12.21-5.2,53.97-6.22,70.58-6.21,2.9,0,1.25,2.04,.65,2.61Z"/><path class="cls-1" d="M155.2,85.69c-.09,0-.08-.03-.02-.08l.02,.08Z"/><path class="cls-1" d="M155.97,85.27c-.56-2.85-1.96-12.58-1.96-12.58-13.72,1.61-26.75,4.83-43.72,9.06,1.57-.34,3.16-.67,4.74-.98-4.61,1.03-9.51,2.18-14.82,3.49-.11,.03-.2,.06-.31,.09-.05,.02-.08,.03-.12,.02-.02,.02-.03,.02-.05,.02-.75,.08-1.39-.61-1.2-1.37,2.62-10.71,13.64-23.9,19.42-30.83,7.59-9.12,23.76-26.78,36.07-32.39,0,0-1.03-4.46-6.58-2.07-39.02,16.8-50.96,37.88-62.8,58.81-4.68,8.25-1.37,23.54,11.38,22.7,16.76-1.09,30.24-5.78,45.19-9.93,4.55-1.26,9.24-2.48,14.22-3.52l-.03-.23c.25-.12,.59-.25,.59-.27Zm-.78,.42c-.09,0-.08-.03-.02-.08l.02,.08Z"/><path class="cls-1" d="M100.2,84.26c3.24-.92,6.58-1.73,9.91-2.46-3.15,.79-6.45,1.61-9.91,2.46Z"/><path class="cls-1" d="M155.2,85.69c-.09,0-.08-.03-.02-.08l.02,.08Z"/><path class="cls-1" d="M171.52,82.43c-.67,.22-1.28,.45-1.84,.69v-.3c.61-.12,1.22-.26,1.84-.39Z"/><g><path class="cls-1" d="M244.09,71.88c0,3.8-.7,5.88-2.4,7.47,.65-.53-.48,.48,0,0,.61-.56,1.51-2.45-1.39-2.45-4.26-.02-10.16,.06-16.8,.25,0-.02-.02-.03-.02-.05-4.21,.11-8.7,.28-13.27,.51-.84,.03-1.68,.09-2.51,.14-14.22,.79-28.62,2.21-36.15,4.66-.02,.02-.03,.02-.05,.02-.62,.12-1.83,.82-2.44,.95l-.18-10.99,.04-3.26c22.24-3.85,39.7-5.83,52.45-6.44,2.15-.11,4.18-.17,6.09-.2,.02,0,.02-.02,.02-.02h.9c.72-.02,1.42-.02,2.1-.02h.41c.92,.02,1.81,.03,2.67,.05,.39,.02,.75,.03,1.12,.05,.12,0,.27,.02,.39,.02,1.48,.06,2.9,.14,4.21,.25,2.9,1.96,4.8,5.28,4.8,9.06Z"/><polygon class="cls-1" points="169.57 72.4 169.68 82.82 169.66 82.82 169.57 72.4"/><path class="cls-1" d="M207.71,77.76c-15.46,1-26.76,2.74-36.15,4.66,7.53-2.45,21.93-3.87,36.15-4.66Z"/><path class="cls-1" d="M99.77,84.37c.14-.03,.3-.06,.44-.11-.11,.03-.2,.06-.31,.09-.05,.02-.08,.03-.12,.02Z"/><path class="cls-1" d="M155.48,86.14c-4.77,1.15-9.35,2.26-14.28,3.15,4.55-1.26,9.24-2.48,14.22-3.52l.06,.37Z"/></g></g><g><path class="cls-1" d="M171.89,136.53l.51-1.01c.88,.86,2.45,1.5,4.07,1.5,2.31,0,3.32-.97,3.32-2.19,0-3.39-7.6-1.31-7.6-5.87,0-1.82,1.41-3.39,4.55-3.39,1.39,0,2.84,.41,3.83,1.09l-.44,1.04c-1.06-.69-2.29-1.02-3.39-1.02-2.26,0-3.26,1-3.26,2.24,0,3.39,7.6,1.34,7.6,5.84,0,1.82-1.45,3.37-4.6,3.37-1.85,0-3.67-.65-4.59-1.6Z"/><path class="cls-1" d="M182.5,125.82c0-.48,.41-.88,.92-.88s.92,.39,.92,.86c0,.51-.39,.92-.92,.92s-.92-.41-.92-.9Zm.28,2.93h1.25v9.28h-1.25v-9.28Z"/><path class="cls-1" d="M201.95,132.65v5.38h-1.25v-5.26c0-1.96-.99-2.96-2.66-2.96-1.91,0-3.1,1.23-3.1,3.35v4.87h-1.25v-5.26c0-1.96-.99-2.96-2.68-2.96-1.89,0-3.1,1.23-3.1,3.35v4.87h-1.25v-9.28h1.2v1.69c.65-1.11,1.85-1.76,3.4-1.76s2.73,.65,3.3,1.96c.67-1.2,1.99-1.96,3.67-1.96,2.26,0,3.74,1.3,3.74,3.97Z"/><path class="cls-1" d="M213.88,133.39c0,2.82-1.98,4.73-4.62,4.73-1.48,0-2.75-.63-3.53-1.83v5.17h-1.25v-12.7h1.2v1.83c.76-1.24,2.05-1.91,3.58-1.91,2.65,0,4.62,1.91,4.62,4.71Zm-1.25,0c0-2.15-1.5-3.62-3.46-3.62s-3.46,1.46-3.46,3.62,1.48,3.62,3.46,3.62,3.46-1.45,3.46-3.62Z"/><path class="cls-1" d="M215.56,124.94h1.25v13.09h-1.25v-13.09Z"/><path class="cls-1" d="M227.5,133.78h-7.76c.14,1.94,1.62,3.23,3.65,3.23,1.13,0,2.13-.41,2.84-1.22l.71,.81c-.83,.99-2.12,1.52-3.58,1.52-2.89,0-4.87-1.98-4.87-4.73s1.92-4.71,4.53-4.71,4.5,1.92,4.5,4.71c0,.11-.02,.25-.02,.39Zm-7.76-.93h6.58c-.16-1.82-1.48-3.09-3.3-3.09s-3.12,1.27-3.28,3.09Z"/><path class="cls-1" d="M228.38,137.14c0-.55,.42-.95,.94-.95s.95,.41,.95,.95-.44,.97-.95,.97-.94-.42-.94-.97Z"/><path class="cls-1" d="M170.98,154.16l.78-.88c.67,.99,1.57,1.52,2.66,1.52,1.52,0,2.29-.9,2.29-2.72v-7.48h-4.52v-1.13h5.8v8.56c0,2.61-1.24,3.9-3.6,3.9-1.39,0-2.66-.63-3.42-1.76Z"/><path class="cls-1" d="M189.13,146.54v9.28h-1.2v-1.69c-.65,1.13-1.85,1.78-3.33,1.78-2.36,0-3.92-1.32-3.92-3.99v-5.38h1.25v5.26c0,1.98,1.02,2.98,2.79,2.98,1.94,0,3.16-1.25,3.16-3.37v-4.87h1.25Z"/><path class="cls-1" d="M190.47,154.76l.56-.99c.74,.58,1.99,1.04,3.3,1.04,1.76,0,2.49-.6,2.49-1.52,0-2.42-6.01-.51-6.01-4.18,0-1.52,1.3-2.65,3.67-2.65,1.2,0,2.5,.33,3.28,.86l-.55,1c-.81-.56-1.78-.79-2.73-.79-1.68,0-2.42,.65-2.42,1.53,0,2.5,6.02,.62,6.02,4.18,0,1.61-1.41,2.65-3.83,2.65-1.53,0-3.02-.49-3.77-1.15Z"/><path class="cls-1" d="M204.39,155.26c-.49,.44-1.24,.65-1.96,.65-1.75,0-2.72-.99-2.72-2.7v-5.61h-1.66v-1.06h1.66v-2.03h1.25v2.03h2.82v1.06h-2.82v5.54c0,1.09,.56,1.69,1.61,1.69,.51,0,1.02-.16,1.38-.48l.44,.9Z"/><path class="cls-1" d="M208.69,149.65c0-3.62,2.75-6.28,6.47-6.28,1.8,0,3.42,.6,4.52,1.8l-.83,.83c-1-1.02-2.24-1.46-3.65-1.46-2.98,0-5.22,2.19-5.22,5.12s2.24,5.12,5.22,5.12c1.41,0,2.65-.44,3.65-1.48l.83,.83c-1.09,1.2-2.72,1.82-4.53,1.82-3.7,0-6.46-2.66-6.46-6.28Z"/><path class="cls-1" d="M226,146.47v1.22c-.11,0-.21-.02-.3-.02-1.94,0-3.12,1.23-3.12,3.42v4.73h-1.25v-9.28h1.2v1.82c.58-1.24,1.76-1.89,3.48-1.89Z"/><path class="cls-1" d="M235.37,151.57h-7.76c.14,1.94,1.62,3.23,3.65,3.23,1.13,0,2.13-.41,2.84-1.22l.71,.81c-.83,.99-2.12,1.52-3.58,1.52-2.89,0-4.87-1.98-4.87-4.73s1.92-4.71,4.53-4.71,4.5,1.92,4.5,4.71c0,.11-.02,.25-.02,.39Zm-7.76-.93h6.58c-.16-1.82-1.48-3.09-3.3-3.09s-3.12,1.27-3.28,3.09Z"/><path class="cls-1" d="M243.8,150.07v5.75h-1.2v-1.45c-.56,.95-1.66,1.53-3.19,1.53-2.1,0-3.39-1.09-3.39-2.7,0-1.43,.92-2.63,3.58-2.63h2.95v-.56c0-1.59-.9-2.45-2.63-2.45-1.2,0-2.33,.42-3.09,1.09l-.56-.94c.94-.79,2.31-1.25,3.78-1.25,2.4,0,3.76,1.2,3.76,3.6Zm-1.25,2.96v-1.52h-2.91c-1.8,0-2.38,.71-2.38,1.66,0,1.08,.86,1.75,2.35,1.75s2.45-.67,2.95-1.89Z"/><path class="cls-1" d="M251.21,155.26c-.49,.44-1.23,.65-1.96,.65-1.75,0-2.72-.99-2.72-2.7v-5.61h-1.66v-1.06h1.66v-2.03h1.25v2.03h2.82v1.06h-2.82v5.54c0,1.09,.56,1.69,1.61,1.69,.51,0,1.02-.16,1.38-.48l.44,.9Z"/><path class="cls-1" d="M260.35,151.57h-7.76c.14,1.94,1.62,3.23,3.65,3.23,1.13,0,2.13-.41,2.84-1.22l.71,.81c-.83,.99-2.12,1.52-3.58,1.52-2.89,0-4.87-1.98-4.87-4.73s1.92-4.71,4.53-4.71,4.5,1.92,4.5,4.71c0,.11-.02,.25-.02,.39Zm-7.76-.93h6.58c-.16-1.82-1.48-3.09-3.3-3.09s-3.12,1.27-3.28,3.09Z"/><path class="cls-1" d="M261.65,154.99c0-.51,.41-.9,.93-.9s.92,.39,.92,.9-.39,.92-.92,.92-.93-.42-.93-.92Zm.19-11.52h1.48l-.26,8.64h-.97l-.25-8.64Z"/></g></svg>