<svg width="315" height="168" viewBox="0 0 315 168" fill="none" xmlns="http://www.w3.org/2000/svg">
<path opacity="0.8" d="M26.9111 93.3584H90.6151C92.7727 93.3584 94.7031 94.3793 95.9522 96.0809L148.074 168H68.2449L21.574 103.795C18.5081 99.484 21.574 93.3584 26.9111 93.3584Z" fill="#D0D7DF"/>
<path opacity="0.8" d="M189.409 93.3584H125.705C123.547 93.3584 121.617 94.3793 120.368 96.0809L68.2461 168H148.188L194.746 103.795C197.812 99.484 194.746 93.3584 189.409 93.3584Z" fill="#5BA2D6"/>
<path opacity="0.8" d="M125.702 93.3584H189.407C191.564 93.3584 193.494 94.3793 194.744 96.0809L246.865 168H166.923L120.365 103.795C117.186 99.484 120.365 93.3584 125.702 93.3584Z" fill="#D0D7DF"/>
<path opacity="0.8" d="M288.084 93.3584H224.38C222.223 93.3584 220.292 94.3793 219.043 96.0809L166.922 168H246.864L293.421 103.795C296.601 99.484 293.535 93.3584 288.084 93.3584Z" fill="#5BA2D6"/>
<path d="M4.54218 0C5.79128 0 6.92682 0.453748 7.83526 1.36124C8.74369 2.26874 9.19791 3.28967 9.19791 4.65091C9.19791 5.89872 8.74369 6.91965 7.83526 7.82714C6.92682 8.73464 5.79128 9.18839 4.54218 9.18839C3.29308 9.18839 2.27109 8.73464 1.36265 7.82714C0.454218 6.91965 0 5.89872 0 4.65091C0 3.28967 0.454218 2.26874 1.36265 1.36124C2.27109 0.453748 3.29308 0 4.54218 0ZM1.81687 17.8096H7.38104V61.029H1.81687V17.8096Z" fill="black"/>
<path d="M56.2089 17.8093H61.7731V52.1807C61.7731 58.1928 61.2053 62.7303 60.1833 65.4528C58.7071 69.4231 56.2089 72.4859 52.5752 74.6412C48.9414 76.7965 44.6263 77.8174 39.5164 77.8174C35.7691 77.8174 32.476 77.2502 29.5236 76.2293C26.5712 75.2084 24.1865 73.7337 22.2561 72.0321C20.4392 70.2172 18.7359 67.7215 17.1462 64.3184H23.1646C24.7543 67.1544 26.9119 69.3097 29.5236 70.6709C32.1354 72.0321 35.3149 72.7128 39.1757 72.7128C42.923 72.7128 46.2161 72.0321 48.8279 70.5575C51.4396 69.1962 53.2565 67.3812 54.392 65.2259C55.5276 63.0706 56.0953 59.6675 56.0953 54.9032V52.6344C54.0514 55.2435 51.4396 57.2853 48.3736 58.76C45.3077 60.1213 42.1281 60.9153 38.7215 60.9153C34.7471 60.9153 30.9998 59.8944 27.4796 57.966C23.9594 56.0375 21.2341 53.3151 19.3037 50.0254C17.3733 46.7357 16.4648 42.9923 16.4648 39.022C16.4648 35.0517 17.4868 31.3083 19.4173 27.7918C21.3477 24.2752 24.1865 21.5527 27.7067 19.6243C31.2269 17.5825 34.9742 16.5615 38.8351 16.5615C42.1281 16.5615 45.0806 17.2421 47.9194 18.6034C50.7583 19.9646 53.37 22.1199 55.9818 25.1827V17.8093H56.2089ZM39.8571 22.0065C36.6775 22.0065 33.7251 22.8005 31.1134 24.2752C28.3881 25.7499 26.3441 27.9052 24.7543 30.6277C23.1646 33.3502 22.4832 36.1861 22.4832 39.3623C22.4832 44.1267 24.073 47.9835 27.2525 51.1598C30.432 54.2226 34.52 55.8107 39.63 55.8107C44.7399 55.8107 48.8279 54.2226 52.0074 51.1598C55.0734 48.097 56.6631 44.0132 56.6631 39.022C56.6631 35.7324 55.9818 32.8964 54.5056 30.2874C53.0294 27.6783 51.0989 25.7499 48.3736 24.2752C45.6483 22.8005 42.8095 22.0065 39.8571 22.0065Z" fill="black"/>
<path d="M71.6526 17.81H77.3303V24.1625C79.0337 21.6668 80.8505 19.8519 82.6674 18.6041C84.5978 17.3562 86.5283 16.7891 88.5722 16.7891C90.162 16.7891 91.7518 17.2428 93.4551 18.2637L90.5027 22.9147C89.3671 22.4609 88.3451 22.1206 87.5502 22.1206C85.7334 22.1206 83.9165 22.9147 82.2132 24.3893C80.5099 25.864 79.1472 28.2462 78.2388 31.5359C77.5575 34.0315 77.2168 39.0227 77.2168 46.5095V61.1429H71.5391V17.81H71.6526Z" fill="black"/>
<path d="M98.3398 17.8092H103.904V25.7498C106.062 22.687 108.673 20.4182 111.512 18.9435C114.351 17.4689 117.531 16.6748 121.051 16.6748C127.183 16.6748 132.406 18.8301 136.835 23.2541C141.15 27.6782 143.421 33.0097 143.421 39.2487C143.421 45.6012 141.263 51.0462 136.948 55.4702C132.633 59.8942 127.41 62.163 121.278 62.163C117.871 62.163 114.692 61.4824 111.739 60.0077C108.9 58.533 106.289 56.4911 103.904 53.6552V76.9098H98.3398V17.8092ZM120.596 22.0063C115.827 22.0063 111.739 23.7079 108.446 26.9976C105.153 30.4007 103.563 34.4844 103.563 39.5891C103.563 42.8787 104.245 45.8281 105.721 48.4371C107.197 51.0462 109.241 53.088 112.08 54.6762C114.805 56.2643 117.758 56.9449 120.71 56.9449C123.662 56.9449 126.501 56.1508 129.113 54.6762C131.725 53.088 133.882 50.9327 135.359 48.2102C136.948 45.4878 137.743 42.5384 137.743 39.4756C137.743 36.4128 136.948 33.4635 135.472 30.741C133.882 28.0185 131.838 25.8632 129.227 24.3885C126.501 22.8004 123.662 22.0063 120.596 22.0063Z" fill="black"/>
<path d="M148.188 17.8096H158.862L167.605 42.4254L176.917 17.8096H183.389L192.587 42.0851L201.331 17.8096H212.005L196.221 61.029H189.294L180.096 36.4132L170.558 61.029H163.744L148.188 17.8096Z" fill="black"/>
<path d="M261.515 42.5395H226.654C227.108 45.6023 228.471 48.0979 230.742 49.9129C232.899 51.7279 235.738 52.6354 239.145 52.6354C243.233 52.6354 246.639 51.2742 249.592 48.4383L258.79 52.7489C256.519 55.9251 253.793 58.4207 250.614 59.8954C247.434 61.4835 243.687 62.1641 239.258 62.1641C232.445 62.1641 226.994 60.0088 222.679 55.6982C218.364 51.3876 216.32 46.0561 216.32 39.5902C216.32 33.0108 218.478 27.5659 222.679 23.1418C226.881 18.8312 232.218 16.5625 238.691 16.5625C245.504 16.5625 251.068 18.7178 255.27 23.1418C259.585 27.4524 261.629 33.2377 261.629 40.3842L261.515 42.5395ZM250.614 34.0318C249.932 31.6496 248.456 29.6077 246.412 28.1331C244.255 26.6584 241.87 25.8643 239.031 25.8643C235.965 25.8643 233.353 26.6584 231.082 28.3599C229.606 29.3809 228.357 31.3093 227.108 33.9183H250.614V34.0318Z" fill="black"/>
<path d="M281.045 1.13477V22.5743C282.976 20.6459 285.133 19.1712 287.405 18.1503C289.676 17.1294 292.174 16.6756 294.672 16.6756C300.35 16.6756 305.119 18.8309 309.093 23.0281C313.068 27.2252 314.998 32.7836 314.998 39.4764C314.998 45.9423 312.954 51.2739 308.866 55.5845C304.778 59.8951 299.896 62.0504 294.331 62.0504C291.833 62.0504 289.562 61.5966 287.405 60.6891C285.247 59.7816 283.089 58.3069 281.045 56.3785V60.916H270.258V1.13477H281.045ZM292.515 26.6581C289.108 26.6581 286.269 27.7924 283.998 30.1746C281.727 32.5568 280.591 35.5061 280.591 39.363C280.591 43.2198 281.727 46.2826 283.998 48.6648C286.269 51.047 289.108 52.1814 292.515 52.1814C295.808 52.1814 298.646 50.9335 300.918 48.5514C303.189 46.1692 304.324 43.1064 304.324 39.363C304.324 35.6196 303.189 32.6702 301.031 30.288C298.646 27.9059 295.921 26.6581 292.515 26.6581Z" fill="black"/>
</svg>
