<?xml version="1.0" encoding="UTF-8"?><svg id="Layer_1" xmlns="http://www.w3.org/2000/svg" viewBox="0 0 274 192"><defs><style>.cls-1{letter-spacing:-.07em;}.cls-2,.cls-3,.cls-4{fill:#fff;}.cls-5{letter-spacing:-.05em;}.cls-6{letter-spacing:-.05em;}.cls-7{letter-spacing:-.05em;}.cls-3{font-size:73.47px;}.cls-3,.cls-4{font-family:Montserrat-Regular, Montserrat;}.cls-8{letter-spacing:-.06em;}.cls-9{letter-spacing:-.06em;}.cls-10{letter-spacing:-.06em;}.cls-4{font-size:14.56px;}.cls-11{fill:none;stroke:#fff;stroke-miterlimit:10;stroke-width:.96px;}</style></defs><text class="cls-3" transform="translate(26.57 154.26)"><tspan class="cls-5" x="0" y="0">ig</tspan><tspan class="cls-10" x="62.81" y="0">r</tspan><tspan class="cls-5" x="88.01" y="0">p</tspan></text><g><path class="cls-11" d="M241.79,81.06c-1.53-6.72-11.78-14.7-75.26-3.68,0-10.25,.12-17.24,0-34.68-.08-12.3-6.35-21.11-17.19-16.41-21.4,9.28-41.3,35.05-52.92,57.31-3.62,6.93-1.13,19.43,9.39,18.74,18.07-1.19,31.51-7.42,49.08-11.11,1.08,10.17,9.51,25.94,23.57,25.65,33.43-.69,65.56-26.02,63.32-35.82Zm-88.59-1.08c-7.79,1.05-27.24,5.3-44.17,10.07-.68,.19-1.3-.42-1.13-1.1,2.16-8.84,11.26-19.73,16.03-25.46,6.27-7.52,19.1-21.42,29.27-26.04-.62,10.01-.77,31.43,0,42.52Zm72.26,6.01c-6.63,6.32-30.68,18.09-43.29,19.1-8.67,.7-15.82-8.28-15.51-16.14,10.08-4.29,44.56-5.14,58.27-5.13,2.4,0,1.03,1.68,.54,2.16Z"/><path class="cls-2" d="M154.69,91.12c-.08,0-.06-.03-.01-.06v.06Z"/><path class="cls-2" d="M155.34,90.77c-.46-2.35-1.62-10.39-1.62-10.39-11.32,1.33-22.08,3.99-36.1,7.48,1.3-.28,2.61-.55,3.91-.81-3.81,.85-7.85,1.8-12.24,2.88-.09,.03-.17,.05-.26,.08-.04,.01-.06,.03-.1,.01-.01,.01-.03,.01-.04,.01-.62,.06-1.15-.5-.99-1.13,2.16-8.84,11.26-19.73,16.03-25.45,6.27-7.53,19.61-22.11,29.78-26.74,0,0-.85-3.68-5.43-1.71-32.21,13.87-42.07,31.27-51.85,48.55-3.86,6.81-1.13,19.43,9.39,18.74,13.83-.9,24.97-4.77,37.31-8.2,3.76-1.04,7.63-2.05,11.74-2.91l-.03-.19c.21-.1,.49-.21,.49-.22Zm-.64,.35c-.08,0-.06-.03-.01-.06v.06Z"/><path class="cls-2" d="M109.29,89.93c2.68-.76,5.43-1.43,8.18-2.03-2.6,.66-5.33,1.33-8.18,2.03Z"/><path class="cls-2" d="M154.69,91.12c-.08,0-.06-.03-.01-.06v.06Z"/><path class="cls-2" d="M168.17,88.43c-.55,.18-1.06,.37-1.52,.57v-.24c.5-.1,1-.22,1.52-.32Z"/><g><path class="cls-2" d="M228.08,79.72c0,3.14-.58,4.85-1.98,6.16,.54-.44-.4,.4,0,0,.5-.46,1.25-2.02-1.15-2.02-3.51-.01-8.39,.05-13.87,.21,0-.01-.01-.03-.01-.04-3.47,.09-7.18,.23-10.95,.42-.69,.03-1.39,.08-2.07,.12-11.74,.66-23.63,1.83-29.84,3.85-.01,.01-.03,.01-.04,.01-.51,.1-1.51,.68-2.01,.78l-.15-9.07,.03-2.69c18.36-3.18,32.78-4.81,43.3-5.32,1.78-.09,3.45-.14,5.03-.17,.01,0,.01-.01,.01-.01h.75c.59-.01,1.17-.01,1.74-.01h.33c.76,.01,1.49,.03,2.2,.04,.32,.01,.62,.03,.93,.04,.1,0,.22,.01,.32,.01,1.22,.05,2.39,.12,3.47,.21,2.39,1.62,3.96,4.36,3.96,7.48Z"/><polygon class="cls-2" points="166.56 80.14 166.65 88.75 166.64 88.75 166.56 80.14"/><path class="cls-2" d="M198.05,84.57c-12.77,.82-22.1,2.26-29.84,3.85,6.22-2.02,18.11-3.19,29.84-3.85Z"/><path class="cls-2" d="M108.93,90.02c.12-.03,.24-.05,.36-.09-.09,.03-.17,.05-.26,.08-.04,.01-.06,.03-.1,.01Z"/><path class="cls-2" d="M154.92,91.49c-3.94,.95-7.72,1.87-11.79,2.6,3.76-1.04,7.63-2.05,11.74-2.91l.05,.31Z"/></g></g><text class="cls-4" transform="translate(167.79 134.32)"><tspan class="cls-6"><tspan x="0" y="0">Simple.</tspan></tspan><tspan class="cls-6" x="0" y="14.69">Just C</tspan><tspan class="cls-8" x="40.05" y="14.69">r</tspan><tspan class="cls-9" x="44.97" y="14.69">e</tspan><tspan class="cls-7" x="52.83" y="14.69">a</tspan><tspan class="cls-1" x="60.69" y="14.69">t</tspan><tspan class="cls-6" x="65.6" y="14.69">e!</tspan></text></svg>