<?xml version="1.0" standalone="no"?>
<!DOCTYPE svg PUBLIC "-//W3C//DTD SVG 20010904//EN"
 "http://www.w3.org/TR/2001/REC-SVG-20010904/DTD/svg10.dtd">
<svg version="1.0" xmlns="http://www.w3.org/2000/svg"
 width="1016.000000pt" height="1016.000000pt" viewBox="0 0 1016.000000 1016.000000"
 preserveAspectRatio="xMidYMid meet">
<metadata>
Created by potrace 1.11, written by Peter Selinger 2001-2013
</metadata>
<g transform="translate(0.000000,1016.000000) scale(0.100000,-0.100000)"
fill="#000000" stroke="none">
<path d="M4979 10122 c-22 -23 -49 -47 -140 -122 -53 -44 -104 -87 -123 -103
-11 -11 -41 -35 -65 -55 -24 -21 -55 -46 -67 -57 -43 -36 -98 -84 -145 -122
-25 -21 -53 -45 -63 -53 -9 -8 -31 -27 -47 -42 -16 -16 -34 -28 -39 -28 -6 0
-10 -7 -10 -16 0 -8 -4 -13 -9 -10 -5 4 -11 3 -13 -1 -1 -5 -30 -30 -63 -58
-33 -27 -69 -58 -80 -68 -11 -11 -36 -31 -55 -46 -19 -14 -42 -33 -50 -41 -23
-21 -103 -89 -190 -161 -41 -34 -85 -73 -97 -86 -12 -12 -25 -23 -28 -23 -8 0
-169 -141 -173 -152 -2 -4 -10 -8 -17 -8 -7 0 -15 -3 -17 -7 -1 -5 -22 -24
-44 -43 -114 -96 -149 -126 -166 -142 -10 -10 -21 -18 -24 -18 -3 0 -24 -19
-47 -42 -23 -23 -43 -41 -45 -39 -2 1 -29 -20 -61 -48 -32 -28 -69 -59 -82
-70 -13 -10 -42 -35 -63 -55 -22 -20 -44 -36 -48 -36 -4 0 -8 -7 -8 -15 0 -8
-4 -14 -8 -13 -16 5 -149 -110 -144 -124 1 -4 -2 -7 -7 -6 -19 5 -134 -95
-123 -107 4 -5 2 -5 -4 -2 -7 4 -26 -5 -43 -21 -17 -15 -45 -38 -62 -52 -17
-14 -46 -38 -63 -55 -17 -16 -44 -38 -59 -48 -15 -10 -25 -22 -22 -28 4 -5 2
-8 -3 -7 -5 2 -28 -13 -51 -32 -23 -19 -50 -42 -60 -50 -10 -8 -40 -33 -67
-55 -26 -22 -63 -55 -81 -72 -19 -18 -36 -33 -39 -33 -5 0 -72 -56 -146 -122
-23 -21 -46 -38 -50 -38 -4 0 -8 -7 -8 -16 0 -8 -4 -13 -8 -10 -7 4 -32 -16
-129 -104 -12 -11 -25 -20 -28 -20 -3 0 -19 -13 -37 -30 -17 -16 -35 -30 -40
-30 -5 0 -6 -4 -3 -10 3 -5 1 -10 -5 -10 -6 0 -17 -6 -25 -12 -7 -7 -32 -29
-55 -48 -39 -32 -61 -51 -129 -109 -13 -12 -28 -21 -33 -21 -5 0 -6 -4 -3 -10
3 -5 1 -10 -5 -10 -6 0 -20 -8 -30 -18 -20 -18 -20 -43 -18 -2003 2 -1581 6
-1983 16 -1981 6 1 12 -2 12 -6 0 -5 30 -24 67 -43 37 -19 74 -40 81 -46 7 -7
24 -16 38 -19 13 -3 24 -10 24 -14 0 -8 27 -18 43 -16 5 1 13 -7 18 -17 6 -9
18 -17 28 -17 11 0 21 -7 25 -15 3 -8 9 -15 13 -14 15 2 53 -13 53 -22 0 -5 9
-9 20 -9 11 0 20 -4 20 -9 0 -5 16 -16 35 -25 19 -9 37 -21 40 -26 4 -6 10 -8
14 -5 5 2 19 -4 31 -15 12 -11 27 -17 31 -14 5 3 9 1 9 -3 0 -5 26 -22 58 -38
31 -17 59 -32 62 -35 3 -3 14 -10 25 -16 51 -28 135 -75 185 -103 30 -18 66
-37 80 -44 14 -6 27 -14 30 -18 7 -9 83 -47 94 -47 5 0 12 -4 15 -9 6 -10 86
-56 173 -101 27 -13 50 -28 54 -33 3 -5 10 -7 15 -4 5 4 9 2 9 -3 0 -6 19 -19
43 -31 23 -12 65 -34 92 -50 28 -16 70 -39 95 -52 25 -12 47 -25 50 -28 5 -6
64 -39 145 -80 17 -9 32 -19 33 -24 2 -4 8 -5 13 -1 5 3 9 0 9 -5 0 -6 6 -11
14 -11 8 0 21 -6 28 -12 7 -7 27 -20 43 -28 17 -8 37 -19 45 -26 8 -6 40 -24
70 -40 30 -15 67 -37 83 -47 15 -10 27 -15 27 -10 0 4 4 3 8 -3 4 -6 41 -28
82 -50 41 -21 77 -42 78 -46 2 -5 7 -8 12 -8 4 0 34 -16 66 -35 31 -19 59 -33
62 -31 2 3 13 -4 24 -14 23 -21 108 -65 121 -62 4 1 7 -3 7 -9 0 -10 58 -35
73 -31 5 1 6 -1 3 -6 -3 -5 23 -24 57 -42 34 -19 80 -44 102 -56 22 -13 56
-31 75 -41 19 -9 37 -19 40 -22 3 -4 14 -11 25 -17 11 -6 43 -23 70 -39 28
-15 79 -43 115 -63 36 -19 70 -38 75 -42 30 -23 143 -78 149 -73 3 4 6 -1 6
-10 0 -10 5 -17 10 -17 6 0 58 -27 117 -60 58 -33 109 -58 112 -54 3 3 6 864
6 1913 l0 1907 -112 67 c-62 37 -117 67 -122 67 -6 0 -11 4 -11 8 0 5 -18 17
-40 28 -22 10 -40 22 -40 25 0 3 -16 11 -35 19 -19 8 -35 17 -35 22 0 4 -7 8
-15 8 -8 0 -15 4 -15 8 0 4 -12 13 -27 19 -37 15 -87 46 -91 56 -2 4 -9 7 -16
7 -7 0 -23 9 -36 20 -12 11 -27 17 -31 14 -5 -3 -9 -1 -9 4 0 8 -82 59 -88 54
-1 -1 -12 7 -24 18 -12 11 -28 20 -35 20 -7 0 -13 5 -13 10 0 6 -7 10 -15 10
-8 0 -15 5 -15 11 0 5 -4 8 -9 5 -5 -3 -14 1 -21 9 -7 8 -18 15 -25 15 -7 0
-18 7 -25 15 -7 9 -15 13 -17 11 -3 -3 -14 4 -26 15 -11 10 -27 19 -34 19 -7
0 -13 5 -13 10 0 6 -5 10 -10 10 -6 0 -22 7 -35 16 l-25 16 29 27 c15 14 61
55 101 91 40 36 90 81 110 100 52 49 185 169 245 221 27 24 64 58 82 76 18 18
33 31 33 29 0 -2 17 13 38 32 20 20 36 39 35 44 -2 4 1 7 5 5 13 -3 92 69 84
77 -4 4 -2 6 4 4 11 -3 28 11 109 87 24 22 66 60 95 85 29 25 62 55 74 67 l21
22 0 1865 c0 1026 -3 1867 -5 1870 -3 2 -17 -7 -31 -22z m-809 -4906 c0 -2 -8
-10 -17 -17 -16 -13 -17 -12 -4 4 13 16 21 21 21 13z m640 -960 c0 -2 -8 -10
-17 -17 -16 -13 -17 -12 -4 4 13 16 21 21 21 13z"/>
<path d="M5279 9405 c-7 -25 -2 -92 6 -97 7 -5 7 -8 0 -8 -9 0 -13 -303 -5
-320 1 -3 1 -9 0 -15 -7 -25 -6 -312 1 -326 5 -9 5 -20 1 -23 -10 -11 -10
-338 1 -360 5 -11 5 -16 0 -13 -8 5 -11 -220 -3 -248 1 -5 1 -12 0 -15 -7 -14
-5 -607 2 -621 4 -9 4 -20 0 -23 -10 -11 -10 -338 1 -360 5 -11 5 -16 0 -13
-8 5 -11 -220 -3 -248 1 -5 1 -12 0 -15 -7 -14 -5 -607 2 -621 4 -9 4 -20 0
-23 -10 -11 -10 -338 1 -360 5 -10 5 -16 0 -13 -5 3 -8 -46 -8 -111 l0 -116
140 -82 c77 -46 145 -87 151 -93 6 -5 26 -17 45 -26 19 -10 37 -23 41 -29 4
-6 8 -7 8 -3 0 4 19 -5 43 -21 23 -16 47 -31 52 -33 6 -2 35 -20 65 -39 30
-19 57 -33 59 -32 2 2 7 -1 10 -6 6 -9 66 -43 76 -42 3 0 13 -8 23 -17 10 -10
35 -27 57 -38 22 -11 42 -23 45 -26 6 -7 83 -53 120 -71 14 -7 31 -18 38 -25
7 -7 18 -13 23 -13 5 0 9 -7 9 -15 0 -8 -4 -15 -10 -15 -5 0 -28 -17 -50 -39
-22 -21 -40 -36 -40 -32 0 3 -12 -6 -28 -21 -53 -52 -83 -78 -89 -78 -3 0 -25
-19 -47 -42 -23 -23 -42 -40 -44 -39 -7 5 -70 -58 -64 -64 4 -4 3 -6 -3 -4
-18 4 -45 -13 -45 -28 0 -8 -4 -12 -9 -8 -5 3 -18 -6 -29 -20 -11 -14 -23 -25
-28 -25 -4 0 -14 -7 -23 -15 -54 -53 -118 -106 -134 -111 -14 -5 -16 -9 -6
-20 10 -12 9 -13 -5 -8 -12 5 -26 -1 -41 -17 -12 -13 -44 -42 -70 -64 -26 -22
-57 -48 -68 -57 -11 -10 -24 -18 -29 -18 -4 0 -8 -7 -8 -15 0 -8 -6 -15 -12
-15 -7 0 -27 -14 -45 -30 -18 -17 -37 -30 -42 -30 -6 0 -11 -6 -11 -14 0 -8
-6 -16 -12 -19 -16 -5 -19 -537 -3 -537 6 0 6 -3 -1 -8 -13 -9 -13 -94 1 -104
7 -5 7 -8 0 -8 -8 0 -13 -178 -5 -187 3 -4 3 -51 0 -60 -9 -27 -4 -389 5 -395
7 -5 7 -8 0 -8 -12 0 -13 -59 -2 -76 3 -6 3 -14 -1 -18 -11 -12 -9 -200 3
-208 6 -5 6 -8 0 -8 -6 0 -10 -36 -9 -92 1 -51 3 -93 4 -93 5 0 5 -57 0 -60
-9 -6 -5 -589 4 -604 6 -9 5 -12 -1 -8 -14 9 -12 -85 2 -95 7 -5 7 -8 0 -8 -8
0 -13 -178 -5 -187 3 -4 3 -51 0 -60 -9 -27 -4 -389 5 -395 7 -5 7 -8 0 -8
-12 0 -13 -59 -2 -76 3 -6 3 -14 -1 -18 -11 -12 -9 -200 3 -208 6 -5 6 -8 0
-8 -9 0 -13 -173 -5 -190 1 -3 1 -9 0 -15 -8 -35 -5 -135 4 -135 8 0 8 -3 1
-8 -11 -7 -16 -102 -5 -102 16 1 51 41 44 51 -4 7 -3 9 3 6 12 -7 41 17 157
128 41 38 87 81 104 95 17 14 31 31 32 38 0 7 4 11 9 8 5 -3 25 12 45 34 20
22 38 40 41 40 2 0 29 24 59 52 29 29 86 82 126 118 39 36 95 88 124 115 29
28 85 79 124 115 39 35 68 68 65 74 -3 5 -2 6 4 3 5 -3 45 27 88 68 42 41 79
75 81 75 2 0 29 25 59 55 31 30 57 55 59 55 1 0 34 30 73 67 40 38 104 98 145
135 40 37 98 90 128 118 30 28 54 55 52 61 -1 6 2 8 8 4 5 -3 10 -1 10 4 0 6
4 11 10 11 5 0 34 25 65 55 30 30 55 52 55 47 1 -4 7 4 15 18 8 14 14 22 15
18 0 -3 15 8 33 25 17 16 31 34 29 39 -1 5 2 7 7 4 5 -3 23 10 40 29 17 19 33
35 35 35 5 0 53 44 178 163 33 31 64 57 68 57 5 0 12 9 15 21 4 11 9 18 12 15
3 -2 22 12 42 32 21 20 72 69 114 107 42 39 115 106 162 150 47 45 85 79 85
78 0 -2 34 30 75 70 41 40 75 71 75 70 0 -2 9 5 21 16 12 11 18 24 15 30 -4 7
-1 9 8 5 9 -3 20 3 28 15 7 12 16 21 19 21 13 0 84 74 81 84 -2 6 0 8 3 4 7
-7 53 32 146 124 20 20 39 34 41 32 3 -2 11 7 18 21 7 14 17 25 22 25 5 0 24
15 42 33 18 17 58 55 88 82 30 28 102 95 161 149 l107 100 0 1854 c0 1672 -2
1854 -16 1848 -8 -3 -13 -2 -9 3 6 10 -46 51 -64 51 -6 0 -11 4 -11 9 0 5 -9
13 -20 16 -11 3 -26 12 -32 18 -23 21 -138 97 -148 97 -6 0 -10 4 -10 8 0 5
-16 17 -35 28 -19 10 -35 22 -35 27 0 4 -4 6 -9 3 -5 -4 -11 -2 -13 2 -4 12
-155 112 -168 112 -6 0 -9 4 -6 8 2 4 -8 13 -23 20 -15 7 -37 21 -49 32 -12
11 -24 20 -27 20 -4 0 -22 12 -41 26 -19 15 -34 22 -34 18 0 -5 -5 -1 -11 9
-5 9 -14 17 -19 17 -6 0 -18 7 -27 16 -10 8 -47 34 -83 57 -36 23 -66 45 -68
49 -2 4 -10 8 -18 8 -8 0 -14 5 -14 10 0 6 -6 10 -14 10 -8 0 -16 3 -18 8 -4
10 -157 112 -168 112 -4 0 -10 4 -12 8 -6 14 -66 52 -83 52 -9 0 -14 4 -11 9
3 4 -10 17 -29 27 -19 10 -35 22 -35 26 0 5 -5 8 -11 8 -6 0 -39 20 -73 45
-35 25 -69 45 -75 45 -6 0 -11 3 -11 8 0 4 -28 25 -63 46 -34 22 -79 53 -99
69 -21 16 -43 25 -49 21 -8 -4 -9 -3 -5 4 4 7 3 12 -2 12 -4 0 -33 18 -62 40
-30 22 -60 38 -67 36 -7 -3 -10 1 -7 8 4 12 -42 42 -58 38 -5 -1 -8 2 -8 6 0
8 -94 73 -105 73 -3 -1 -13 7 -23 17 -10 9 -27 23 -38 29 -30 20 -82 55 -172
116 -45 31 -87 57 -92 57 -4 0 -10 4 -12 8 -5 12 -82 57 -91 54 -5 -1 -6 1 -3
6 3 5 -7 15 -22 23 -15 8 -35 21 -45 30 -9 9 -30 22 -45 30 -15 8 -33 20 -40
27 -8 6 -23 17 -35 23 -11 7 -26 16 -31 20 -10 9 -50 35 -261 176 -44 29 -84
56 -90 61 -5 4 -25 17 -42 27 -18 11 -33 23 -33 27 0 4 -5 8 -11 8 -6 0 -39
20 -73 45 -35 25 -69 45 -75 45 -6 0 -11 4 -11 10 0 5 -15 16 -32 25 -18 8
-49 28 -68 45 -19 16 -39 30 -44 30 -4 0 -25 12 -45 28 -44 33 -81 54 -82 47z"/>
</g>
</svg>
