<svg id="Layer_1" data-name="Layer 1" xmlns="http://www.w3.org/2000/svg" viewBox="0 0 274 146.71"><defs><style>.cls-1{fill:#c4ccd4;}.cls-1,.cls-2{opacity:0.8;}.cls-2{fill:#c7da3b;}.cls-3{fill:#6d6e71;}</style></defs><title>IGRP_Logo</title><polygon class="cls-1" points="54.98 5.16 5 47.49 5 100.98 54.98 55.71 54.98 5.16"/><polygon class="cls-2" points="5 47.49 54.98 77.3 54.98 129.04 5 100.98 5 47.49"/><polygon class="cls-2" points="58.49 15.04 106.72 47.49 106.72 97.47 58.49 68.53 58.49 15.04"/><polygon class="cls-1" points="58.49 142.19 106.72 97.47 106.72 47.49 58.49 88.26 58.49 142.19"/><path class="cls-3" d="M270.22,52.68c0-12.31-10.87-13.1-10.87-13.1H237.08V73.51H246V66.3h12.44C271,65.39,270.22,52.68,270.22,52.68Zm-14,6.42H246.12V46.79h10.22s5.11.13,5,6.41C261.31,53.2,262.1,58.31,256.21,59.1Z"/><path class="cls-3" d="M229.3,51s1.23-9.69-9.37-11.4H194.38V73.51H204l.13-8.52h11s4.58.13,5.24,8.52h8.9s1.18-9.3-6-11.92C223.2,61.59,229.89,59.36,229.3,51ZM215,58.44H204V46.79h12.18s4.19.39,4.06,6.15A5,5,0,0,1,215,58.44Z"/><path class="cls-3" d="M187.31,73.51H174.48a9.26,9.26,0,0,0,4.34-8H170V58.44h17.29Z"/><path class="cls-3" d="M163.87,73.51s-6.16-3.67-6-14.41c0,0-.39-11.79,11-13,0,0,7.47.26,9,6.81h8.78s-1.84-14.4-17.95-14.8c0,0-20.17-.26-20.3,23.19,0,0,.51,9,4.12,12.18Z"/><rect class="cls-3" x="133.09" y="39.58" width="9.17" height="33.92"/><path class="cls-3" d="M134.24,102.17a6.23,6.23,0,0,0,.53,2.17,5.52,5.52,0,0,0,1.25,1.72,5.24,5.24,0,0,0,1.87,1.12,6.91,6.91,0,0,0,2.36.39,9.8,9.8,0,0,0,2.19-.23,5.47,5.47,0,0,0,1.85-.76,4.07,4.07,0,0,0,1.28-1.39,4.16,4.16,0,0,0,.48-2.06,3,3,0,0,0-1-2.33,8.68,8.68,0,0,0-2.45-1.48,32.28,32.28,0,0,0-3.2-1.1A19.11,19.11,0,0,1,136.21,97a7.58,7.58,0,0,1-2.45-1.93,4.67,4.67,0,0,1-1-3.09,5.28,5.28,0,0,1,.54-2.44,5.08,5.08,0,0,1,1.47-1.76,6.88,6.88,0,0,1,2.26-1.08,10.65,10.65,0,0,1,2.92-.37,8.57,8.57,0,0,1,3.5.62,6.39,6.39,0,0,1,2.26,1.58A5.87,5.87,0,0,1,147,90.64a10.15,10.15,0,0,1,.44,2.25h-2.06a5.4,5.4,0,0,0-.55-2,4.3,4.3,0,0,0-1.18-1.42,5,5,0,0,0-1.65-.86,6.74,6.74,0,0,0-2-.28,9.18,9.18,0,0,0-1.89.19,5.84,5.84,0,0,0-1.67.63,3.41,3.41,0,0,0-1.19,1.1,3,3,0,0,0-.45,1.67,3,3,0,0,0,1,2.35,8.18,8.18,0,0,0,2.46,1.49c1,.41,2,.78,3.2,1.14a20.93,20.93,0,0,1,3.2,1.28,7.78,7.78,0,0,1,2.45,1.9,4.52,4.52,0,0,1,1,3,6.58,6.58,0,0,1-.59,2.86,5.76,5.76,0,0,1-1.62,2.06,6.68,6.68,0,0,1-2.45,1.25,11.4,11.4,0,0,1-3.13.41,8.6,8.6,0,0,1-3-.52,8.1,8.1,0,0,1-2.58-1.49,7.43,7.43,0,0,1-1.83-2.38,7.52,7.52,0,0,1-.73-3.15Z"/><path class="cls-3" d="M155,88.4v4.77h2.49v2H155v10.32a1.66,1.66,0,0,0,.56,1.45,2.34,2.34,0,0,0,1.4.4h.46a1.65,1.65,0,0,0,.47-.08v1.92a4.59,4.59,0,0,1-.88.16,7.77,7.77,0,0,1-1,.06,3.34,3.34,0,0,1-2.12-.7,2.8,2.8,0,0,1-.91-2.36V95.16h-2.49v-2H153V88.4Z"/><path class="cls-3" d="M173.86,108.78h-2v-2.42a7.33,7.33,0,0,1-1.4,1.39,6.72,6.72,0,0,1-1.48.84,5.86,5.86,0,0,1-1.49.39,12.3,12.3,0,0,1-1.46.09,4.43,4.43,0,0,1-3.38-1.27,4.86,4.86,0,0,1-1.21-3.5V92.89h2V104a2.86,2.86,0,0,0,.82,2.33,3.56,3.56,0,0,0,2.28.66,6,6,0,0,0,2.08-.37,5.41,5.41,0,0,0,1.69-1,5.2,5.2,0,0,0,1.14-1.46,3.65,3.65,0,0,0,.42-1.7V92.89h2Z"/><path class="cls-3" d="M190.65,109.07h-2v-2.42a5.46,5.46,0,0,1-2.26,2.19,5.69,5.69,0,0,1-2.4.58,5.73,5.73,0,0,1-4.8-2.4,7.7,7.7,0,0,1-1.23-2.63A12.85,12.85,0,0,1,178,98a8.26,8.26,0,0,1,1.21-2.63,6.06,6.06,0,0,1,2-1.78,5.74,5.74,0,0,1,2.76-.65,6.16,6.16,0,0,1,2.36.53,5.47,5.47,0,0,1,2.37,2.06V86.8h2Zm-2-8.15a10.56,10.56,0,0,0-.46-2.22,7.17,7.17,0,0,0-.95-1.92,4.77,4.77,0,0,0-1.36-1.33,3.21,3.21,0,0,0-1.78-.5,3.67,3.67,0,0,0-1.92.5,4.45,4.45,0,0,0-1.44,1.33,6,6,0,0,0-.89,2,9.07,9.07,0,0,0-.31,2.42,8.76,8.76,0,0,0,.31,2.4,6,6,0,0,0,.89,2,4.29,4.29,0,0,0,1.44,1.31,4,4,0,0,0,3.84,0,4.29,4.29,0,0,0,1.44-1.31,6.41,6.41,0,0,0,.89-2,9.17,9.17,0,0,0,.3-2.4Z"/><path class="cls-3" d="M197,86.8v2.74h-2V86.8Zm0,6.37v15.9h-2V93.17Z"/><path class="cls-3" d="M201.21,101.14a10.67,10.67,0,0,1,.46-3.2A8,8,0,0,1,203,95.32a6.56,6.56,0,0,1,2.19-1.78,6.66,6.66,0,0,1,3-.65,6.46,6.46,0,0,1,5.25,2.43,8.11,8.11,0,0,1,1.39,2.62,10.91,10.91,0,0,1,0,6.4,8.16,8.16,0,0,1-1.39,2.61,6.45,6.45,0,0,1-2.22,1.76,6.82,6.82,0,0,1-3,.64,6.66,6.66,0,0,1-3-.64A6.16,6.16,0,0,1,203,107a8.08,8.08,0,0,1-1.35-2.61A10.77,10.77,0,0,1,201.21,101.14Zm1.95,0a7.83,7.83,0,0,0,.36,2.4,6.51,6.51,0,0,0,1,1.95,4.77,4.77,0,0,0,5.82,1.32,4.74,4.74,0,0,0,1.6-1.32,5.92,5.92,0,0,0,1-1.95,7.83,7.83,0,0,0,.36-2.4,7.74,7.74,0,0,0-.36-2.4,6,6,0,0,0-1-2,4.89,4.89,0,0,0-1.6-1.33,4.72,4.72,0,0,0-4.23,0,4.76,4.76,0,0,0-1.59,1.33,6.57,6.57,0,0,0-1,2A7.74,7.74,0,0,0,203.16,101.14Z"/></svg>