<svg width="76" height="41" viewBox="0 0 76 41" fill="none" xmlns="http://www.w3.org/2000/svg">
<path opacity="0.8" d="M6.49077 22.7839H21.8551C22.3755 22.7839 22.841 23.0331 23.1423 23.4483L35.7131 41H16.4598L5.20357 25.3309C4.46411 24.2789 5.20357 22.7839 6.49077 22.7839Z" fill="#D0D7DF"/>
<path opacity="0.8" d="M45.6823 22.7839H30.318C29.7976 22.7839 29.332 23.0331 29.0308 23.4483L16.46 41H35.7407L46.9695 25.3309C47.709 24.2789 46.9695 22.7839 45.6823 22.7839Z" fill="#5BA2D6"/>
<path opacity="0.8" d="M30.3176 22.7839H45.6819C46.2023 22.7839 46.6679 23.0331 46.9691 23.4483L59.5399 41H40.2592L29.0304 25.3309C28.2635 24.2789 29.0304 22.7839 30.3176 22.7839Z" fill="#D0D7DF"/>
<path opacity="0.8" d="M69.4816 22.7839H54.1173C53.5969 22.7839 53.1313 23.0331 52.8301 23.4483L40.2593 41H59.54L70.7688 25.3309C71.5357 24.2789 70.7962 22.7839 69.4816 22.7839Z" fill="#5BA2D6"/>
<path d="M1.0955 0C1.39676 0 1.67063 0.110736 1.88973 0.332208C2.10883 0.55368 2.21838 0.802836 2.21838 1.13504C2.21838 1.43957 2.10883 1.68872 1.88973 1.9102C1.67063 2.13167 1.39676 2.2424 1.0955 2.2424C0.794234 2.2424 0.547748 2.13167 0.328649 1.9102C0.10955 1.68872 0 1.43957 0 1.13504C0 0.802836 0.10955 0.55368 0.328649 0.332208C0.547748 0.110736 0.794234 0 1.0955 0ZM0.438198 4.34639H1.78018V14.894H0.438198V4.34639Z" fill="black"/>
<path d="M13.5568 4.34639H14.8988V12.7347C14.8988 14.2019 14.7618 15.3093 14.5153 15.9737C14.1593 16.9426 13.5568 17.6901 12.6804 18.2161C11.804 18.7421 10.7633 18.9912 9.53083 18.9912C8.62705 18.9912 7.83281 18.8528 7.12074 18.6037C6.40867 18.3545 5.83353 17.9946 5.36795 17.5794C4.92975 17.1364 4.51894 16.5274 4.13552 15.6968H5.58705C5.97047 16.3889 6.49083 16.9149 7.12074 17.2471C7.75065 17.5794 8.5175 17.7455 9.44867 17.7455C10.3525 17.7455 11.1467 17.5794 11.7766 17.2195C12.4065 16.8873 12.8447 16.4443 13.1186 15.9183C13.3925 15.3923 13.5294 14.5618 13.5294 13.3991V12.8454C13.0364 13.4821 12.4065 13.9804 11.667 14.3403C10.9276 14.6725 10.1607 14.8663 9.33912 14.8663C8.38056 14.8663 7.47678 14.6172 6.62777 14.1465C5.77876 13.6759 5.12146 13.0115 4.65588 12.2087C4.19029 11.4058 3.97119 10.4922 3.97119 9.52331C3.97119 8.55436 4.21768 7.64079 4.68326 6.78259C5.14885 5.92438 5.83353 5.25997 6.68254 4.78934C7.53155 4.29103 8.43534 4.04187 9.36651 4.04187C10.1607 4.04187 10.8728 4.20797 11.5575 4.54018C12.2422 4.87239 12.8721 5.39839 13.502 6.14586V4.34639H13.5568ZM9.61299 5.3707C8.84615 5.3707 8.13407 5.56449 7.50416 5.92438C6.84687 6.28428 6.35389 6.81027 5.97047 7.47469C5.58705 8.1391 5.42272 8.8312 5.42272 9.60636C5.42272 10.7691 5.80615 11.7103 6.57299 12.4855C7.33984 13.233 8.32579 13.6205 9.55822 13.6205C10.7907 13.6205 11.7766 13.233 12.5434 12.4855C13.2829 11.738 13.6663 10.7414 13.6663 9.52331C13.6663 8.72047 13.502 8.02837 13.146 7.39164C12.7899 6.7549 12.3243 6.28428 11.667 5.92438C11.0097 5.56449 10.3251 5.3707 9.61299 5.3707Z" fill="black"/>
<path d="M17.2813 4.34638H18.6507V5.89669C19.0615 5.28764 19.4997 4.8447 19.9379 4.54017C20.4035 4.23565 20.869 4.09723 21.362 4.09723C21.7454 4.09723 22.1289 4.20797 22.5397 4.45712L21.8276 5.59216C21.5537 5.48143 21.3072 5.39838 21.1155 5.39838C20.6773 5.39838 20.2391 5.59216 19.8283 5.95206C19.4175 6.31195 19.0889 6.89331 18.8698 7.69615C18.7054 8.30519 18.6233 9.52329 18.6233 11.3504V14.9217H17.2539V4.34638H17.2813Z" fill="black"/>
<path d="M23.7173 4.34639H25.0593V6.28427C25.5796 5.5368 26.2095 4.98312 26.8942 4.62323C27.5789 4.26334 28.3458 4.06955 29.1948 4.06955C30.6737 4.06955 31.9335 4.59555 33.0016 5.67522C34.0423 6.7549 34.5901 8.05604 34.5901 9.57866C34.5901 11.129 34.0697 12.4578 33.029 13.5375C31.9883 14.6171 30.7285 15.1708 29.2495 15.1708C28.4279 15.1708 27.6611 15.0047 26.949 14.6448C26.2643 14.2849 25.6344 13.7866 25.0593 13.0945V18.7697H23.7173V4.34639ZM29.0852 5.3707C27.9349 5.3707 26.949 5.78596 26.1548 6.58879C25.3605 7.41931 24.9771 8.41594 24.9771 9.66171C24.9771 10.4646 25.1414 11.1843 25.4975 11.8211C25.8535 12.4578 26.3465 12.9561 27.0312 13.3437C27.6885 13.7313 28.4005 13.8974 29.1126 13.8974C29.8247 13.8974 30.5094 13.7036 31.1393 13.3437C31.7692 12.9561 32.2895 12.4301 32.6456 11.7657C33.029 11.1013 33.2207 10.3815 33.2207 9.63403C33.2207 8.88656 33.029 8.16678 32.673 7.50236C32.2895 6.83795 31.7966 6.31195 31.1667 5.95206C30.5094 5.56448 29.8247 5.3707 29.0852 5.3707Z" fill="black"/>
<path d="M35.7407 4.34637H38.3151L40.424 10.3538L42.6697 4.34637H44.2308L46.4492 10.2708L48.558 4.34637H51.1324L47.3256 14.894H45.655L43.4366 8.88655L41.136 14.894H39.4928L35.7407 4.34637Z" fill="black"/>
<path d="M63.0735 10.3815H54.6656C54.7751 11.1289 55.1038 11.738 55.6515 12.1809C56.1719 12.6239 56.8566 12.8453 57.6782 12.8453C58.6642 12.8453 59.4858 12.5131 60.1978 11.821L62.4162 12.873C61.8685 13.6482 61.2112 14.2572 60.4443 14.6171C59.6775 15.0047 58.7737 15.1708 57.7056 15.1708C56.0623 15.1708 54.7478 14.6448 53.707 13.5928C52.6663 12.5408 52.1733 11.2397 52.1733 9.66169C52.1733 8.05602 52.6937 6.72719 53.707 5.64751C54.7204 4.59552 56.0076 4.04184 57.5687 4.04184C59.2119 4.04184 60.5539 4.56784 61.5672 5.64751C62.6079 6.6995 63.1009 8.11139 63.1009 9.85548L63.0735 10.3815ZM60.4443 8.30517C60.28 7.72381 59.924 7.2255 59.431 6.86561C58.9106 6.50571 58.3355 6.31193 57.6508 6.31193C56.9114 6.31193 56.2814 6.50571 55.7337 6.92097C55.3777 7.17013 55.0764 7.64076 54.7751 8.27749H60.4443V8.30517Z" fill="black"/>
<path d="M67.7839 0.276825V5.5091C68.2495 5.03847 68.7699 4.67858 69.3176 4.42943C69.8654 4.18027 70.4679 4.06953 71.0704 4.06953C72.4398 4.06953 73.5901 4.59553 74.5486 5.61984C75.5072 6.64415 75.9728 8.00066 75.9728 9.63402C75.9728 11.212 75.4798 12.5132 74.4938 13.5651C73.5079 14.6171 72.3302 15.1431 70.9883 15.1431C70.3857 15.1431 69.838 15.0324 69.3176 14.8109C68.7973 14.5895 68.2769 14.2296 67.7839 13.7589V14.8663H65.1821V0.276825H67.7839ZM70.5501 6.50573C69.7284 6.50573 69.0438 6.78257 68.496 7.36393C67.9483 7.9453 67.6744 8.66508 67.6744 9.60634C67.6744 10.5476 67.9483 11.2951 68.496 11.8764C69.0438 12.4578 69.7284 12.7346 70.5501 12.7346C71.3443 12.7346 72.029 12.4301 72.5767 11.8487C73.1245 11.2674 73.3983 10.5199 73.3983 9.60634C73.3983 8.69276 73.1245 7.97298 72.6041 7.39162C72.029 6.81025 71.3717 6.50573 70.5501 6.50573Z" fill="black"/>
</svg>
