<svg xmlns="http://www.w3.org/2000/svg" width="401.998" height="401.998" style="enable-background:new 0 0 401.998 401.998" xml:space="preserve"><path d="M73.092 164.452h255.813c4.949 0 9.233-1.807 12.848-5.424 3.613-3.616 5.427-7.898 5.427-12.847s-1.813-9.229-5.427-12.85L213.846 5.424C210.232 1.812 205.951 0 200.999 0s-9.233 1.812-12.85 5.424L60.242 133.331c-3.617 3.617-5.424 7.901-5.424 12.85 0 4.948 1.807 9.231 5.424 12.847 3.621 3.617 7.902 5.424 12.85 5.424zM328.905 237.549H73.092c-4.952 0-9.233 1.808-12.85 5.421-3.617 3.617-5.424 7.898-5.424 12.847s1.807 9.233 5.424 12.848L188.149 396.57c3.621 3.617 7.902 5.428 12.85 5.428s9.233-1.811 12.847-5.428l127.907-127.906c3.613-3.614 5.427-7.898 5.427-12.848 0-4.948-1.813-9.229-5.427-12.847-3.614-3.616-7.899-5.42-12.848-5.42z"/></svg>