<svg width="316" height="168" viewBox="0 0 316 168" fill="none" xmlns="http://www.w3.org/2000/svg">
<path opacity="0.8" d="M26.9983 93.3584H90.9046C93.069 93.3584 95.0055 94.3793 96.2586 96.0809L148.546 168H68.4633L21.6443 103.795C18.5686 99.484 21.6443 93.3584 26.9983 93.3584Z" fill="#D0D7DF"/>
<path opacity="0.8" d="M190.012 93.3584H126.106C123.941 93.3584 122.005 94.3793 120.752 96.0809L68.4648 168H148.661L195.366 103.795C198.442 99.484 195.366 93.3584 190.012 93.3584Z" fill="#F6F6F9"/>
<path opacity="0.8" d="M126.102 93.3584H190.009C192.173 93.3584 194.11 94.3793 195.363 96.0809L247.65 168H167.453L120.748 103.795C117.559 99.484 120.748 93.3584 126.102 93.3584Z" fill="#D0D7DF"/>
<path opacity="0.8" d="M289.004 93.3584H225.098C222.934 93.3584 220.997 94.3793 219.744 96.0809L167.457 168H247.653L294.358 103.795C297.548 99.484 294.472 93.3584 289.004 93.3584Z" fill="#F6F6F9"/>
<path d="M4.5566 0C5.80966 0 6.94881 0.453747 7.86013 1.36124C8.77145 2.26874 9.22711 3.28967 9.22711 4.65091C9.22711 5.89872 8.77145 6.91965 7.86013 7.82714C6.94881 8.73464 5.80966 9.18839 4.5566 9.18839C3.30353 9.18839 2.2783 8.73464 1.36698 7.82714C0.45566 6.91965 0 5.89872 0 4.65091C0 3.28967 0.45566 2.26874 1.36698 1.36124C2.2783 0.453747 3.30353 0 4.5566 0ZM1.82264 17.8096H7.40447V61.029H1.82264V17.8096Z" fill="#F6F6F9"/>
<path d="M56.3859 17.8093H61.9677V52.1807C61.9677 58.1929 61.3981 62.7303 60.3729 65.4528C58.892 69.4231 56.3859 72.4859 52.7406 74.6412C49.0953 76.7965 44.7665 77.8174 39.6404 77.8174C35.8812 77.8174 32.5776 77.2503 29.6158 76.2293C26.6541 75.2084 24.2618 73.7337 22.3253 72.0322C20.5026 70.2172 18.7939 67.7216 17.1991 64.3184H23.2366C24.8314 67.1544 26.9958 69.3097 29.6158 70.6709C32.2359 72.0322 35.4255 72.7128 39.2986 72.7128C43.0578 72.7128 46.3613 72.0322 48.9814 70.5575C51.6014 69.1962 53.4241 67.3812 54.5632 65.2259C55.7024 63.0706 56.2719 59.6675 56.2719 54.9032V52.6345C54.2215 55.2435 51.6014 57.2854 48.5257 58.76C45.45 60.1213 42.2604 60.9153 38.843 60.9153C34.8559 60.9153 31.0967 59.8944 27.5654 57.966C24.034 56.0376 21.3001 53.3151 19.3635 50.0254C17.4269 46.7357 16.5156 42.9923 16.5156 39.022C16.5156 35.0517 17.5409 31.3083 19.4774 27.7918C21.414 24.2752 24.2618 21.5527 27.7932 19.6243C31.3246 17.5825 35.0838 16.5615 38.9569 16.5615C42.2604 16.5615 45.2222 17.2421 48.0701 18.6034C50.9179 19.9646 53.538 22.1199 56.158 25.1827V17.8093H56.3859ZM39.9821 22.0065C36.7925 22.0065 33.8307 22.8006 31.2107 24.2752C28.4767 25.7499 26.4262 27.9052 24.8314 30.6277C23.2366 33.3502 22.5531 36.1861 22.5531 39.3623C22.5531 44.1267 24.1479 47.9835 27.3375 51.1598C30.5272 54.2226 34.6281 55.8107 39.7543 55.8107C44.8805 55.8107 48.9814 54.2226 52.171 51.1598C55.2467 48.097 56.8415 44.0132 56.8415 39.022C56.8415 35.7324 56.158 32.8964 54.6771 30.2874C53.1962 27.6783 51.2597 25.7499 48.5257 24.2752C45.7918 22.8006 42.9439 22.0065 39.9821 22.0065Z" fill="#F6F6F9"/>
<path d="M71.8795 17.81H77.5753V24.1625C79.284 21.6668 81.1067 19.8519 82.9293 18.6041C84.8658 17.3562 86.8024 16.7891 88.8529 16.7891C90.4477 16.7891 92.0425 17.2428 93.7512 18.2637L90.7894 22.9147C89.6503 22.4609 88.625 22.1206 87.8276 22.1206C86.005 22.1206 84.1824 22.9147 82.4736 24.3893C80.7649 25.864 79.3979 28.2462 78.4866 31.5359C77.8031 34.0315 77.4614 39.0227 77.4614 46.5095V61.1429H71.7656V17.81H71.8795Z" fill="#F6F6F9"/>
<path d="M98.6484 17.8092H104.23V25.7498C106.395 22.687 109.015 20.4182 111.863 18.9435C114.71 17.4689 117.9 16.6748 121.431 16.6748C127.583 16.6748 132.823 18.8301 137.266 23.2541C141.594 27.6782 143.873 33.0097 143.873 39.2487C143.873 45.6012 141.708 51.0462 137.38 55.4702C133.051 59.8943 127.811 62.163 121.659 62.163C118.242 62.163 115.052 61.4824 112.09 60.0077C109.243 58.533 106.622 56.4911 104.23 53.6552V76.9098H98.6484V17.8092ZM120.976 22.0063C116.191 22.0063 112.09 23.7079 108.787 26.9976C105.483 30.4007 103.889 34.4844 103.889 39.5891C103.889 42.8787 104.572 45.8281 106.053 48.4371C107.534 51.0462 109.584 53.088 112.432 54.6762C115.166 56.2643 118.128 56.9449 121.09 56.9449C124.051 56.9449 126.899 56.1508 129.519 54.6762C132.139 53.088 134.304 50.9327 135.785 48.2103C137.38 45.4878 138.177 42.5384 138.177 39.4756C138.177 36.4128 137.38 33.4635 135.899 30.741C134.304 28.0185 132.253 25.8632 129.633 24.3885C126.899 22.8004 124.051 22.0063 120.976 22.0063Z" fill="#F6F6F9"/>
<path d="M148.66 17.8086H159.368L168.14 42.4244L177.481 17.8086H183.974L193.201 42.0841L201.972 17.8086H212.68L196.846 61.028H189.897L180.67 36.4122L171.101 61.028H164.266L148.66 17.8086Z" fill="#F6F6F9"/>
<path d="M262.346 42.5386H227.374C227.83 45.6014 229.197 48.097 231.475 49.912C233.639 51.727 236.487 52.6345 239.905 52.6345C244.006 52.6345 247.423 51.2732 250.385 48.4373L259.612 52.7479C257.334 55.9241 254.6 58.4197 251.41 59.8944C248.22 61.4825 244.461 62.1631 240.019 62.1631C233.184 62.1631 227.716 60.0078 223.387 55.6972C219.058 51.3866 217.008 46.0551 217.008 39.5892C217.008 33.0099 219.172 27.5649 223.387 23.1409C227.602 18.8303 232.956 16.5615 239.449 16.5615C246.284 16.5615 251.866 18.7168 256.081 23.1409C260.409 27.4515 262.46 33.2367 262.46 40.3833L262.346 42.5386ZM251.41 34.0308C250.727 31.6486 249.246 29.6068 247.195 28.1321C245.031 26.6574 242.639 25.8633 239.791 25.8633C236.715 25.8633 234.095 26.6574 231.817 28.359C230.336 29.3799 229.083 31.3083 227.83 33.9174H251.41V34.0308Z" fill="#F6F6F9"/>
<path d="M281.939 1.13379V22.5734C283.876 20.6449 286.04 19.1702 288.318 18.1493C290.597 17.1284 293.103 16.6746 295.609 16.6746C301.305 16.6746 306.089 18.8299 310.076 23.0271C314.063 27.2243 316 32.7827 316 39.4754C316 45.9413 313.949 51.2729 309.848 55.5835C305.747 59.8941 300.849 62.0494 295.267 62.0494C292.761 62.0494 290.483 61.5956 288.318 60.6881C286.154 59.7806 283.99 58.306 281.939 56.3775V60.915H271.117V1.13379H281.939ZM293.445 26.6571C290.027 26.6571 287.179 27.7915 284.901 30.1736C282.623 32.5558 281.483 35.5052 281.483 39.362C281.483 43.2189 282.623 46.2817 284.901 48.6638C287.179 51.046 290.027 52.1804 293.445 52.1804C296.748 52.1804 299.596 50.9326 301.874 48.5504C304.153 46.1682 305.292 43.1054 305.292 39.362C305.292 35.6186 304.153 32.6692 301.988 30.2871C299.596 27.9049 296.862 26.6571 293.445 26.6571Z" fill="#F6F6F9"/>
</svg>
