<?xml version="1.0" encoding="utf-8"?>
<!-- Generator: Adobe Illustrator 21.0.0, SVG Export Plug-In . SVG Version: 6.00 Build 0)  -->
<svg version="1.1" id="Layer_1" xmlns="http://www.w3.org/2000/svg" xmlns:xlink="http://www.w3.org/1999/xlink" x="0px" y="0px"
	 viewBox="0 0 32 32" style="enable-background:new 0 0 32 32;" xml:space="preserve">
<style type="text/css">
	.st0{fill:#6D6E71;}
	.st1{fill:#3978AC;}
	.st2{fill:#85A754;}
	.st3{fill:#AA454A;}
	.st4{fill:none;stroke:#AA454A;stroke-width:0.6;stroke-miterlimit:10;}
	.st5{fill:none;stroke:#3978AC;stroke-width:0.6;stroke-miterlimit:10;}
	.st6{fill:none;stroke:#85A754;stroke-width:0.6;stroke-miterlimit:10;}
</style>
<g>
	<g>
		<path class="st0" d="M0.2,31.4h31.6c0.1,0,0.1-0.1,0.1-0.1c0-0.1,0-0.1-0.1-0.1H0.2c-0.1,0-0.1,0.1-0.1,0.1
			C0.1,31.3,0.1,31.4,0.2,31.4L0.2,31.4z M0.2,31.4"/>
		<path class="st0" d="M0.2,23.8h31.6c0.1,0,0.1-0.1,0.1-0.1c0-0.1,0-0.1-0.1-0.1H0.2c-0.1,0-0.1,0.1-0.1,0.1
			C0.1,23.7,0.1,23.8,0.2,23.8L0.2,23.8z M0.2,23.8"/>
		<path class="st0" d="M0.2,16.1h31.6c0.1,0,0.1-0.1,0.1-0.1c0-0.1,0-0.1-0.1-0.1H0.2c-0.1,0-0.1,0.1-0.1,0.1
			C0.1,16.1,0.1,16.1,0.2,16.1L0.2,16.1z M0.2,16.1"/>
		<path class="st0" d="M0.2,8.5h31.6c0.1,0,0.1-0.1,0.1-0.1c0-0.1,0-0.1-0.1-0.1H0.2c-0.1,0-0.1,0.1-0.1,0.1
			C0.1,8.5,0.1,8.5,0.2,8.5L0.2,8.5z M0.2,8.5"/>
		<path class="st0" d="M0.2,0.9h31.6c0.1,0,0.1-0.1,0.1-0.1c0-0.1,0-0.1-0.1-0.1H0.2c-0.1,0-0.1,0.1-0.1,0.1
			C0.1,0.8,0.1,0.9,0.2,0.9L0.2,0.9z M0.2,0.9"/>
	</g>
	<ellipse class="st1" cx="2.6" cy="11.9" rx="0.8" ry="0.9"/>
	<ellipse class="st1" cx="17.1" cy="12.7" rx="0.8" ry="0.8"/>
	<ellipse class="st1" cx="30.2" cy="26.9" rx="0.8" ry="0.8"/>
	<ellipse class="st2" cx="2.6" cy="16.8" rx="0.8" ry="0.8"/>
	<ellipse class="st2" cx="17.9" cy="26.1" rx="0.8" ry="0.8"/>
	<ellipse class="st2" cx="28" cy="14.6" rx="0.8" ry="0.8"/>
	<ellipse class="st3" cx="2.6" cy="5.5" rx="0.8" ry="0.8"/>
	<ellipse class="st3" cx="17.1" cy="7.2" rx="0.8" ry="0.8"/>
	<ellipse class="st3" cx="28.8" cy="10.2" rx="0.8" ry="0.8"/>
	<polyline class="st4" points="2.6,5.5 17.1,7.2 28.8,10.2 	"/>
	<polyline class="st5" points="2.6,11.9 17.1,12.7 30.2,27.8 	"/>
	<polyline class="st6" points="2.6,16.8 17.9,26.1 28,14.6 	"/>
</g>
</svg>
