<svg id="Layer_1" data-name="Layer 1" xmlns="http://www.w3.org/2000/svg" xmlns:xlink="http://www.w3.org/1999/xlink" viewBox="0 0 358 352"><defs><style>.cls-1,.cls-10,.cls-15,.cls-3,.cls-4,.cls-7{fill:none;}.cls-2{fill:#fff;}.cls-3{stroke:#e6e6e6;}.cls-4{stroke:#ccd6eb;}.cls-5{clip-path:url(#clip-path);}.cls-6{fill:#7cb5ec;}.cls-15,.cls-7{stroke:#434348;}.cls-10,.cls-7{stroke-linecap:round;stroke-linejoin:round;}.cls-10,.cls-15,.cls-7{stroke-width:2px;}.cls-8{fill:#434348;}.cls-11,.cls-9{fill:#90ed7d;}.cls-9{fill-opacity:0.75;}.cls-10{stroke:#90ed7d;}.cls-12,.cls-13,.cls-14,.cls-16{isolation:isolate;}.cls-13{font-size:18px;}.cls-13,.cls-14{fill:#333;}.cls-13,.cls-16{font-family:LucidaGrande, Lucida Grande;}.cls-14{font-size:12px;font-family:Arial-BoldMT, Arial;font-weight:700;}.cls-16{font-size:11px;fill:#666;}</style><clipPath id="clip-path"><circle class="cls-1" cx="180" cy="163.5" r="127.92"/></clipPath></defs><title>chart (1)_</title><rect class="cls-2" x="-120" y="-33" width="600" height="400"/><rect class="cls-1" x="-110" y="13" width="580" height="301"/><path class="cls-3" d="M180,163.5V35.57"/><path class="cls-3" d="M180,163.5,270.46,73"/><path class="cls-3" d="M180,163.5H307.92"/><path class="cls-3" d="M180,163.5,270.46,254"/><path class="cls-3" d="M180,163.5V291.42"/><path class="cls-3" d="M180,163.5,89.54,254"/><path class="cls-3" d="M180,163.5H52.07"/><path class="cls-3" d="M180,163.5,89.54,73"/><path class="cls-3" d="M180,163.5V35.57"/><path class="cls-3" d="M180,99.54a64,64,0,1,1-.06,0m.06,64h0"/><path class="cls-3" d="M180,35.57a127.92,127.92,0,1,1-.13,0M180,163.5h0"/><rect class="cls-1" x="-110" y="13" width="580" height="301"/><path class="cls-4" d="M180,35.57a127.92,127.92,0,1,1-.13,0M180,163.5h0"/><g class="cls-5"><path class="cls-6" d="M180,61.16a102.34,102.34,0,0,1,72.29,29.9L180,163.5h0Z"/><path class="cls-6" d="M243.32,100.18a89.55,89.55,0,0,1,26.23,63.23L180,163.5h0Z"/><path class="cls-6" d="M256.76,163.5a76.75,76.75,0,0,1-22.43,54.22L180,163.5h76.76Z"/><path class="cls-6" d="M225.23,208.73a64,64,0,0,1-45.16,18.73l-.06-64h0Z"/><path class="cls-6" d="M180,214.67a51.17,51.17,0,0,1-36.15-15L180,163.5h0Z"/><path class="cls-6" d="M152.86,190.64a38.38,38.38,0,0,1-11.24-27.1l38.38,0h0Z"/><path class="cls-6" d="M154.42,163.5a25.59,25.59,0,0,1,7.48-18.07L180,163.5H154.42Z"/><path class="cls-6" d="M171,154.45a12.79,12.79,0,0,1,9-3.75V163.5h0Z"/></g><g class="cls-5"><path class="cls-7" d="M180,150.71l18.09-5.3,20.29,18.09-2.19,36.18L180,227.46l-54.27-9.69L90.45,163.5l17.18-72.37L180,150.71"/></g><path class="cls-8" d="M184,151a4,4,0,1,1-4-4,4,4,0,0,1,4,4Z"/><path class="cls-8" d="M202,145a4,4,0,1,1-4-4,4,4,0,0,1,4,4Z"/><path class="cls-8" d="M222,164a4,4,0,1,1-4-4,4,4,0,0,1,4,4Z"/><path class="cls-8" d="M220,200a4,4,0,1,1-4-4,4,4,0,0,1,4,4Z"/><path class="cls-8" d="M183,227a4,4,0,1,1-4-4,4,4,0,0,1,4,4Z"/><path class="cls-8" d="M129,218a4,4,0,1,1-4-4,4,4,0,0,1,4,4Z"/><path class="cls-8" d="M94,163a4,4,0,1,1-4-4,4,4,0,0,1,4,4Z"/><path class="cls-8" d="M111,91a4,4,0,1,1-4-4,4,4,0,0,1,4,4Z"/><g class="cls-5"><path class="cls-9" d="M180,150.71l72.37-59.57L205.58,163.5l37.73,63.32L180,201.88l-54.27,15.9,3.1-54.27,5.94-45.23L180,150.71V163.5h0"/><path class="cls-10" d="M180,150.71l72.37-59.57L205.58,163.5l37.73,63.32L180,201.88l-54.27,15.9,3.1-54.27,5.94-45.23L180,150.71"/></g><path class="cls-11" d="M180,147l4,4-4,4-4-4Z"/><path class="cls-11" d="M252,87l4,4-4,4-4-4Z"/><path class="cls-11" d="M205,160l4,4-4,4-4-4Z"/><path class="cls-11" d="M243,223l4,4-4,4-4-4Z"/><path class="cls-11" d="M179,198l4,4-4,4-4-4Z"/><path class="cls-11" d="M125,214l4,4-4,4-4-4Z"/><path class="cls-11" d="M128,159l4,4-4,4-4-4Z"/><path class="cls-11" d="M134,114l4,4-4,4-4-4Z"/><g class="cls-12"><text class="cls-13" transform="translate(81.5 -9)">Highcharts Polar Chart</text></g><rect class="cls-1" x="70" y="326" width="220" height="26"/><g class="cls-12"><text class="cls-14" transform="translate(99 344)">Column</text></g><path class="cls-6" d="M86,333h0a6,6,0,0,1,6,6h0a6,6,0,0,1-6,6h0a6,6,0,0,1-6-6h0A6,6,0,0,1,86,333Z"/><path class="cls-15" d="M166.5,340h16"/><path class="cls-8" d="M178.5,340a4,4,0,1,1-4-4,4,4,0,0,1,4,4Z"/><g class="cls-12"><text class="cls-14" transform="translate(187.5 344)">Line</text></g><g class="cls-12"><text class="cls-14" transform="translate(254.28 344)">Area</text></g><path class="cls-11" d="M241.28,333h0a6,6,0,0,1,6,6h0a6,6,0,0,1-6,6h0a6,6,0,0,1-6-6h0A6,6,0,0,1,241.28,333Z"/><text class="cls-16" transform="translate(174.14 25.08)">0°</text><text class="cls-16" transform="translate(281.06 66.94)">45°</text><text class="cls-16" transform="translate(322.92 168)">90°</text><text class="cls-16" transform="translate(281.06 269.06)">135°</text><text class="cls-16" transform="translate(167.18 310.92)">180°</text><text class="cls-16" transform="translate(53.3 269.06)">225°</text><text class="cls-16" transform="translate(11.44 168)">270°</text><text class="cls-16" transform="translate(53.3 66.94)">315°</text><text class="cls-16" transform="translate(170.04 161.5)">0</text><text class="cls-16" transform="translate(170.04 97.54)">5</text></svg>