<svg id="Layer_1" data-name="Layer 1" xmlns="http://www.w3.org/2000/svg" xmlns:xlink="http://www.w3.org/1999/xlink" viewBox="0 0 600 347"><defs><style>.cls-1,.cls-11,.cls-13,.cls-3,.cls-5,.cls-7{fill:none;}.cls-2{fill:#fff;}.cls-3{stroke:#e6e6e6;}.cls-4{clip-path:url(#clip-path);}.cls-11,.cls-5{stroke:#7cb5ec;}.cls-5,.cls-7{stroke-linecap:round;stroke-linejoin:round;}.cls-11,.cls-13,.cls-5,.cls-7{stroke-width:2px;}.cls-6{fill:#7cb5ec;}.cls-13,.cls-7{stroke:#434348;}.cls-8{fill:#434348;}.cls-10,.cls-12,.cls-14,.cls-9{isolation:isolate;}.cls-10{font-size:18px;}.cls-10,.cls-12{fill:#333;}.cls-10,.cls-14{font-family:LucidaGrande, Lucida Grande;}.cls-12{font-size:12px;font-family:Arial-BoldMT, Arial;font-weight:700;}.cls-14{font-size:11px;fill:#666;}</style><clipPath id="clip-path"><circle class="cls-1" cx="223" cy="181.5" r="135.6"/></clipPath></defs><title>chart_</title><rect class="cls-2" y="-34" width="600" height="400"/><rect class="cls-1" x="10" y="12" width="426" height="339"/><path class="cls-3" d="M223,181.5V45.9"/><path class="cls-3" d="M223,181.5l117.43-67.8"/><path class="cls-3" d="M223,181.5l117.43,67.8"/><path class="cls-3" d="M223,181.5V317.1"/><path class="cls-3" d="M223,181.5,105.57,249.3"/><path class="cls-3" d="M223,181.5,105.57,113.7"/><path class="cls-3" d="M223,181.5V45.9"/><path class="cls-3" d="M223,136.3h0l-39.14,22.6v45.2L223,226.7l39.14-22.6V158.9L223,136.3"/><path class="cls-3" d="M223,91.1h0l-78.29,45.2v90.4L223,271.9l78.29-45.2V136.3L223,91.1"/><path class="cls-3" d="M223,45.9h0L105.57,113.7V249.3L223,317.1l117.43-67.8V113.7L223,45.9"/><rect class="cls-1" x="10" y="12" width="426" height="339"/><path class="cls-1" d="M223,45.9a135.6,135.6,0,1,1-.14,0M223,181.5h0"/><g class="cls-4"><path class="cls-5" d="M223,103.76l29.75,60.57,64.2,71.42-93.95,9-26.62-47.91,11-24.41L223,103.76"/></g><path class="cls-6" d="M227,104a4,4,0,1,1-4-4,4,4,0,0,1,4,4Z"/><path class="cls-6" d="M256,164a4,4,0,1,1-4-4,4,4,0,0,1,4,4Z"/><path class="cls-6" d="M320,236a4,4,0,1,1-4-4,4,4,0,0,1,4,4Z"/><path class="cls-6" d="M226,245a4,4,0,1,1-4-4,4,4,0,0,1,4,4Z"/><path class="cls-6" d="M200,197a4,4,0,1,1-4-4,4,4,0,0,1,4,4Z"/><path class="cls-6" d="M211,172a4,4,0,1,1-4-4,4,4,0,0,1,4,4Z"/><g class="cls-4"><path class="cls-7" d="M223,91.1l61.07,55.14,4.7,73.22L223,237.55,182.29,205l18.79-36.16L223,91.1"/></g><path class="cls-8" d="M223,87l4,4-4,4-4-4Z"/><path class="cls-8" d="M284,142l4,4-4,4-4-4Z"/><path class="cls-8" d="M288,215l4,4-4,4-4-4Z"/><path class="cls-8" d="M222,234l4,4-4,4-4-4Z"/><path class="cls-8" d="M182,201l4,4-4,4-4-4Z"/><path class="cls-8" d="M201,165l4,4-4,4-4-4Z"/><g class="cls-9"><text class="cls-10" transform="translate(134.32 -10)">Budget vs spending</text></g><rect class="cls-1" x="448" y="46" width="141" height="41"/><path class="cls-11" d="M456,60h16"/><path class="cls-6" d="M468,60a4,4,0,1,1-4-4,4,4,0,0,1,4,4Z"/><g class="cls-9"><text class="cls-12" transform="translate(477 64)">Allocated Budget</text></g><path class="cls-13" d="M456,75h16"/><path class="cls-8" d="M464,71l4,4-4,4-4-4Z"/><g class="cls-9"><text class="cls-12" transform="translate(477 79)">Actual Spending</text></g><text class="cls-14" transform="translate(209.54 35.4)">Sales</text><text class="cls-14" transform="translate(353.42 110.58)">Marketing</text><text class="cls-14" transform="translate(353.42 261.25)">Development</text><g class="cls-9"><text class="cls-14" transform="translate(174.37 336.55)">Customer Support</text></g><g class="cls-9"><text class="cls-14" transform="translate(30.06 254.17)">Information</text><text class="cls-14" transform="translate(30.91 268.17)">Technology</text></g><text class="cls-14" transform="translate(13.43 110.7)">Administration</text><text class="cls-14" transform="translate(213.04 179.5)">0</text><text class="cls-14" transform="translate(199.66 134.3)">25k</text><text class="cls-14" transform="translate(199.66 89.1)">50k</text></svg>