<?xml version="1.0" encoding="utf-8"?>
<!-- Generator: Adobe Illustrator 21.0.0, SVG Export Plug-In . SVG Version: 6.00 Build 0)  -->
<svg version="1.1" id="Layer_1" xmlns="http://www.w3.org/2000/svg" xmlns:xlink="http://www.w3.org/1999/xlink" x="0px" y="0px"
	 viewBox="0 0 32 32" style="enable-background:new 0 0 32 32;" xml:space="preserve">
<style type="text/css">
	.st0{fill:#6D6E71;}
	.st1{fill:#85A754;stroke:#FFFFFF;stroke-width:0.1356;stroke-miterlimit:10;}
	.st2{fill:#AA454A;stroke:#FFFFFF;stroke-width:0.1437;stroke-miterlimit:10;}
	.st3{fill:#3B76A8;stroke:#FFFFFF;stroke-width:0.1998;stroke-miterlimit:10;}
	.st4{fill:#AA454A;stroke:#FFFFFF;stroke-width:7.713800e-02;stroke-miterlimit:10;}
</style>
<g>
	<g>
		<path class="st0" d="M0.1,31.5h31.8c0.1,0,0.1-0.1,0.1-0.1c0-0.1,0-0.1-0.1-0.1H0.1C0,31.3,0,31.3,0,31.4C0,31.5,0,31.5,0.1,31.5
			L0.1,31.5z M0.1,31.5"/>
		<path class="st0" d="M0.1,23.9h31.8c0.1,0,0.1-0.1,0.1-0.1c0-0.1,0-0.1-0.1-0.1H0.1C0,23.6,0,23.7,0,23.7C0,23.8,0,23.9,0.1,23.9
			L0.1,23.9z M0.1,23.9"/>
		<path class="st0" d="M0.1,16.2h31.8c0.1,0,0.1-0.1,0.1-0.1c0-0.1,0-0.1-0.1-0.1H0.1C0,15.9,0,16,0,16C0,16.1,0,16.2,0.1,16.2
			L0.1,16.2z M0.1,16.2"/>
		<path class="st0" d="M0.1,8.5h31.8C32,8.5,32,8.4,32,8.4c0-0.1,0-0.1-0.1-0.1H0.1C0,8.2,0,8.3,0,8.4C0,8.4,0,8.5,0.1,8.5L0.1,8.5z
			 M0.1,8.5"/>
		<path class="st0" d="M0.1,0.8h31.8C32,0.8,32,0.7,32,0.7c0-0.1,0-0.1-0.1-0.1H0.1C0,0.5,0,0.6,0,0.7C0,0.7,0,0.8,0.1,0.8L0.1,0.8z
			 M0.1,0.8"/>
	</g>
	<rect x="2.3" y="18.9" class="st1" width="6.4" height="11.9"/>
	<rect x="2.3" y="8.5" class="st2" width="6.4" height="10.4"/>
	<rect x="2.3" y="4.6" class="st3" width="6.4" height="3.9"/>
	<rect x="12.7" y="23" class="st1" width="6.4" height="7.9"/>
	<rect x="12.7" y="20.2" class="st4" width="6.4" height="2.7"/>
	<rect x="12.7" y="10.6" class="st3" width="6.4" height="9.4"/>
	<rect x="23.1" y="26.9" class="st1" width="6.4" height="3.9"/>
	<rect x="23.1" y="18.2" class="st2" width="6.4" height="8.4"/>
	<rect x="23.1" y="12.7" class="st3" width="6.4" height="5.4"/>
</g>
</svg>
