<?xml version="1.0" encoding="utf-8"?>
<!-- Generator: Adobe Illustrator 21.0.0, SVG Export Plug-In . SVG Version: 6.00 Build 0)  -->
<svg version="1.1" id="Layer_1" xmlns="http://www.w3.org/2000/svg" xmlns:xlink="http://www.w3.org/1999/xlink" x="0px" y="0px"
	 viewBox="0 0 32 32" style="enable-background:new 0 0 32 32;" xml:space="preserve">
<style type="text/css">
	.st0{fill:#6D6E71;}
	.st1{fill:#85A754;stroke:#FFFFFF;stroke-width:0.1356;stroke-miterlimit:10;}
	.st2{fill:#AA454A;stroke:#FFFFFF;stroke-width:0.1437;stroke-miterlimit:10;}
	.st3{fill:#3B76A8;stroke:#FFFFFF;stroke-width:0.2804;stroke-miterlimit:10;}
	.st4{fill:#AA454A;stroke:#FFFFFF;stroke-width:7.713800e-02;stroke-miterlimit:10;}
	.st5{fill:#3B76A8;stroke:#FFFFFF;stroke-width:0.2851;stroke-miterlimit:10;}
	.st6{fill:#3B76A8;stroke:#FFFFFF;stroke-width:0.3581;stroke-miterlimit:10;}
</style>
<g>
	<path class="st0" d="M0.1,31.4h31.8c0.1,0,0.1-0.1,0.1-0.1c0-0.1,0-0.1-0.1-0.1H0.1C0,31.2,0,31.2,0,31.3C0,31.4,0,31.4,0.1,31.4
		L0.1,31.4z M0.1,31.4"/>
	<path class="st0" d="M0.1,23.7h31.8c0.1,0,0.1-0.1,0.1-0.1c0-0.1,0-0.1-0.1-0.1H0.1C0,23.5,0,23.5,0,23.6C0,23.7,0,23.7,0.1,23.7
		L0.1,23.7z M0.1,23.7"/>
	<path class="st0" d="M0.1,16h31.8c0.1,0,0.1-0.1,0.1-0.1c0-0.1,0-0.1-0.1-0.1H0.1C0,15.7,0,15.8,0,15.9C0,15.9,0,16,0.1,16L0.1,16z
		 M0.1,16"/>
	<path class="st0" d="M0.1,8.3h31.8C32,8.3,32,8.2,32,8.1C32,8.1,32,8,31.9,8H0.1C0,8,0,8.1,0,8.1C0,8.2,0,8.3,0.1,8.3L0.1,8.3z
		 M0.1,8.3"/>
	<rect x="2.3" y="18.8" class="st1" width="6.4" height="12"/>
	<rect x="2.3" y="8.3" class="st2" width="6.4" height="10.5"/>
	<rect x="2.3" y="0.6" class="st3" width="6.4" height="7.7"/>
	<rect x="12.7" y="22.8" class="st1" width="6.4" height="7.9"/>
	<rect x="12.7" y="20" class="st4" width="6.4" height="2.7"/>
	<rect x="12.7" y="0.6" class="st5" width="6.4" height="19.3"/>
	<rect x="23.1" y="26.8" class="st1" width="6.4" height="4"/>
	<rect x="23.1" y="18.1" class="st2" width="6.4" height="8.5"/>
	<rect x="23.1" y="0.6" class="st6" width="6.4" height="17.4"/>
	<path class="st0" d="M0.1,0.9h31.8C32,0.9,32,0.8,32,0.7c0-0.1,0-0.1-0.1-0.1H0.1C0,0.6,0,0.7,0,0.7C0,0.8,0,0.9,0.1,0.9L0.1,0.9z
		 M0.1,0.9"/>
</g>
</svg>
