<?xml version="1.0" encoding="UTF-8" standalone="no"?>
<svg
   id="Layer_1"
   viewBox="0 0 231.87096 144.83324"
   version="1.1"
   sodipodi:docname="LOGO_IGRP soÌ - green.svg"
   width="185.49677"
   height="115.86659"
   inkscape:version="1.2.1 (9c6d41e4, 2022-07-14)"
   xmlns:inkscape="http://www.inkscape.org/namespaces/inkscape"
   xmlns:sodipodi="http://sodipodi.sourceforge.net/DTD/sodipodi-0.dtd"
   xmlns="http://www.w3.org/2000/svg"
   xmlns:svg="http://www.w3.org/2000/svg">
  <sodipodi:namedview
     id="namedview69"
     pagecolor="#505050"
     bordercolor="#eeeeee"
     borderopacity="1"
     inkscape:showpageshadow="0"
     inkscape:pageopacity="0"
     inkscape:pagecheckerboard="0"
     inkscape:deskcolor="#505050"
     showgrid="false"
     inkscape:zoom="1.2291667"
     inkscape:cx="54.508473"
     inkscape:cy="91.118642"
     inkscape:window-width="1529"
     inkscape:window-height="456"
     inkscape:window-x="224"
     inkscape:window-y="25"
     inkscape:window-maximized="0"
     inkscape:current-layer="g28" />
  <defs
     id="defs4">
    <style
       id="style2">.cls-1{fill:#009fde;}.cls-2{fill:#c0cbd6;}.cls-3{fill:#242020;}.cls-4{fill:#41a6dc;}</style>
  </defs>
  <g
     id="g28"
     transform="translate(-82.712387,-5.4982297)">
    <path
       class="cls-2"
       d="m 291.46983,89.400339 c -1.93,-8.47 -14.85,-18.53 -94.89,-4.64 0,-12.92 0.15,-21.74 0,-43.73 -0.11,-15.51 -8,-26.62 -21.67,-20.69 -26.98,11.7 -52.07,44.2 -66.73,72.27 -4.57,8.740001 -1.42,24.500001 11.84,23.630001 22.78,-1.5 39.73,-9.35 61.88,-14.01 1.36,12.82 11.99,32.71 29.72,32.35 42.16,-0.87 82.66,-32.81 79.84,-45.170001 z m -111.7,-1.36 c -9.82,1.32 -34.34,6.69 -55.7,12.700001 -0.85,0.24 -1.64,-0.53 -1.43,-1.380001 2.73,-11.15 14.2,-24.88 20.21,-32.1 7.91,-9.49 24.09,-27 36.91,-32.83 -0.78,12.63 -0.97,39.63 0,53.62 z m 91.11,7.58 c -8.35,7.960001 -38.68,22.810001 -54.59,24.090001 -10.93,0.88 -19.95,-10.44 -19.56,-20.350001 12.71,-5.41 56.18,-6.48 73.47,-6.46 3.02,0 1.3,2.12 0.68,2.72 z"
       id="path16" />
    <path
       class="cls-4"
       d="m 173.56983,31.320339 c -40.6,17.48 -53.03,39.44 -65.37,61.22 -4.86,8.580001 -1.42,24.500001 11.84,23.630001 22.78,-1.5 39.73,-9.35 61.88,-14.01 l -2.14,-14.180001 c -9.82,1.32 -34.34,6.69 -55.7,12.700001 -0.85,0.24 -1.64,-0.53 -1.43,-1.380001 2.73,-11.15 14.2,-24.88 20.21,-32.1 7.91,-9.49 24.09,-27 36.91,-32.83 0,0 -0.44,-5.53 -6.22,-3.04 z"
       id="path18"
       style="fill:#008080" />
    <path
       class="cls-4"
       d="m 269.19983,78.280339 c -1.37,-0.11 -2.84,-0.19 -4.38,-0.25 -0.14,0 -0.28,-0.01 -0.42,-0.02 -0.38,-0.01 -0.76,-0.03 -1.15,-0.04 -0.89,-0.03 -1.82,-0.04 -2.77,-0.05 -0.14,0 -0.28,0 -0.42,0 -0.71,0 -1.45,0 -2.19,0.01 -0.32,0 -0.62,0 -0.94,0 0,0 0,0 -0.01,0 -2,0.04 -4.11,0.11 -6.34,0.21 -13.28,0.63 -30.82,2.64 -53.98,6.66 l 0.15,14.6 c 9.5,-4.05 36.01,-5.7 56.01,-6.26 0,0.01 0,0.02 0.02,0.03 6.91,-0.19 13.06,-0.26 17.49,-0.26 3.02,0 1.3,2.12 0.68,2.72 -0.51,0.49 -1.11,1.01 -1.78,1.54 3.05,-2.05 5.06,-5.53 5.06,-9.48 0,-3.95 -1.98,-7.38 -4.99,-9.44 z"
       id="path20"
       style="fill:#008080" />
    <g
       id="g26"
       style="fill:#008000"
       transform="translate(23.38983,13.220339)">
      <path
         class="cls-1"
         d="m 246.81,79.68 c -0.56,-2.26 -15.04,-8.23 -35.96,-7.06 -14.98,0.84 -26.97,1.54 -37.63,2.41 l 0.1,10.85 c 15.8,-3.36 36.69,-6.32 73.48,-6.2 z"
         id="path22"
         style="fill:#008000" />
      <path
         class="cls-1"
         d="m 100.52,87.5 c -2.93,4.48 20.96,8.05 33.72,6.55 9.04,-1.06 16.44,-2.81 24.32,-4.73 l -1.91,-12.67 c -17.09,2.02 -32.79,5.08 -56.13,10.85 z"
         id="path24"
         style="fill:#008000" />
    </g>
  </g>
</svg>
