<?xml version="1.0" encoding="iso-8859-1"?>
<!-- Generator: Adobe Illustrator 21.0.0, SVG Export Plug-In . SVG Version: 6.00 Build 0)  -->
<svg xmlns="http://www.w3.org/2000/svg" xmlns:xlink="http://www.w3.org/1999/xlink" version="1.1" id="Capa_1" x="0px" y="0px" viewBox="0 0 512 512" style="enable-background:new 0 0 512 512;" xml:space="preserve" width="512" height="512">
<g>
	<path d="M215.743,150.77c-7.857-2.62-16.354,1.628-18.974,9.487l-30,90c-2.619,7.859,1.628,16.354,9.487,18.974   c7.846,2.615,16.349-1.615,18.974-9.487l30-90C227.85,161.884,223.603,153.39,215.743,150.77z"/>
	<path d="M148.071,156.095c-4.919-6.668-14.311-8.085-20.976-3.166l-61,45C62.263,200.757,60,205.237,60,210   s2.263,9.243,6.096,12.071l61,45c6.721,4.959,16.098,3.444,20.976-3.166c4.918-6.667,3.5-16.058-3.167-20.976L100.268,210   l44.637-32.929C151.571,172.153,152.989,162.762,148.071,156.095z"/>
	<path d="M244,264c4.947,6.595,14.341,7.994,21,3l60-45c3.777-2.833,6-7.279,6-12s-2.223-9.167-6-12l-60-45   c-6.627-4.97-16.03-3.626-21,3c-4.971,6.627-3.627,16.029,3,21l44,33l-44,33C240.373,247.971,239.029,257.373,244,264z"/>
	<path d="M497,301h-54.714L391,248.859V15c0-8.284-6.716-15-15-15H15C6.716,0,0,6.716,0,15v331c0,8.284,6.716,15,15,15h226v136   c0,8.284,6.716,15,15,15h241c8.284,0,15-6.716,15-15V316C512,307.716,505.284,301,497,301z M361,60h-30V30h30V60z M301,30v30H30V30   H301z M30,331V90h331c0,6.362,0,206.087,0,211H256c-8.284,0-15,6.716-15,15v15H30z M482,482H271V331h105c8.284,0,15-6.716,15-15   v-24.359l34.306,34.878c2.82,2.867,6.673,4.481,10.694,4.481h46V482z"/>
	<circle cx="316" cy="406" r="15"/>
	<circle cx="376" cy="406" r="15"/>
	<circle cx="436" cy="406" r="15"/>
</g>















</svg>
