<?xml version="1.0" encoding="iso-8859-1"?>
<!-- Generator: Adobe Illustrator 19.0.0, SVG Export Plug-In . SVG Version: 6.00 Build 0)  -->
<svg version="1.1" id="Layer_1" xmlns="http://www.w3.org/2000/svg" xmlns:xlink="http://www.w3.org/1999/xlink" x="0px" y="0px"
	 viewBox="0 0 512 512" style="enable-background:new 0 0 512 512;" xml:space="preserve">
<g>
	<g>
		<g>
			<path d="M362.667,281.883V96c0-2.833-1.125-5.542-3.125-7.542L274.208,3.125c-2-2-4.708-3.125-7.542-3.125h-160
				C83.146,0,64,19.135,64,42.667v320c0,23.531,19.146,42.667,42.667,42.667h107.207C219.289,465.044,269.579,512,330.667,512
				C395.354,512,448,459.365,448,394.667C448,341.074,411.835,295.861,362.667,281.883z M277.333,36.417l48.917,48.917h-27.583
				c-11.771,0-21.333-9.573-21.333-21.333V36.417z M106.667,384c-11.771,0-21.333-9.573-21.333-21.333v-320
				c0-11.76,9.563-21.333,21.333-21.333H256V64c0,23.531,19.146,42.667,42.667,42.667h42.667v171.207
				c-3.518-0.319-7.066-0.54-10.667-0.54c-61.087,0-111.378,46.956-116.793,106.667H106.667z M330.667,490.667
				c-52.938,0-96-43.063-96-96s43.063-96,96-96s96,43.063,96,96S383.604,490.667,330.667,490.667z"/>
			<path d="M341.333,390.25v-59.583c0-5.896-4.771-10.667-10.667-10.667c-5.896,0-10.667,4.771-10.667,10.667v64
				c0,2.833,1.125,5.542,3.125,7.542l32,32c2.083,2.083,4.813,3.125,7.542,3.125s5.458-1.042,7.542-3.125
				c4.167-4.167,4.167-10.917,0-15.083L341.333,390.25z"/>
		</g>
	</g>
</g>
<g>
</g>
<g>
</g>
<g>
</g>
<g>
</g>
<g>
</g>
<g>
</g>
<g>
</g>
<g>
</g>
<g>
</g>
<g>
</g>
<g>
</g>
<g>
</g>
<g>
</g>
<g>
</g>
<g>
</g>
</svg>
